<svg xmlns="http://www.w3.org/2000/svg"  viewBox="0 0 124.088 82.563">
  <g id="adidasLogo" transform="translate(0)">
    <path id="Path_816" data-name="Path 816" d="M180.37,117.563a3.142,3.142,0,0,0,1.605.429h.018a3.143,3.143,0,0,0,1.606-.429,2.847,2.847,0,0,0,1.2-1.2,3.2,3.2,0,0,0,.428-1.606,3.238,3.238,0,0,0-.428-1.644,2.9,2.9,0,0,0-1.214-1.2,3.326,3.326,0,0,0-1.589-.428h-.018a3.552,3.552,0,0,0-1.587.428,3,3,0,0,0-1.214,1.2,3.234,3.234,0,0,0-.428,1.644,3.2,3.2,0,0,0,.428,1.606,2.84,2.84,0,0,0,1.2,1.2Zm-.728-4.164a2.613,2.613,0,0,1,1.008-1.009,2.869,2.869,0,0,1,1.325-.354h.018a2.879,2.879,0,0,1,1.327.354,2.622,2.622,0,0,1,1.008,1.009,2.758,2.758,0,0,1,0,2.707,2.517,2.517,0,0,1-.99.99,2.68,2.68,0,0,1-1.344.355h-.018a2.686,2.686,0,0,1-1.344-.355,2.522,2.522,0,0,1-.988-.99,2.639,2.639,0,0,1,0-2.707Z" transform="translate(-62.071 -60.187)" fill="#7262af" fill-rule="evenodd"/>
    <path id="Path_817" data-name="Path 817" d="M121.88,89.012h.336a.615.615,0,0,1,.448.131.254.254,0,0,1,.075.056,3.279,3.279,0,0,1,.523.747l.318.56h.673l-.411-.69a4.635,4.635,0,0,0-.523-.691.919.919,0,0,0-.3-.186,1.093,1.093,0,0,0,.728-.318.917.917,0,0,0,.281-.673.824.824,0,0,0-.168-.5.807.807,0,0,0-.448-.336,1.99,1.99,0,0,0-.673-.094c-.056,0-.131-.019-.2-.019h-1.214V90.5h.56V89.012h0Zm0-1.531h.859a2.959,2.959,0,0,1,.355.056.413.413,0,0,1,.242.186.453.453,0,0,1,.075.281.466.466,0,0,1-.168.373.81.81,0,0,1-.5.15h-.859V87.48h0Zm-83.851.393h5.041l-5.041-8.4-4.257-7.076L15.68,83.261l2.763,4.612H38.03Zm46.9,0h24.628L94.228,62.331,77.276,34.138l-6.983,4.2L59.2,45,70.293,63.47Zm-8.606,8.421a10.964,10.964,0,0,0-5.976-1.774h-.056a11.091,11.091,0,0,0,0,22.181h.056a10.959,10.959,0,0,0,5.976-1.774v1.157h5.1V87.873h-5.1Zm0,10.475a6.123,6.123,0,0,1-5.976,4.947h-.056a6.1,6.1,0,0,1,0-12.192h.056a6.109,6.109,0,0,1,5.976,4.929ZM100.26,96.293a10.911,10.911,0,0,0-5.975-1.774h-.057a11.091,11.091,0,0,0,0,22.181h.057a10.906,10.906,0,0,0,5.975-1.774v1.157h5.1V95.08h-5.1Zm0,10.475a6.123,6.123,0,0,1-5.975,4.947h-.057a6.1,6.1,0,0,1,0-12.192h.057a6.108,6.108,0,0,1,5.975,4.929Zm23.227-2.54c-.186-.094-.448-.187-.747-.3a53.917,53.917,0,0,0-5.564-1.437c-2.259-.5-3.4-1.157-3.4-1.979a1.738,1.738,0,0,1,.6-1.382,4.387,4.387,0,0,1,2.8-.673,4.077,4.077,0,0,1,2.932.877,3.641,3.641,0,0,1,.784,1.886h5.415a6.014,6.014,0,0,0-3.212-5.713,2.116,2.116,0,0,0-.355-.186,14,14,0,0,0-5.881-1.046c-2.969,0-5.209.785-6.7,2.371a6.517,6.517,0,0,0-1.774,4.649,5.2,5.2,0,0,0,3.4,4.986,36.474,36.474,0,0,0,6.274,1.7c2.222.486,3.341,1.177,3.341,2.054a1.747,1.747,0,0,1-.708,1.382,4.253,4.253,0,0,1-2.8.785,5.832,5.832,0,0,1-3.529-.821,2.682,2.682,0,0,1-1.047-2.259h-5.676a6.233,6.233,0,0,0,3.267,5.768,13.735,13.735,0,0,0,6.835,1.494,12.667,12.667,0,0,0,5-.933c.3-.131.561-.262.841-.411a6.247,6.247,0,0,0,3.342-5.88C126.923,106.955,125.782,105.311,123.487,104.229ZM19.9,96.293a11.02,11.02,0,0,0-5.993-1.774H13.85a11.091,11.091,0,0,0,0,22.181h.056a11.015,11.015,0,0,0,5.993-1.774v1.157H25V95.08H19.9v1.214Zm0,10.475a6.128,6.128,0,0,1-5.993,4.947H13.85a6.1,6.1,0,0,1,0-12.192h.056a6.112,6.112,0,0,1,5.993,4.929Zm31.815-13.91h5.546V87.985H51.715Zm0,23.226h5.546V94.52H51.715ZM44.079,96.293a11.021,11.021,0,0,0-5.994-1.774H38.03a11.091,11.091,0,0,0,0,22.181h.056a11.016,11.016,0,0,0,5.994-1.773v1.157h5.1V87.873h-5.1v8.42Zm0,10.475a6.128,6.128,0,0,1-5.994,4.947H38.03a6.1,6.1,0,0,1,0-12.192h.056a6.114,6.114,0,0,1,5.994,4.929v2.315ZM76.3,87.873,70.293,77.828,55.524,53.257,38.03,63.788l-.6.354.6.99L51.7,87.873H76.3Z" transform="translate(-2.835 -34.138)" fill="#7262af" fill-rule="evenodd"/>
  </g>
</svg>
