<svg xmlns="http://www.w3.org/2000/svg"  viewBox="0 0 100 100">
  <g id="dash-icon" transform="translate(-98 -501)">
    <circle id="Ellipse_47" data-name="Ellipse 47" cx="50" cy="50" r="50" transform="translate(98 501)" fill="none"/>
    <g id="dash-icon2" transform="translate(119 522)">
      <path id="Path_786" data-name="Path 786" d="M22.238,19.233H4.207A4.212,4.212,0,0,1,0,15.026V4.207A4.212,4.212,0,0,1,4.207,0H22.238a4.212,4.212,0,0,1,4.208,4.207V15.026A4.212,4.212,0,0,1,22.238,19.233ZM4.207,3.606a.6.6,0,0,0-.6.6V15.026a.6.6,0,0,0,.6.6H22.238a.6.6,0,0,0,.6-.6V4.207a.6.6,0,0,0-.6-.6ZM22.238,57.7H4.207A4.212,4.212,0,0,1,0,53.492V28.248a4.212,4.212,0,0,1,4.207-4.207H22.238a4.212,4.212,0,0,1,4.208,4.207V53.492A4.212,4.212,0,0,1,22.238,57.7ZM4.207,27.647a.6.6,0,0,0-.6.6V53.492a.6.6,0,0,0,.6.6H22.238a.6.6,0,0,0,.6-.6V28.248a.6.6,0,0,0-.6-.6ZM53.492,57.7H35.461a4.212,4.212,0,0,1-4.208-4.207V42.673a4.212,4.212,0,0,1,4.208-4.208H53.492A4.212,4.212,0,0,1,57.7,42.673V53.492A4.212,4.212,0,0,1,53.492,57.7ZM35.461,42.072a.6.6,0,0,0-.6.6V53.492a.6.6,0,0,0,.6.6H53.492a.6.6,0,0,0,.6-.6V42.673a.6.6,0,0,0-.6-.6Zm18.031-8.414H35.461a4.212,4.212,0,0,1-4.208-4.208V4.207A4.212,4.212,0,0,1,35.461,0H53.492A4.212,4.212,0,0,1,57.7,4.207V29.45A4.212,4.212,0,0,1,53.492,33.658ZM35.461,3.606a.6.6,0,0,0-.6.6V29.45a.6.6,0,0,0,.6.6H53.492a.6.6,0,0,0,.6-.6V4.207a.6.6,0,0,0-.6-.6Zm0,0"/>
    </g>
  </g>
</svg>
