<svg id="dash-icon" xmlns="http://www.w3.org/2000/svg" width="28.077" height="28.077" viewBox="0 0 28.077 28.077">
  <path id="Path_755" data-name="Path 755" d="M10.821,0H2.047A2.049,2.049,0,0,0,0,2.047V7.312A2.049,2.049,0,0,0,2.047,9.359h8.774a2.05,2.05,0,0,0,2.047-2.047V2.047A2.049,2.049,0,0,0,10.821,0Zm0,11.7H2.047A2.049,2.049,0,0,0,0,13.746V26.03a2.049,2.049,0,0,0,2.047,2.047h8.774a2.049,2.049,0,0,0,2.047-2.047V13.746A2.05,2.05,0,0,0,10.821,11.7ZM26.03,18.718H17.256a2.05,2.05,0,0,0-2.047,2.047V26.03a2.049,2.049,0,0,0,2.047,2.047H26.03a2.049,2.049,0,0,0,2.047-2.047V20.765A2.049,2.049,0,0,0,26.03,18.718ZM26.03,0H17.256a2.049,2.049,0,0,0-2.047,2.047V14.331a2.05,2.05,0,0,0,2.047,2.047H26.03a2.049,2.049,0,0,0,2.047-2.047V2.047A2.049,2.049,0,0,0,26.03,0Zm0,0" fill="current"/>
</svg>
