<svg xmlns="http://www.w3.org/2000/svg"  viewBox="0 0 192.305 29.954">
  <g id="decathlonLogo" transform="translate(0)">
    <path id="Path_821" data-name="Path 821" d="M156.078,111.639V103.78h.6l1.323-.265.937-.337.889-.5.792-.577.721-.721.624-.819.6-1.129.311-.937.217-.986.024-.841-.048-.986-.217-.986-.36-.914-.482-.889-.6-.793-1.082-.986-.841-.529-.914-.433-.962-.264-1.009-.145h-.528V81.809l.914.024L158.5,82l1.466.312,1.42.457,1.346.577,1.3.7,1.275.889,1.249,1.081,1.082,1.154.889,1.178.769,1.25.6,1.274.407,1.2.12.528V82.361h7.235l9.615,14.208-.024-14.279,7.886.072V111.3h-7.117l-9.783-14.134V111.3h-7.812V101.04l-.193.552-.5,1.251-.674,1.3-.792,1.226-.914,1.154-1.009,1.058-1.129.962-1.2.841-1.275.721-1.369.6-1.538.482-1.516.311-1.441.145h-.791Zm0-29.83v7.932H155.6l-1.009.145-.96.288-.916.433-.841.529-.769.673-.672.745-.552.865-.409.889-.289.962-.169,1.009v.986l.145,1.009.265.962.409.937.191.36.145.193.289.409.7.745.769.624.865.53.937.383.962.265,1.009.12.385-.024v7.859h-.672l-1.443-.12-1.441-.263-1.443-.457-1.369-.577-1.3-.672-1.2-.819-1.08-.914-.457-.383-.383-.385V111.3H128.726V82.361h7.764v21.778h6.66l-.289-.6-.311-.624-.53-1.323-.407-1.369-.289-1.443-.145-1.441V95.92l.169-1.49.314-1.514.432-1.467.577-1.347.723-1.274.817-1.2.937-1.131,1.058-1.033,1.129-.914,1.226-.794,1.275-.649,1.346-.553,1.395-.385,1.441-.241,1.441-.12h.623ZM74.036,106.568V99.836h1.755V94.452l-1.755,2.668V84.02l1.009-1.659h8.366V111.3H75.791v-4.733H74.036Zm15.7,4.734h7.692v-21.9h5.528V82.361H84.42v7.044h5.312v21.9h0Zm14.013,0h7.838V100.391h7.932V111.3H127.3V82.361l-7.787-.024V93.491h-7.932V82.361h-7.838V111.3ZM15.768,89.79l.7.241.937.456.865.578.77.673.673.77.553.865.433.914.288.962.169.937.048.864-.072.865-.169.914-.337.937-.456.914-.673.889-.841.817-.937.7-.986.5-.961.337v7.259l.7-.1,1.634-.409,1.539-.552,1.3-.649,1.25-.819,1.154-.937,1.009-.984.889-1.106.865-1.3.456-.769V111.3H42.547v-6.97H34.277v-3.991h8.269V93.467H34.277V89.212h8.269V82.361H26.561v8.005l-.169-.456-.649-1.081-.889-1.178L23.7,86.425l-1.2-1.034-1.225-.841-1.418-.722L18.1,83.2l-1.731-.457-.6-.1V89.79h0Zm58.268-5.77v13.1L72.28,99.837h1.756v6.732H69.517l-.553.552-1.13,1.034-1.178.914-1.25.769-1.322.649-1.37.53L61.3,111.4l-1.467.265-1.49.1-1.467-.024-1.442-.193-1.49-.335-1.515-.506-1.394-.624-1.225-.769-1.178-.865-1.033-.962-.962-1.082-.865-1.154-.746-1.273-.672-1.491-.553-1.634-.361-1.514-.169-1.491L43.219,96.4l.12-1.467.241-1.442.384-1.417.553-1.418.7-1.37.817-1.225.914-1.131,1.009-1.009,1.13-.913,1.2-.817,1.347-.721,1.514-.625,1.539-.433,1.442-.264L57.594,82l1.466.048L60.5,82.2l1.442.337,1.442.481,1.37.577,1.274.722,1.178.841,1.081.937.914.914.361.433-3.99,6.2-.5-.456-.5-.456-1.13-.842-1.275-.769-1.37-.625-1.37-.384-1.2-.144-1.153.072-1.178.289-1.153.433-.937.6-.769.649-.65.77-.553.865-.408.937-.289.986-.119.981v.986l.169.986.312.962.433.937.578.841.7.745.77.6.865.5.962.385,1.081.241,1.082.12,1.033-.072.962-.193.962-.362.865-.455.817-.577.649-.578.289-.287,10.5-17.309ZM10.311,104.332V89.405H12.45l1.058.024,1.009.1.985.169.265.1v-7.14l-1.154-.169-1.97-.12H2.834V111.3h11.25l1.058-.046.625-.072v-7.259l-.1.024-1.153.237-1.347.1-.745.048H10.311Z" transform="translate(-2.834 -81.808)" fill="#7262af" fill-rule="evenodd"/>
  </g>
</svg>
