<svg xmlns="http://www.w3.org/2000/svg"  viewBox="0 0 50 50">
  <g id="delete" transform="translate(-110 -1241)">
    <circle id="Ellipse_51" data-name="Ellipse 51" cx="25" cy="25" r="25" transform="translate(110 1241)" fill="none"/>
    <g id="svgexport-20_31_" data-name="svgexport-20 (31)" transform="translate(124.003 1252.001)">
      <path id="Path_810" data-name="Path 810" d="M112.628,154.7a.643.643,0,0,0-.643.643V167.5a.643.643,0,1,0,1.286,0V155.346A.643.643,0,0,0,112.628,154.7Zm-7.587,0a.643.643,0,0,0-.643.643V167.5a.643.643,0,1,0,1.286,0V155.346A.643.643,0,0,0,105.041,154.7Zm0,0" transform="translate(-97.689 -144.757)" stroke="current" stroke-width="0.5"/>
      <path id="Path_811" data-name="Path 811" d="M1.823,8.172V24.013a3.547,3.547,0,0,0,.943,2.446,3.166,3.166,0,0,0,2.3.993H17.228a3.165,3.165,0,0,0,2.3-.993,3.547,3.547,0,0,0,.943-2.446V8.172a2.456,2.456,0,0,0-.63-4.83H16.546v-.8A2.526,2.526,0,0,0,14,0H8.291a2.526,2.526,0,0,0-2.546,2.54v.8H2.453a2.456,2.456,0,0,0-.63,4.83Zm15.405,18H5.063a2.036,2.036,0,0,1-1.955-2.154V8.229H19.183V24.013A2.036,2.036,0,0,1,17.228,26.167ZM7.031,2.538a1.239,1.239,0,0,1,1.26-1.254H14a1.239,1.239,0,0,1,1.26,1.254v.8H7.031ZM2.453,4.628H19.838a1.157,1.157,0,1,1,0,2.315H2.453a1.157,1.157,0,0,1,0-2.315Zm0,0" transform="translate(0 0)" stroke="current" stroke-width="0.5"/>
      <path id="Path_812" data-name="Path 812" d="M164.041,154.7a.643.643,0,0,0-.643.643V167.5a.643.643,0,1,0,1.286,0V155.346A.643.643,0,0,0,164.041,154.7Zm0,0" transform="translate(-152.895 -144.757)" stroke="current" stroke-width="0.5"/>
    </g>
  </g>
</svg>
