<svg xmlns="http://www.w3.org/2000/svg" viewBox="0 0 50 50">
  <g id="edit" transform="translate(-110 -1241)">
    <circle id="Ellipse_51" data-name="Ellipse 51" cx="25" cy="25" r="25" transform="translate(110 1241)" fill="none"/>
    <g id="svgexport-21_6_" data-name="svgexport-21 (6)" transform="translate(123.242 1253.975)">
      <path id="Path_808" data-name="Path 808" d="M22.031,51.763a.594.594,0,0,0-.594.594v5.278a1.785,1.785,0,0,1-1.783,1.783H2.972a1.785,1.785,0,0,1-1.783-1.783V42.144a1.786,1.786,0,0,1,1.783-1.783H8.251a.594.594,0,0,0,0-1.189H2.972A2.976,2.976,0,0,0,0,42.144V57.636a2.976,2.976,0,0,0,2.972,2.972h16.68a2.976,2.976,0,0,0,2.972-2.972V52.357A.594.594,0,0,0,22.031,51.763Zm0,0" transform="translate(0 -36.598)" stroke="#7262AF" stroke-width="0.5"/>
      <path id="Path_809" data-name="Path 809" d="M124.147,1.044a2.675,2.675,0,0,0-3.783,0L109.758,11.65a.594.594,0,0,0-.153.262l-1.395,5.035a.594.594,0,0,0,.731.732l5.035-1.395a.594.594,0,0,0,.262-.153L124.845,5.525a2.678,2.678,0,0,0,0-3.783ZM111.054,12.036l8.68-8.68,2.8,2.8-8.68,8.68Zm-.559,1.122,2.236,2.237-3.094.857ZM124,4.684l-.63.63-2.8-2.8.631-.63a1.486,1.486,0,0,1,2.1,0l.7.7a1.488,1.488,0,0,1,0,2.1Zm0,0" transform="translate(-101.758)" stroke="#7262AF" stroke-width="0.5"/>
    </g>
  </g>
</svg>
