<svg xmlns="http://www.w3.org/2000/svg"  viewBox="0 0 50 50">
  <g id="editUser" transform="translate(-256 -1241)">
    <circle id="Ellipse_53" data-name="Ellipse 53" cx="25" cy="25" r="25" transform="translate(256 1241)" fill="none"/>
    <g id="svgexport-6_5_" data-name="svgexport-6 (5)" transform="translate(265.044 1249.9)">
      <path id="Path_805" data-name="Path 805" d="M14.241,29.09a47.19,47.19,0,0,1-8.678-.854,1,1,0,0,1-.807-1V26.01a7.719,7.719,0,0,1,7.71-7.71h4.32a7.8,7.8,0,0,1,3.98,1.095.9.9,0,1,0,.918-1.549,9.632,9.632,0,0,0-2.31-.985,8.6,8.6,0,1,0-9.489.005A9.52,9.52,0,0,0,2.956,26.01v1.23A2.8,2.8,0,0,0,5.224,30a48.874,48.874,0,0,0,9.006.887h.005a.9.9,0,0,0,.006-1.8ZM7.827,9.7a6.8,6.8,0,1,1,6.8,6.8,6.807,6.807,0,0,1-6.8-6.8Z"/>
      <path id="Path_806" data-name="Path 806" d="M28.183,19.494a2.947,2.947,0,0,0-4.163,0l-6.391,6.392a1.626,1.626,0,0,0-.453.879L16.8,29a1.63,1.63,0,0,0,1.877,1.879L20.91,30.5a1.618,1.618,0,0,0,.883-.455l6.39-6.39a2.946,2.946,0,0,0,0-4.161Zm-7.624,9.239-1.944.329.327-1.944,4.311-4.311,1.617,1.616Zm6.35-6.35-.766.766-1.617-1.616.766-.766a1.143,1.143,0,1,1,1.617,1.616Z"/>
    </g>
  </g>
</svg>
