<svg xmlns="http://www.w3.org/2000/svg"  viewBox="0 0 100 100">
  <g id="events-icon" transform="translate(-129 -638)">
    <circle id="Ellipse_49" data-name="Ellipse 49" cx="50" cy="50" r="50" transform="translate(129 638)" fill="none"/>
    <g id="svgexport-20_28_" data-name="svgexport-20 (28)" transform="translate(147.951 657.769)">
      <path id="Path_797" data-name="Path 797" d="M53.917,6.065h-4.3V4.47a1.928,1.928,0,1,0-3.857,0v1.6H32.577V4.47a1.928,1.928,0,1,0-3.857,0v1.6H15.535V4.47a1.928,1.928,0,1,0-3.856,0v1.6h-4.3A6.388,6.388,0,0,0,1,12.445V51.762a6.388,6.388,0,0,0,6.381,6.381H53.916A6.388,6.388,0,0,0,60.3,51.762V12.445a6.388,6.388,0,0,0-6.381-6.381ZM7.382,9.922h4.3v1.595a1.928,1.928,0,1,0,3.857,0V9.922H28.72v1.595a1.928,1.928,0,1,0,3.856,0V9.922H45.761v1.595a1.928,1.928,0,1,0,3.857,0V9.922h4.3a2.528,2.528,0,0,1,2.525,2.524V18.93H4.857V12.446A2.527,2.527,0,0,1,7.382,9.922ZM53.917,54.287H7.382a2.527,2.527,0,0,1-2.525-2.524V22.786H56.441V51.763A2.526,2.526,0,0,1,53.917,54.287Z" transform="translate(0 0)"/>
      <path id="Path_796" data-name="Path 796" d="M10.521,44.482a.459.459,0,0,0,.821,0l1.577-3.154v2.949a.459.459,0,0,0,.459.459H32.946a.459.459,0,0,0,.459-.459V41.327l1.577,3.154a.459.459,0,0,0,.821,0l1.223-2.446a.459.459,0,1,0-.821-.41l-.813,1.626-2.018-4.033a.429.429,0,0,0-.045-.073l-9.591-12.6,1.186-1.557a.459.459,0,1,0-.73-.556l-1.033,1.356-1.033-1.356a.459.459,0,1,0-.73.556l1.186,1.556-9.546,12.53a.444.444,0,0,0-.045.072l-2.062,4.106-.813-1.625a.459.459,0,0,0-.821.41ZM23.62,27.9l8.867,11.638V43.82H27.137l1.284-1.712a.458.458,0,0,0-.043-.6L23.62,36.75ZM26.334,43.36,24.476,38.9l2.972,2.971Zm-.8.459H20.792l2.37-5.687ZM19.99,43.36l-1.115-1.486L21.847,38.9Zm-6.154-3.82L22.7,27.9v8.847l-4.758,4.758a.458.458,0,0,0-.043.6l1.284,1.712H13.836Z" transform="translate(7.486 1.446)" stroke="current" stroke-width="2"/>
    </g>
  </g>
</svg>
