<svg xmlns="http://www.w3.org/2000/svg"  viewBox="0 0 28 28">
  <g id="event-icon" transform="translate(0)">
    <path id="Path_761" data-name="Path 761" d="M25.282,4.739h-1.37V3.369a1.37,1.37,0,0,0-2.739,0V4.739H10.217V3.369a1.37,1.37,0,0,0-2.739,0V4.739H6.109A4.121,4.121,0,0,0,2,8.847v1.37H29.39V8.847A4.121,4.121,0,0,0,25.282,4.739ZM2,25.281A4.121,4.121,0,0,0,6.109,29.39H25.282a4.121,4.121,0,0,0,4.109-4.108V12.956H2Zm19.173-1.37a1.369,1.369,0,1,1,1.37-1.369A1.369,1.369,0,0,1,21.173,23.912ZM10.217,15.695H21.173a1.37,1.37,0,1,1,0,2.739H10.217a1.37,1.37,0,1,1,0-2.739Zm0,5.478h6.848a1.369,1.369,0,1,1,0,2.739H10.217a1.369,1.369,0,1,1,0-2.739Z" transform="translate(-2 -2)" fill="current"/>
  </g>
</svg>
