<svg xmlns="http://www.w3.org/2000/svg"  viewBox="0 0 22.008 22.008">
  <g id="instaIcon" transform="translate(-5 -5)">
    <path id="Path_884" data-name="Path 884" d="M24.866,20.83a4.038,4.038,0,1,0,4.041,4.036A4.039,4.039,0,0,0,24.866,20.83Z" transform="translate(-8.862 -8.862)" fill="current"/>
    <path id="Path_885" data-name="Path 885" d="M22.1,5H9.912A4.92,4.92,0,0,0,5,9.912V22.1a4.917,4.917,0,0,0,4.912,4.912H22.1A4.914,4.914,0,0,0,27.008,22.1V9.912A4.917,4.917,0,0,0,22.1,5ZM16,23.134A7.128,7.128,0,1,1,23.134,16,7.14,7.14,0,0,1,16,23.134Zm7.28-12.963a1.508,1.508,0,1,1,1.51-1.505A1.508,1.508,0,0,1,23.284,10.172Z" fill="current"/>
  </g>
</svg>
