<svg xmlns="http://www.w3.org/2000/svg" viewBox="0 0 50 50">
  <g id="lockUser" transform="translate(-110 -1241)">
    <g id="svgexport-8_1_" data-name="svgexport-8 (1)" transform="translate(118.76 1249.9)">
      <path id="Path_798" data-name="Path 798" d="M17.688,28.953q-1.884.151-3.776.147a47.579,47.579,0,0,1-9.054-.864,1.008,1.008,0,0,1-.816-1V26.01a7.724,7.724,0,0,1,7.72-7.71h4.31a7.665,7.665,0,0,1,4.037,1.136.9.9,0,0,0,.947-1.531,9.347,9.347,0,0,0-2.386-1.047,8.6,8.6,0,1,0-9.495.008A9.522,9.522,0,0,0,2.24,26.01v1.23A2.81,2.81,0,0,0,4.518,30a49.293,49.293,0,0,0,9.393.9c1.367,0,2.687-.051,3.923-.153a.9.9,0,0,0,.824-.971.91.91,0,0,0-.97-.822ZM7.117,9.7a6.8,6.8,0,1,1,6.8,6.8,6.806,6.806,0,0,1-6.8-6.8Z"/>
      <path id="Path_799" data-name="Path 799" d="M28.2,21.814a5.319,5.319,0,1,0,0,7.526h0a5.33,5.33,0,0,0,0-7.526Zm-6.253,1.273a3.49,3.49,0,0,1,4.251-.543l-4.8,4.795a3.52,3.52,0,0,1,.544-4.252Zm4.982,4.981a3.521,3.521,0,0,1-4.252.544l4.8-4.8a3.519,3.519,0,0,1-.543,4.251Z"/>
    </g>
    <circle id="Ellipse_51" data-name="Ellipse 51" cx="25" cy="25" r="25" transform="translate(110 1241)" fill="none"/>
  </g>
</svg>
