<svg id="nikeLogo" xmlns="http://www.w3.org/2000/svg" viewBox="0 0 205.089 74.464">
  <path id="Path_818" data-name="Path 818" d="M899.553,862.175c-11.972,13.678-28.55,28.99-32.529,48.1-6.272,30.119,30.366,29.306,48.149,21.955,52.34-21.635,104.108-44.629,156.161-66.944-50.612,13.481-101.043,27.663-151.838,40.442C883.157,914.87,890.229,882.434,899.553,862.175Z" transform="translate(-866.244 -862.104)" fill="#7262af" fill-rule="evenodd"/>
  <path id="Path_819" data-name="Path 819" d="M899.249,861.744a.075.075,0,0,0-.1,0c-.753.857-.5.569-.753.856-.191.216-.384.429-.576.645q-1.065,1.2-2.145,2.392c-2.167,2.392-4.353,4.766-6.51,7.166a145.172,145.172,0,0,0-14.174,17.82,60.182,60.182,0,0,0-7.579,16q-.422,1.463-.743,2.953c-1.09,5.069-1.272,10.592,1.053,15.359a16.1,16.1,0,0,0,1.275,2.167,16.656,16.656,0,0,0,2.667,2.962,20.6,20.6,0,0,0,5.025,3.189,32.027,32.027,0,0,0,8.78,2.455,53.722,53.722,0,0,0,13.454.109,61.79,61.79,0,0,0,13-2.82c1.756-.592,3.46-1.318,5.172-2.027q2.965-1.228,5.924-2.461,10.212-4.254,20.394-8.567c25.6-10.841,51.108-21.911,76.611-32.979q19.281-8.368,38.574-16.7,4.675-2.01,9.351-4.016c.745-.32,1.488-.644,2.233-.965l.611-.261a.846.846,0,0,0,.167-.079c0-.029-.025-.025-.044-.029,0-.006-.011-.008,0-.015s-.006,0-.009,0a.575.575,0,0,0-.123.025l-.394.1-1.98.526q-2.57.686-5.137,1.378-7.508,2.013-15.015,4.036-22.521,6.076-45.026,12.2c-26.4,7.145-52.809,14.256-79.323,20.96q-2.381.6-4.759,1.2c-1.345.335-2.7.638-4.065.885q-1.6.292-3.21.472c-.83.093-1.66.159-2.495.2a45.209,45.209,0,0,0,7.554-1.019c1.142-.246,2.273-.531,3.4-.816l3.573-.9q9.919-2.506,19.818-5.09c22.58-5.849,45.094-11.939,67.606-18.041q19.845-5.38,39.7-10.743,6.619-1.784,13.238-3.553l4.548-1.216,1.383-.369.389-.1-.025.01-.609.261c-.679.291-1.356.585-2.033.876q-4.065,1.747-8.131,3.489-16.158,6.943-32.289,13.963c-26.793,11.613-53.568,23.273-80.463,34.651q-11.818,5-23.657,9.94-3.166,1.318-6.334,2.633c-1.512.625-3.017,1.268-4.562,1.811a58.559,58.559,0,0,1-9.44,2.427c-2.1.362-4.21.635-6.334.792-1.647.121-3.3.17-4.956.157-1.326-.011-2.655-.072-3.975-.2-.885-.083-1.765-.186-2.643-.32-5.563-.849-11.347-2.9-15.1-7.3a15.928,15.928,0,0,1-1.6-2.249,16.533,16.533,0,0,1-1.589-3.68,21.14,21.14,0,0,1-.817-6.31,36.5,36.5,0,0,1,1.777-10.2,60.571,60.571,0,0,1,7.131-14.832c4.556-7.079,10.127-13.44,15.773-19.657,1.885-2.076,3.787-4.142,5.665-6.226.553-.614.337-.377,2.731-3.066,0,0,0,0,0,0,.131-.147,0,0,.148-.167a.068.068,0,0,0,0-.1Zm10.123,45.148a24.616,24.616,0,0,1-7.018-.6,22.842,22.842,0,0,0,5.526.644c.5,0,.994-.027,1.491-.049Zm-10.389-44.617q-.146.319-.29.64c-.135.3-.263.6-.394.906C898.369,863.66,898.564,863.216,898.983,862.276Zm-.683,1.545c-.027.059-.2.447-.252.566-.024.058-.044.119-.068.177C898.085,864.317,898.193,864.068,898.3,863.821Zm-.32.743c-.047.109-.1.216-.143.325-.562,1.326-1.087,2.666-1.589,4.016q.815-2.19,1.732-4.341Zm-1.732,4.341c-.033.086-.072.17-.1.256-.169.457-.324.918-.487,1.378q.287-.82.591-1.634Zm-.591,1.634c-.129.363-.266.723-.389,1.088-.03.085-.055.171-.083.256C895.336,871.432,895.5,870.987,895.657,870.539Zm-.472,1.344c-.1.307-.2.617-.3.925C894.989,872.5,895.081,872.189,895.185,871.882Zm-.3.925c-.211.649-.419,1.3-.616,1.954C894.468,874.107,894.677,873.456,894.889,872.808Zm-.616,1.954c-.091.311-.176.623-.265.935C894.1,875.385,894.181,875.072,894.273,874.761Zm-.265.935c-.142.493-.29.985-.419,1.481-.039.152-.074.305-.113.458C893.643,876.985,893.824,876.342,894.008,875.7Zm-.532,1.939c-.072.285-.137.571-.206.856C893.339,878.206,893.4,877.92,893.476,877.635Zm-.7,3.027c-.019.094-.044.187-.063.28s-.031.181-.049.271c.036-.184.074-.368.112-.551Zm-.772,4.607c-.038.306-.063.613-.094.92C891.942,885.883,891.967,885.574,892.005,885.269Zm-.094.92c-.035.348-.085.694-.112,1.044-.019.235-.025.468-.039.7C891.792,887.352,891.852,886.771,891.911,886.188Zm-.157,1.91c-.041.742-.065,1.485-.058,2.228C891.688,889.584,891.714,888.842,891.753,888.1Zm-.058,2.318c.009.92.063,1.841.162,2.756C891.759,892.253,891.7,891.329,891.695,890.417Zm.2,3.095c.044.364.082.728.143,1.088.017.1.049.2.069.305C892.024,894.442,891.953,893.979,891.9,893.511Zm.213,1.394c.1.567.239,1.128.394,1.682C892.347,896.031,892.213,895.472,892.109,894.905Zm.394,1.682c.055.2.1.409.167.611C892.607,897,892.558,896.792,892.5,896.587Zm.614,1.85c.055.135.109.271.167.4C893.225,898.708,893.172,898.573,893.117,898.437Zm.167.4c.145.329.306.65.472.969Q893.5,899.335,893.284,898.842Zm.472.969c.031.057.058.117.09.173C893.814,899.927,893.788,899.869,893.756,899.811Zm.09.173a13.178,13.178,0,0,0,.713,1.165A13.278,13.278,0,0,1,893.846,899.984Zm.713,1.165a12.011,12.011,0,0,0,1.57,1.866,11.886,11.886,0,0,0,1.378,1.117A11.861,11.861,0,0,1,896.134,903,12.051,12.051,0,0,1,894.559,901.149Zm2.987,3.013c.184.129.364.268.556.389s.432.222.644.339A12.6,12.6,0,0,1,897.547,904.162Zm1.2.728c.176.1.351.2.532.285C899.1,905.086,898.923,904.987,898.747,904.89Zm2.156.965c.217.076.428.173.649.241.243.072.49.124.734.187C901.818,906.164,901.356,906.014,900.9,905.855Z" transform="translate(-865.889 -861.726)" fill="#7262af"/>
</svg>
