<svg xmlns="http://www.w3.org/2000/svg" version="1.1" xmlns:xlink="http://www.w3.org/1999/xlink"  x="0" y="0" viewBox="0 0 64 64" style="enable-background:new 0 0 512 512" xml:space="preserve" class=""><g><path d="M53.5 36.65V18a1 1 0 0 0-.5-.87l-24.25-14a1 1 0 0 0-1 0l-24.25 14A1 1 0 0 0 3 18v28a1 1 0 0 0 .5.87l24.25 14a1 1 0 0 0 1 0l9.11-5.26a12.74 12.74 0 1 0 15.64-19zM28.25 5.15 50.5 18l-11.16 6.44-20.66-13.76zm0 25.7L6 18l10.75-6.21L37.4 25.56zm7.25 17.4a12.69 12.69 0 0 0 1.33 5.64l-7.58 4.38V32.58l9-5.23v7.79a1 1 0 0 0 2 0V26.2l11.2-6.47v16.21a12.44 12.44 0 0 0-3.25-.44 12.76 12.76 0 0 0-12.7 12.75zm19-4-6.9 9.19a1 1 0 0 1-.77.4 1 1 0 0 1-.76-.35L42 48.71a1 1 0 0 1 1.53-1.29l3.25 3.82L53 43.06a1 1 0 1 1 1.59 1.21z" data-name="Layer 32" fill="current" opacity="1" data-original="current"></path></g></svg>