<svg xmlns="http://www.w3.org/2000/svg" version="1.1" xmlns:xlink="http://www.w3.org/1999/xlink"  x="0" y="0" viewBox="0 0 512 512" style="enable-background:new 0 0 512 512" xml:space="preserve"><g><path d="M346.7 216.7c-81.6 0-147.7 66.1-147.7 147.7S265.2 512 346.7 512s147.7-66.1 147.7-147.7c0-81.5-66.1-147.6-147.7-147.6zm89.8 88.2L364.3 377l-.1.1-.2.1c-7 6.9-18.3 6.8-25.2-.1l-47.7-47.7c-6.8-7.2-6.6-18.5.6-25.4 6.9-6.6 17.8-6.6 24.8 0l35 35 59.7-59.7c7.3-6.7 18.7-6.2 25.4 1.1 6.2 7 6.2 17.6-.1 24.5z" fill="current" opacity="1" data-original="current"></path><path d="M401.3 186.2h-.7c-13.7 0-24.7-11.1-24.8-24.7v-82c0-9.4-3-17.5-10.5-23.6-5-4-11.2-6.2-17.5-6.1-72.3 0-179.6-.1-251.9 0-16 0-27.9 12.4-27.9 28.6v344c0 20.8 11 31.6 31.9 31.7h71.6c13.7 0 24.7 11.1 24.7 24.7 0 13.7-11 24.8-24.7 24.8h-104c-28.5 0-50-21.4-50-49.9V49.8C17.6 21.4 39.2 0 67.6 0h309.1c27.6 0 49.4 21.3 49.4 48.8.1 30.1 0 82.1-.1 112.8 0 13.6-11.1 24.6-24.7 24.6z" fill="current" opacity="1" data-original="current"></path><path d="M143.2 108.2h122c13.6 0 24.6 11 24.6 24.6s-11 24.6-24.6 24.6h-122c-13.6 0-24.6-11-24.6-24.6s11-24.6 24.6-24.6zM143.2 204.2h72.9c13.6 0 24.6 11 24.6 24.6s-11 24.6-24.6 24.6h-72.9c-13.6 0-24.6-11-24.6-24.6s11-24.6 24.6-24.6zM143.4 300.1h21.5c13.6 0 24.6 11 24.6 24.6v.1c0 13.6-11 24.6-24.6 24.6h-21.5c-13.6 0-24.6-11-24.6-24.6v-.1c0-13.5 11-24.6 24.6-24.6z" fill="current" opacity="1" data-original="current"></path></g></svg>