<svg xmlns="http://www.w3.org/2000/svg" width="27.71" height="24.246" viewBox="0 0 27.71 24.246">
  <g id="shop-icon" transform="translate(0)">
    <path id="Path_762" data-name="Path 762" d="M27.684,39.584l-1.567-6.273A1.731,1.731,0,0,0,24.436,32H3.275a1.734,1.734,0,0,0-1.682,1.311L.026,39.584a.847.847,0,0,0-.026.21,4.23,4.23,0,0,0,4.113,4.33A4.041,4.041,0,0,0,7.36,42.448a3.986,3.986,0,0,0,6.494,0,3.986,3.986,0,0,0,6.494,0A4.039,4.039,0,0,0,23.6,44.123a4.23,4.23,0,0,0,4.113-4.33A.847.847,0,0,0,27.684,39.584ZM23.6,45.855a5.666,5.666,0,0,1-3.247-1.018,5.828,5.828,0,0,1-6.494,0,5.828,5.828,0,0,1-6.494,0,5.622,5.622,0,0,1-5.629.48v9.2a1.732,1.732,0,0,0,1.732,1.732h6.927V49.318h6.927v6.927h6.927a1.732,1.732,0,0,0,1.732-1.732v-9.2A5.619,5.619,0,0,1,23.6,45.855Z" transform="translate(0 -32)" fill="current"/>
  </g>
</svg>
