<svg id="shopIcon" xmlns="http://www.w3.org/2000/svg" viewBox="0 0 30 30">
  <path id="Path_794" data-name="Path 794" d="M42.5,28.385,40.7,8.313a1.063,1.063,0,0,0-1.059-.968H35.925V5.67a5.666,5.666,0,1,0-11.331,0V7.345H20.873a1.063,1.063,0,0,0-1.058.968l-1.81,20.151a1.063,1.063,0,0,0,1.059,1.158H41.455A1.063,1.063,0,0,0,42.5,28.385ZM26.721,5.668a3.539,3.539,0,1,1,7.079,0V7.343H26.721ZM20.229,27.494,21.847,9.471h2.747v1.9a1.063,1.063,0,0,0,2.126,0v-1.9H33.8v1.9a1.063,1.063,0,0,0,2.126,0v-1.9H38.67l1.619,18.023Z" transform="translate(-15.001 -0.004)" fill="current"/>
</svg>
