<svg xmlns="http://www.w3.org/2000/svg"  viewBox="0 0 100 100">
  <g id="shop-icon" transform="translate(-98 -918)">
    <circle id="Ellipse_50" data-name="Ellipse 50" cx="50" cy="50" r="50" transform="translate(98 918)" fill="none"/>
    <g id="shop-icon2" transform="translate(103.644 936.163)">
      <path id="Path_794" data-name="Path 794" d="M70.676,61.015,66.8,17.865a2.285,2.285,0,0,0-2.276-2.081h-7.99v-3.6a12.179,12.179,0,1,0-24.359,0v3.6h-8A2.285,2.285,0,0,0,21.9,17.865l-3.89,43.32a2.285,2.285,0,0,0,2.276,2.49H68.422a2.285,2.285,0,0,0,2.255-2.659ZM36.747,12.18a7.609,7.609,0,1,1,15.217,0v3.6H36.747ZM22.79,59.1,26.27,20.355h5.906v4.087a2.285,2.285,0,1,0,4.571,0V20.355H51.964v4.087a2.285,2.285,0,1,0,4.571,0V20.355h5.9L65.915,59.1H22.79Z"/>
    </g>
  </g>
</svg>
