<svg xmlns="http://www.w3.org/2000/svg"  viewBox="0 0 36.309 36.309">
  <g id="sidebarCollapseIcon" transform="translate(-2 -2)">
    <path id="Path_764" data-name="Path 764" d="M2,12.529v15.25A12.719,12.719,0,0,0,3.815,34.5a10.4,10.4,0,0,0,2,2,10.9,10.9,0,0,0,5.628,1.815V2C5.449,2.363,2,6.357,2,12.529ZM36.493,5.812a10.4,10.4,0,0,0-2-2A11.265,11.265,0,0,0,27.779,2H14.163V38.309H27.779c6.536,0,10.529-3.994,10.529-10.529V12.529a12.719,12.719,0,0,0-1.815-6.717ZM26.508,23.785a1.425,1.425,0,0,1,0,2,1.316,1.316,0,0,1-1.815,0l-4.72-4.72a1.425,1.425,0,0,1,0-2l4.72-4.72a1.412,1.412,0,0,1,2,2l-3.631,3.631Z" fill="current"/>
  </g>
</svg>
