<svg xmlns="http://www.w3.org/2000/svg" viewBox="0 0 122.004 81.331">
  <g id="underArmourLogo" transform="translate(0)">
    <path id="Path_822" data-name="Path 822" d="M34.365,61.649q-.229,0-.457-.025a76.263,76.263,0,0,1-17.532-4.87c-10.914-4.366-14.614-7.3-15-7.625A3.812,3.812,0,0,1,0,46.029c.513-11.32,9.226-21.71,23.911-28.5a69.974,69.974,0,0,1,13.12-4.661A92.347,92.347,0,0,1,61,9.8a3.812,3.812,0,0,1,0,7.625,84.87,84.87,0,0,0-22.229,2.867,62.456,62.456,0,0,0-11.6,4.133C16.279,29.462,9.249,36.772,7.862,44.31a82.54,82.54,0,0,0,11.351,5.363,77.925,77.925,0,0,0,11.33,3.568L30.5,35.583A22.489,22.489,0,0,1,34.564,23.22,3.814,3.814,0,1,1,40.882,27.5a14.971,14.971,0,0,0-2.755,8.077l.051,22.254a3.812,3.812,0,0,1-3.812,3.823Z" transform="translate(0.001 19.682)" fill="#7262af"/>
    <path id="Path_823" data-name="Path 823" d="M41.749,61.649a3.812,3.812,0,0,1-3.812-3.812V35.572a15.034,15.034,0,0,0-2.75-8.082,3.814,3.814,0,0,1,6.318-4.275,22.52,22.52,0,0,1,4.056,12.357V53.231a77.772,77.772,0,0,0,11.29-3.558A81.419,81.419,0,0,0,68.2,44.3c-1.383-7.538-8.413-14.843-19.26-19.86a62.248,62.248,0,0,0-11.32-4.082c-.112-.02-.224-.041-.33-.071a84.869,84.869,0,0,0-22.229-2.867,3.812,3.812,0,1,1,0-7.625A92.367,92.367,0,0,1,39.04,12.87a70.011,70.011,0,0,1,13.15,4.677C66.83,24.318,75.542,34.7,76.056,46.028a3.8,3.8,0,0,1-1.372,3.1c-.386.32-4.082,3.258-15,7.625a76.245,76.245,0,0,1-17.476,4.87q-.228.024-.457.025Z" transform="translate(45.94 19.682)" fill="#7262af"/>
    <path id="Path_824" data-name="Path 824" d="M61,55.848a92.689,92.689,0,0,1-24.282-3.136A69.589,69.589,0,0,1,23.87,48.1C9.23,41.331.518,30.946,0,19.621a3.8,3.8,0,0,1,1.372-3.1c.386-.32,4.082-3.258,15-7.625a76.881,76.881,0,0,1,17.476-4.87,3.873,3.873,0,0,1,2.989.93,3.831,3.831,0,0,1,1.281,2.857V30.077a14.935,14.935,0,0,0,2.592,7.843,3.792,3.792,0,0,1-2.948,6.186h-.051a3.817,3.817,0,0,1-3.157-1.677A22.458,22.458,0,0,1,30.5,30.077V12.418a77.773,77.773,0,0,0-11.29,3.558A81.42,81.42,0,0,0,7.858,21.344C9.24,28.882,16.27,36.187,27.118,41.2a62.473,62.473,0,0,0,11.544,4.138,88.355,88.355,0,0,0,44.62.015,62.437,62.437,0,0,0,11.549-4.128c10.893-5.037,17.923-12.347,19.311-19.885a82.539,82.539,0,0,0-11.351-5.363,77.926,77.926,0,0,0-11.33-3.568L91.5,30.067a22.489,22.489,0,0,1-4.061,12.362A3.838,3.838,0,1,1,81.356,37.8a14.869,14.869,0,0,0,2.516-7.726L83.821,7.822a3.812,3.812,0,0,1,4.27-3.792A76.265,76.265,0,0,1,105.623,8.9c10.914,4.366,14.614,7.3,15,7.625a3.812,3.812,0,0,1,1.372,3.1c-.513,11.32-9.226,21.71-23.911,28.5a69.975,69.975,0,0,1-12.855,4.605A92.667,92.667,0,0,1,61,55.848Z" transform="translate(0.005 -4)" fill="#7262af"/>
  </g>
</svg>
