<svg xmlns="http://www.w3.org/2000/svg" viewBox="0 0 50 50">
  <g id="unlockUser" transform="translate(-183 -1241)">
    <circle id="Ellipse_52" data-name="Ellipse 52" cx="25" cy="25" r="25" transform="translate(183 1241)" fill="none"/>
    <g id="svgexport-11" transform="translate(191.76 1249.9)">
      <path id="Path_800" data-name="Path 800" d="M17.688,28.953q-1.884.151-3.776.147a47.579,47.579,0,0,1-9.054-.864,1.008,1.008,0,0,1-.816-1V26.01a7.724,7.724,0,0,1,7.72-7.71h4.31a7.665,7.665,0,0,1,4.037,1.136.9.9,0,0,0,.947-1.531,9.347,9.347,0,0,0-2.386-1.047,8.6,8.6,0,1,0-9.495.008A9.522,9.522,0,0,0,2.24,26.01v1.23A2.81,2.81,0,0,0,4.518,30a49.293,49.293,0,0,0,9.393.9c1.367,0,2.687-.051,3.923-.153a.9.9,0,1,0-.146-1.793ZM7.117,9.7a6.8,6.8,0,1,1,6.8,6.8,6.806,6.806,0,0,1-6.8-6.8Z"/>
      <path id="Path_801" data-name="Path 801" d="M26.545,20.256a7.429,7.429,0,1,0,7.429,7.429A7.437,7.437,0,0,0,26.545,20.256Zm0,12.346a4.917,4.917,0,1,1,4.915-4.917A4.921,4.921,0,0,1,26.545,32.6Z" transform="translate(-0.107 -1.107)"/>
      <path id="Path_802" data-name="Path 802" d="M26.7,24.2l-2.021,1.629-.4-.508A1.256,1.256,0,1,0,22.3,26.876l1.185,1.51a1.255,1.255,0,0,0,1.776.2l3.012-2.428A1.256,1.256,0,1,0,26.7,24.2Z" transform="translate(1.048 0.346)"/>
    </g>
  </g>
</svg>
