<svg xmlns="http://www.w3.org/2000/svg"  viewBox="0 0 100 100">
  <g id="users-icon" transform="translate(-98 -768)">
    <circle id="Ellipse_48" data-name="Ellipse 48" cx="50" cy="50" r="50" transform="translate(98 768)" fill="none"/>
    <g id="users-icon2" transform="translate(104.674 777.184)">
      <path id="Path_786" data-name="Path 786" d="M39.281,58.933a79.408,79.408,0,0,1-15.636-1.562,1.541,1.541,0,1,1,.6-3.023,76.008,76.008,0,0,0,30.059,0,1.543,1.543,0,0,1,.6,3.023,79.393,79.393,0,0,1-15.633,1.562ZM58.466,52.7a1.541,1.541,0,0,1-1.541-1.541V48.2a1.542,1.542,0,1,1,3.084,0v2.955A1.541,1.541,0,0,1,58.468,52.7ZM20.1,52.7a1.541,1.541,0,0,1-1.541-1.541V48.2a18.557,18.557,0,0,1,7.99-15.128A24.4,24.4,0,0,1,47.8,30.922a1.542,1.542,0,0,1-1.027,2.907,21.22,21.22,0,0,0-18.486,1.79A15.44,15.44,0,0,0,21.648,48.2v2.955A1.541,1.541,0,0,1,20.107,52.7Z" transform="translate(4.093 7.567)"/>
      <path id="Path_787" data-name="Path 787" d="M54.612,50.3a1.541,1.541,0,0,1-.3-3.044,3.265,3.265,0,0,0,2.614-3.19,1.542,1.542,0,0,1,3.084,0,6.358,6.358,0,0,1-5.091,6.215,1.578,1.578,0,0,1-.3.029Zm-30.66,0a1.486,1.486,0,0,1-.3-.03,6.356,6.356,0,0,1-5.091-6.215,1.542,1.542,0,0,1,3.084,0,3.265,3.265,0,0,0,2.614,3.183,1.541,1.541,0,0,1-.3,3.053Z" transform="translate(4.093 14.665)"/>
      <path id="Path_788" data-name="Path 788" d="M44.989,46.93a1.542,1.542,0,1,1-.021-3.084,48.56,48.56,0,0,0,8.89-.951,1.541,1.541,0,1,1,.6,3.023,51.8,51.8,0,0,1-9.453,1Zm11.649-4A1.541,1.541,0,0,1,55.1,41.394v-1.9a1.542,1.542,0,0,1,3.084,0v1.9a1.541,1.541,0,0,1-1.543,1.539Z" transform="translate(17.569 12.191)"/>
      <path id="Path_789" data-name="Path 789" d="M71.731,45.957a1.541,1.541,0,0,1-.3-3.044A1.549,1.549,0,0,0,72.667,41.4a1.542,1.542,0,1,1,3.084,0,4.638,4.638,0,0,1-3.716,4.534A1.588,1.588,0,0,1,71.731,45.957Zm-59.19-3.023A1.541,1.541,0,0,1,11,41.393v-1.9a1.542,1.542,0,0,1,3.084,0v1.9a1.541,1.541,0,0,1-1.543,1.541Zm11.649,4h-.021a51.835,51.835,0,0,1-9.453-1,1.541,1.541,0,0,1,.6-3.023,48.811,48.811,0,0,0,8.888.951,1.542,1.542,0,0,1-.021,3.084Z" transform="translate(0 12.19)"/>
      <path id="Path_790" data-name="Path 790" d="M15.018,49.855a1.485,1.485,0,0,1-.3-.03A4.638,4.638,0,0,1,11,45.289a1.542,1.542,0,0,1,3.084,0A1.545,1.545,0,0,0,15.322,46.8a1.541,1.541,0,0,1-.3,3.053Zm40.437-14.55a1.545,1.545,0,0,1-.7-2.926,16.578,16.578,0,0,1,12.767-.626,1.542,1.542,0,1,1-1.029,2.907,13.433,13.433,0,0,0-10.349.47,1.509,1.509,0,0,1-.692.167Zm-24.161,0a1.541,1.541,0,0,1-.694-.167,13.429,13.429,0,0,0-10.348-.47,1.542,1.542,0,1,1-1.029-2.907,16.552,16.552,0,0,1,12.769.626,1.541,1.541,0,0,1-.7,2.916Z" transform="translate(0 8.299)"/>
      <path id="Path_791" data-name="Path 791" d="M46.979,38.737a8.479,8.479,0,1,1,8.479-8.479A8.593,8.593,0,0,1,46.979,38.737Zm0-13.875a5.4,5.4,0,1,0,5.4,5.4,5.468,5.468,0,0,0-5.4-5.393Z" transform="translate(14.895 3.431)"/>
      <path id="Path_792" data-name="Path 792" d="M74.208,44.607a1.541,1.541,0,0,1-1.541-1.541A9.265,9.265,0,0,0,66.5,34.345a1.542,1.542,0,0,1,1.027-2.907A12.355,12.355,0,0,1,75.75,43.066a1.541,1.541,0,0,1-1.541,1.541Zm-61.667,0A1.541,1.541,0,0,1,11,43.066a12.349,12.349,0,0,1,8.222-11.62,1.542,1.542,0,0,1,1.029,2.907,9.265,9.265,0,0,0-6.166,8.721,1.541,1.541,0,0,1-1.545,1.533Z" transform="translate(0 8.616)"/>
      <path id="Path_793" data-name="Path 793" d="M22.979,38.737a8.479,8.479,0,1,1,8.479-8.479A8.593,8.593,0,0,1,22.979,38.737Zm0-13.875a5.4,5.4,0,1,0,5.4,5.4,5.468,5.468,0,0,0-5.4-5.393ZM60.663,53.878a1.541,1.541,0,0,1-1.541-1.541A15.269,15.269,0,0,0,48.959,37.964a1.542,1.542,0,0,1,1.027-2.907,18.359,18.359,0,0,1,12.22,17.28,1.541,1.541,0,0,1-1.543,1.541Z" transform="translate(1.895 3.431)"/>
      <path id="Path_794" data-name="Path 794" d="M36.334,40.111A12.334,12.334,0,1,1,48.667,27.778,12.5,12.5,0,0,1,36.334,40.111Zm0-21.583a9.25,9.25,0,1,0,9.25,9.25A9.375,9.375,0,0,0,36.334,18.528Z" transform="translate(7.041 0)"/>
    </g>
  </g>
</svg>
