<svg xmlns="http://www.w3.org/2000/svg"  viewBox="0 0 28 28">
  <g id="users-icon" transform="translate(0)">
    <path id="Path_760" data-name="Path 760" d="M23.993,51.682H21.824a5.641,5.641,0,0,1,.342,1.939v8.2a2.417,2.417,0,0,1-.139.81h3.585A2.431,2.431,0,0,0,28.04,60.2V55.729A4.052,4.052,0,0,0,23.993,51.682ZM5.875,53.621a5.641,5.641,0,0,1,.342-1.939H4.048A4.052,4.052,0,0,0,0,55.729V60.2a2.431,2.431,0,0,0,2.429,2.429H6.014a2.418,2.418,0,0,1-.139-.81ZM16.5,49.573H11.541a4.052,4.052,0,0,0-4.048,4.048v8.2a.81.81,0,0,0,.81.81H19.737a.81.81,0,0,0,.81-.81v-8.2A4.052,4.052,0,0,0,16.5,49.573ZM14.02,38.84a4.867,4.867,0,1,0,4.868,4.868A4.873,4.873,0,0,0,14.02,38.84ZM5.472,43.377a3.639,3.639,0,1,0,3.641,3.641,3.645,3.645,0,0,0-3.641-3.641Zm17.1,0a3.641,3.641,0,1,0,3.641,3.641A3.645,3.645,0,0,0,22.568,43.377Z" transform="translate(0 -38.84)" fill="current"/>
  </g>
</svg>
