<svg xmlns="http://www.w3.org/2000/svg" viewBox="0 0 50 50">
  <g id="view" transform="translate(-110 -1241)">
    <circle id="Ellipse_51" data-name="Ellipse 51" cx="25" cy="25" r="25" transform="translate(110 1241)" fill="none"/>
    <g id="svgexport-24_3_" data-name="svgexport-24 (3)" transform="translate(119 1232)">
      <path id="Path_807" data-name="Path 807" d="M15.526,43.407c-10.158,0-15.194-8.855-15.4-9.232a.97.97,0,0,1,0-.943C.332,32.855,5.368,24,15.526,24s15.194,8.855,15.4,9.232a.97.97,0,0,1,0,.943C30.719,34.551,25.683,43.407,15.526,43.407ZM2.112,33.7c1.154,1.749,5.686,7.764,13.413,7.764,7.752,0,12.263-6.01,13.413-7.761-1.154-1.749-5.686-7.764-13.413-7.764C7.774,25.941,3.262,31.951,2.112,33.7Zm13.413,5.823A5.822,5.822,0,1,1,21.348,33.7,5.829,5.829,0,0,1,15.526,39.525Zm0-9.7A3.881,3.881,0,1,0,19.407,33.7,3.886,3.886,0,0,0,15.526,29.822Z" transform="translate(0)"/>
    </g>
  </g>
</svg>
