<svg xmlns="http://www.w3.org/2000/svg" width="36.933" height="49.276" viewBox="0 0 36.933 49.276">
  <g id="campIcon" transform="translate(-2)">
    <path id="Path_867" data-name="Path 867" d="M6.21,40.327,15.6,37.2,6.053,34.015A3.078,3.078,0,1,0,4.1,39.853l1.853.615C6.047,40.432,6.114,40.358,6.21,40.327ZM38.772,35.96a3.072,3.072,0,0,0-3.893-1.945l-27.7,9.233a3.078,3.078,0,1,0,1.948,5.835l11.335-3.776L31.8,49.083a3.077,3.077,0,1,0,1.948-5.838L30.2,42.063l6.626-2.21a3.078,3.078,0,0,0,1.948-3.893Zm-18.306.973c8.5,0,15.389-6.2,15.389-13.85,0-10.1-10.581-21.064-15.389-23.083,0,13.85-15.389,11.541-15.389,23.083C5.077,30.731,11.968,36.932,20.466,36.932Zm0-23.083c0,6.925,7.694,5.771,7.694,11.541,0,3.826-3.447,6.925-7.694,6.925s-7.694-3.1-7.694-6.925C12.771,20.344,18.062,14.859,20.466,13.85Z" transform="translate(0)" fill="#7262af"/>
  </g>
</svg>
