<svg id="dash-bg" xmlns="http://www.w3.org/2000/svg" xmlns:xlink="http://www.w3.org/1999/xlink" width="1920" height="1081" viewBox="0 0 1920 1081">
  <defs>
    <clipPath id="clip-path">
      <path id="Path_777" data-name="Path 777" d="M0-682.665H44.587v44.587H0Z" transform="translate(0 682.665)" fill="#e5e0ff"/>
    </clipPath>
    <clipPath id="clip-path-10">
      <path id="Path_777-10" data-name="Path 777" d="M0-682.665H38.229v38.229H0Z" transform="translate(0 682.665)" fill="#e5e0ff"/>
    </clipPath>
  </defs>
  <rect id="bg" width="1920" height="1081" fill="#3a3d64"/>
  <g id="patern" opacity="0.08">
    <g id="svgexport-20_10_" data-name="svgexport-20 (10)" transform="translate(235.039 801.037)">
      <g id="Group_57" data-name="Group 57" transform="translate(0 0.002)" clip-path="url(#clip-path)">
        <path id="Path_765" data-name="Path 765" d="M-23.434-.782c1.394-.373,3.028,1.207,3.65,3.53s0,4.509-1.4,4.882-3.028-1.207-3.65-3.53S-24.827-.408-23.434-.782Z" transform="translate(25.942 36.032)" fill="none" stroke="#e5e0ff" stroke-linecap="round" stroke-linejoin="round" stroke-miterlimit="2.613" stroke-width="1.5"/>
        <path id="Path_766" data-name="Path 766" d="M-32.255-250.5l33.731-9.038c1.394-.373,2.019-2.559,1.4-4.882s-2.257-3.9-3.65-3.53l-33.731,9.038" transform="translate(37.017 294.165)" fill="none" stroke="#e5e0ff" stroke-linecap="round" stroke-linejoin="round" stroke-miterlimit="2.613" stroke-width="1.5"/>
        <path id="Path_767" data-name="Path 767" d="M-55.688-.782c-1.394-.373-3.028,1.207-3.65,3.53s0,4.509,1.4,4.882,3.028-1.207,3.65-3.53S-54.294-.408-55.688-.782Z" transform="translate(97.766 36.032)" fill="none" stroke="#e5e0ff" stroke-linecap="round" stroke-linejoin="round" stroke-miterlimit="2.613" stroke-width="1.5"/>
        <path id="Path_768" data-name="Path 768" d="M-494.31-118.312l3.081.826m-36.456-.839c-1.055-.692-1.472-2.628-.925-4.669.622-2.323,2.257-3.9,3.65-3.53l13.871,3.717m17.606,13.733-17.5-4.689" transform="translate(533.308 152.736)" fill="none" stroke="#e5e0ff" stroke-linecap="round" stroke-linejoin="round" stroke-miterlimit="2.613" stroke-width="1.5"/>
        <path id="Path_769" data-name="Path 769" d="M-23.014-371.93c-5.846-9.875,6.289-10.472,4.139-19.153A8.167,8.167,0,0,1-15-383.55c0-7.795,6.835-7.161,2.874-14.369,0,0,8.882,2.395,6.227,14.282A7.865,7.865,0,0,0-1.98-389.08s5.667,7.795,2.232,17.033" transform="translate(33.926 398.79)" fill="none" stroke="#e5e0ff" stroke-linecap="round" stroke-linejoin="round" stroke-miterlimit="2.613" stroke-width="1.5"/>
        <path id="Path_770" data-name="Path 770" d="M-160.7-143.348a15.053,15.053,0,0,1-.313,1.953m-10.588-.121a6.7,6.7,0,0,1,1.878-7.145,5.321,5.321,0,0,0,1.7,3.483s4.267-3.091,3.658-8.186a11.876,11.876,0,0,1,1.984,2.466" transform="translate(188.089 169.804)" fill="none" stroke="#e5e0ff" stroke-linecap="round" stroke-linejoin="round" stroke-miterlimit="2.613" stroke-width="1.5"/>
        <path id="Path_771" data-name="Path 771" d="M0,0H0" transform="translate(27.167 22.544)" fill="none" stroke="#e5e0ff" stroke-linecap="round" stroke-linejoin="round" stroke-miterlimit="2.613" stroke-width="1.5"/>
        <path id="Path_772" data-name="Path 772" d="M0-7.355l1.918-.514" transform="translate(10.905 44.714)" fill="none" stroke="#e5e0ff" stroke-linecap="round" stroke-linejoin="round" stroke-miterlimit="2.613" stroke-width="1.5"/>
        <path id="Path_773" data-name="Path 773" d="M0-7.355l1.918-.514" transform="translate(37.769 39.049)" fill="none" stroke="#e5e0ff" stroke-linecap="round" stroke-linejoin="round" stroke-miterlimit="2.613" stroke-width="1.5"/>
        <path id="Path_774" data-name="Path 774" d="M0-7.355l1.918-.514" transform="translate(24.141 40.791)" fill="none" stroke="#e5e0ff" stroke-linecap="round" stroke-linejoin="round" stroke-miterlimit="2.613" stroke-width="1.5"/>
        <path id="Path_775" data-name="Path 775" d="M-27.45-7.355l-1.918-.514" transform="translate(34.849 37.026)" fill="none" stroke="#e5e0ff" stroke-linecap="round" stroke-linejoin="round" stroke-miterlimit="2.613" stroke-width="1.5"/>
        <path id="Path_776" data-name="Path 776" d="M-38.422-10.3l-2.685-.719" transform="translate(70.576 48.201)" fill="none" stroke="#e5e0ff" stroke-linecap="round" stroke-linejoin="round" stroke-miterlimit="2.613" stroke-width="1.5"/>
      </g>
    </g>
    <g id="svgexport-20_10_2" data-name="svgexport-20 (10)" transform="matrix(0.921, 0.391, -0.391, 0.921, 223.229, 478.099)">
      <g id="Group_57-2" data-name="Group 57" transform="translate(0 0.002)" clip-path="url(#clip-path)">
        <path id="Path_765-2" data-name="Path 765" d="M-23.434-.782c1.394-.373,3.028,1.207,3.65,3.53s0,4.509-1.4,4.882-3.028-1.207-3.65-3.53S-24.827-.408-23.434-.782Z" transform="translate(25.942 36.032)" fill="none" stroke="#e5e0ff" stroke-linecap="round" stroke-linejoin="round" stroke-miterlimit="2.613" stroke-width="1.5"/>
        <path id="Path_766-2" data-name="Path 766" d="M-32.255-250.5l33.731-9.038c1.394-.373,2.019-2.559,1.4-4.882s-2.257-3.9-3.65-3.53l-33.731,9.038" transform="translate(37.017 294.165)" fill="none" stroke="#e5e0ff" stroke-linecap="round" stroke-linejoin="round" stroke-miterlimit="2.613" stroke-width="1.5"/>
        <path id="Path_767-2" data-name="Path 767" d="M-55.688-.782c-1.394-.373-3.028,1.207-3.65,3.53s0,4.509,1.4,4.882,3.028-1.207,3.65-3.53S-54.294-.408-55.688-.782Z" transform="translate(97.766 36.032)" fill="none" stroke="#e5e0ff" stroke-linecap="round" stroke-linejoin="round" stroke-miterlimit="2.613" stroke-width="1.5"/>
        <path id="Path_768-2" data-name="Path 768" d="M-494.31-118.312l3.081.826m-36.456-.839c-1.055-.692-1.472-2.628-.925-4.669.622-2.323,2.257-3.9,3.65-3.53l13.871,3.717m17.606,13.733-17.5-4.689" transform="translate(533.308 152.736)" fill="none" stroke="#e5e0ff" stroke-linecap="round" stroke-linejoin="round" stroke-miterlimit="2.613" stroke-width="1.5"/>
        <path id="Path_769-2" data-name="Path 769" d="M-23.014-371.93c-5.846-9.875,6.289-10.472,4.139-19.153A8.167,8.167,0,0,1-15-383.55c0-7.795,6.835-7.161,2.874-14.369,0,0,8.882,2.395,6.227,14.282A7.865,7.865,0,0,0-1.98-389.08s5.667,7.795,2.232,17.033" transform="translate(33.926 398.79)" fill="none" stroke="#e5e0ff" stroke-linecap="round" stroke-linejoin="round" stroke-miterlimit="2.613" stroke-width="1.5"/>
        <path id="Path_770-2" data-name="Path 770" d="M-160.7-143.348a15.053,15.053,0,0,1-.313,1.953m-10.588-.121a6.7,6.7,0,0,1,1.878-7.145,5.321,5.321,0,0,0,1.7,3.483s4.267-3.091,3.658-8.186a11.876,11.876,0,0,1,1.984,2.466" transform="translate(188.089 169.804)" fill="none" stroke="#e5e0ff" stroke-linecap="round" stroke-linejoin="round" stroke-miterlimit="2.613" stroke-width="1.5"/>
        <path id="Path_771-2" data-name="Path 771" d="M0,0H0" transform="translate(27.167 22.544)" fill="none" stroke="#e5e0ff" stroke-linecap="round" stroke-linejoin="round" stroke-miterlimit="2.613" stroke-width="1.5"/>
        <path id="Path_772-2" data-name="Path 772" d="M0-7.355l1.918-.514" transform="translate(10.905 44.714)" fill="none" stroke="#e5e0ff" stroke-linecap="round" stroke-linejoin="round" stroke-miterlimit="2.613" stroke-width="1.5"/>
        <path id="Path_773-2" data-name="Path 773" d="M0-7.355l1.918-.514" transform="translate(37.769 39.049)" fill="none" stroke="#e5e0ff" stroke-linecap="round" stroke-linejoin="round" stroke-miterlimit="2.613" stroke-width="1.5"/>
        <path id="Path_774-2" data-name="Path 774" d="M0-7.355l1.918-.514" transform="translate(24.141 40.791)" fill="none" stroke="#e5e0ff" stroke-linecap="round" stroke-linejoin="round" stroke-miterlimit="2.613" stroke-width="1.5"/>
        <path id="Path_775-2" data-name="Path 775" d="M-27.45-7.355l-1.918-.514" transform="translate(34.849 37.026)" fill="none" stroke="#e5e0ff" stroke-linecap="round" stroke-linejoin="round" stroke-miterlimit="2.613" stroke-width="1.5"/>
        <path id="Path_776-2" data-name="Path 776" d="M-38.422-10.3l-2.685-.719" transform="translate(70.576 48.201)" fill="none" stroke="#e5e0ff" stroke-linecap="round" stroke-linejoin="round" stroke-miterlimit="2.613" stroke-width="1.5"/>
      </g>
    </g>
    <g id="svgexport-20_10_3" data-name="svgexport-20 (10)" transform="matrix(0.921, 0.391, -0.391, 0.921, 140.229, 280.099)">
      <g id="Group_57-3" data-name="Group 57" transform="translate(0 0.002)" clip-path="url(#clip-path)">
        <path id="Path_765-3" data-name="Path 765" d="M-23.434-.782c1.394-.373,3.028,1.207,3.65,3.53s0,4.509-1.4,4.882-3.028-1.207-3.65-3.53S-24.827-.408-23.434-.782Z" transform="translate(25.942 36.032)" fill="none" stroke="#e5e0ff" stroke-linecap="round" stroke-linejoin="round" stroke-miterlimit="2.613" stroke-width="1.5"/>
        <path id="Path_766-3" data-name="Path 766" d="M-32.255-250.5l33.731-9.038c1.394-.373,2.019-2.559,1.4-4.882s-2.257-3.9-3.65-3.53l-33.731,9.038" transform="translate(37.017 294.165)" fill="none" stroke="#e5e0ff" stroke-linecap="round" stroke-linejoin="round" stroke-miterlimit="2.613" stroke-width="1.5"/>
        <path id="Path_767-3" data-name="Path 767" d="M-55.688-.782c-1.394-.373-3.028,1.207-3.65,3.53s0,4.509,1.4,4.882,3.028-1.207,3.65-3.53S-54.294-.408-55.688-.782Z" transform="translate(97.766 36.032)" fill="none" stroke="#e5e0ff" stroke-linecap="round" stroke-linejoin="round" stroke-miterlimit="2.613" stroke-width="1.5"/>
        <path id="Path_768-3" data-name="Path 768" d="M-494.31-118.312l3.081.826m-36.456-.839c-1.055-.692-1.472-2.628-.925-4.669.622-2.323,2.257-3.9,3.65-3.53l13.871,3.717m17.606,13.733-17.5-4.689" transform="translate(533.308 152.736)" fill="none" stroke="#e5e0ff" stroke-linecap="round" stroke-linejoin="round" stroke-miterlimit="2.613" stroke-width="1.5"/>
        <path id="Path_769-3" data-name="Path 769" d="M-23.014-371.93c-5.846-9.875,6.289-10.472,4.139-19.153A8.167,8.167,0,0,1-15-383.55c0-7.795,6.835-7.161,2.874-14.369,0,0,8.882,2.395,6.227,14.282A7.865,7.865,0,0,0-1.98-389.08s5.667,7.795,2.232,17.033" transform="translate(33.926 398.79)" fill="none" stroke="#e5e0ff" stroke-linecap="round" stroke-linejoin="round" stroke-miterlimit="2.613" stroke-width="1.5"/>
        <path id="Path_770-3" data-name="Path 770" d="M-160.7-143.348a15.053,15.053,0,0,1-.313,1.953m-10.588-.121a6.7,6.7,0,0,1,1.878-7.145,5.321,5.321,0,0,0,1.7,3.483s4.267-3.091,3.658-8.186a11.876,11.876,0,0,1,1.984,2.466" transform="translate(188.089 169.804)" fill="none" stroke="#e5e0ff" stroke-linecap="round" stroke-linejoin="round" stroke-miterlimit="2.613" stroke-width="1.5"/>
        <path id="Path_771-3" data-name="Path 771" d="M0,0H0" transform="translate(27.167 22.544)" fill="none" stroke="#e5e0ff" stroke-linecap="round" stroke-linejoin="round" stroke-miterlimit="2.613" stroke-width="1.5"/>
        <path id="Path_772-3" data-name="Path 772" d="M0-7.355l1.918-.514" transform="translate(10.905 44.714)" fill="none" stroke="#e5e0ff" stroke-linecap="round" stroke-linejoin="round" stroke-miterlimit="2.613" stroke-width="1.5"/>
        <path id="Path_773-3" data-name="Path 773" d="M0-7.355l1.918-.514" transform="translate(37.769 39.049)" fill="none" stroke="#e5e0ff" stroke-linecap="round" stroke-linejoin="round" stroke-miterlimit="2.613" stroke-width="1.5"/>
        <path id="Path_774-3" data-name="Path 774" d="M0-7.355l1.918-.514" transform="translate(24.141 40.791)" fill="none" stroke="#e5e0ff" stroke-linecap="round" stroke-linejoin="round" stroke-miterlimit="2.613" stroke-width="1.5"/>
        <path id="Path_775-3" data-name="Path 775" d="M-27.45-7.355l-1.918-.514" transform="translate(34.849 37.026)" fill="none" stroke="#e5e0ff" stroke-linecap="round" stroke-linejoin="round" stroke-miterlimit="2.613" stroke-width="1.5"/>
        <path id="Path_776-3" data-name="Path 776" d="M-38.422-10.3l-2.685-.719" transform="translate(70.576 48.201)" fill="none" stroke="#e5e0ff" stroke-linecap="round" stroke-linejoin="round" stroke-miterlimit="2.613" stroke-width="1.5"/>
      </g>
    </g>
    <g id="svgexport-20_10_4" data-name="svgexport-20 (10)" transform="translate(30.395 971.037)">
      <g id="Group_57-4" data-name="Group 57" transform="translate(0 0.002)" clip-path="url(#clip-path)">
        <path id="Path_765-4" data-name="Path 765" d="M-23.434-.782c1.394-.373,3.028,1.207,3.65,3.53s0,4.509-1.4,4.882-3.028-1.207-3.65-3.53S-24.827-.408-23.434-.782Z" transform="translate(25.942 36.032)" fill="none" stroke="#e5e0ff" stroke-linecap="round" stroke-linejoin="round" stroke-miterlimit="2.613" stroke-width="1.5"/>
        <path id="Path_766-4" data-name="Path 766" d="M-32.255-250.5l33.731-9.038c1.394-.373,2.019-2.559,1.4-4.882s-2.257-3.9-3.65-3.53l-33.731,9.038" transform="translate(37.017 294.165)" fill="none" stroke="#e5e0ff" stroke-linecap="round" stroke-linejoin="round" stroke-miterlimit="2.613" stroke-width="1.5"/>
        <path id="Path_767-4" data-name="Path 767" d="M-55.688-.782c-1.394-.373-3.028,1.207-3.65,3.53s0,4.509,1.4,4.882,3.028-1.207,3.65-3.53S-54.294-.408-55.688-.782Z" transform="translate(97.766 36.032)" fill="none" stroke="#e5e0ff" stroke-linecap="round" stroke-linejoin="round" stroke-miterlimit="2.613" stroke-width="1.5"/>
        <path id="Path_768-4" data-name="Path 768" d="M-494.31-118.312l3.081.826m-36.456-.839c-1.055-.692-1.472-2.628-.925-4.669.622-2.323,2.257-3.9,3.65-3.53l13.871,3.717m17.606,13.733-17.5-4.689" transform="translate(533.308 152.736)" fill="none" stroke="#e5e0ff" stroke-linecap="round" stroke-linejoin="round" stroke-miterlimit="2.613" stroke-width="1.5"/>
        <path id="Path_769-4" data-name="Path 769" d="M-23.014-371.93c-5.846-9.875,6.289-10.472,4.139-19.153A8.167,8.167,0,0,1-15-383.55c0-7.795,6.835-7.161,2.874-14.369,0,0,8.882,2.395,6.227,14.282A7.865,7.865,0,0,0-1.98-389.08s5.667,7.795,2.232,17.033" transform="translate(33.926 398.79)" fill="none" stroke="#e5e0ff" stroke-linecap="round" stroke-linejoin="round" stroke-miterlimit="2.613" stroke-width="1.5"/>
        <path id="Path_770-4" data-name="Path 770" d="M-160.7-143.348a15.053,15.053,0,0,1-.313,1.953m-10.588-.121a6.7,6.7,0,0,1,1.878-7.145,5.321,5.321,0,0,0,1.7,3.483s4.267-3.091,3.658-8.186a11.876,11.876,0,0,1,1.984,2.466" transform="translate(188.089 169.804)" fill="none" stroke="#e5e0ff" stroke-linecap="round" stroke-linejoin="round" stroke-miterlimit="2.613" stroke-width="1.5"/>
        <path id="Path_771-4" data-name="Path 771" d="M0,0H0" transform="translate(27.167 22.544)" fill="none" stroke="#e5e0ff" stroke-linecap="round" stroke-linejoin="round" stroke-miterlimit="2.613" stroke-width="1.5"/>
        <path id="Path_772-4" data-name="Path 772" d="M0-7.355l1.918-.514" transform="translate(10.905 44.714)" fill="none" stroke="#e5e0ff" stroke-linecap="round" stroke-linejoin="round" stroke-miterlimit="2.613" stroke-width="1.5"/>
        <path id="Path_773-4" data-name="Path 773" d="M0-7.355l1.918-.514" transform="translate(37.769 39.049)" fill="none" stroke="#e5e0ff" stroke-linecap="round" stroke-linejoin="round" stroke-miterlimit="2.613" stroke-width="1.5"/>
        <path id="Path_774-4" data-name="Path 774" d="M0-7.355l1.918-.514" transform="translate(24.141 40.791)" fill="none" stroke="#e5e0ff" stroke-linecap="round" stroke-linejoin="round" stroke-miterlimit="2.613" stroke-width="1.5"/>
        <path id="Path_775-4" data-name="Path 775" d="M-27.45-7.355l-1.918-.514" transform="translate(34.849 37.026)" fill="none" stroke="#e5e0ff" stroke-linecap="round" stroke-linejoin="round" stroke-miterlimit="2.613" stroke-width="1.5"/>
        <path id="Path_776-4" data-name="Path 776" d="M-38.422-10.3l-2.685-.719" transform="translate(70.576 48.201)" fill="none" stroke="#e5e0ff" stroke-linecap="round" stroke-linejoin="round" stroke-miterlimit="2.613" stroke-width="1.5"/>
      </g>
    </g>
    <g id="svgexport-20_10_5" data-name="svgexport-20 (10)" transform="matrix(0.819, -0.574, 0.574, 0.819, 603.638, 46.384)">
      <g id="Group_57-5" data-name="Group 57" transform="translate(0 0.002)" clip-path="url(#clip-path)">
        <path id="Path_765-5" data-name="Path 765" d="M-23.434-.782c1.394-.373,3.028,1.207,3.65,3.53s0,4.509-1.4,4.882-3.028-1.207-3.65-3.53S-24.827-.408-23.434-.782Z" transform="translate(25.942 36.032)" fill="none" stroke="#e5e0ff" stroke-linecap="round" stroke-linejoin="round" stroke-miterlimit="2.613" stroke-width="1.5"/>
        <path id="Path_766-5" data-name="Path 766" d="M-32.255-250.5l33.731-9.038c1.394-.373,2.019-2.559,1.4-4.882s-2.257-3.9-3.65-3.53l-33.731,9.038" transform="translate(37.017 294.165)" fill="none" stroke="#e5e0ff" stroke-linecap="round" stroke-linejoin="round" stroke-miterlimit="2.613" stroke-width="1.5"/>
        <path id="Path_767-5" data-name="Path 767" d="M-55.688-.782c-1.394-.373-3.028,1.207-3.65,3.53s0,4.509,1.4,4.882,3.028-1.207,3.65-3.53S-54.294-.408-55.688-.782Z" transform="translate(97.766 36.032)" fill="none" stroke="#e5e0ff" stroke-linecap="round" stroke-linejoin="round" stroke-miterlimit="2.613" stroke-width="1.5"/>
        <path id="Path_768-5" data-name="Path 768" d="M-494.31-118.312l3.081.826m-36.456-.839c-1.055-.692-1.472-2.628-.925-4.669.622-2.323,2.257-3.9,3.65-3.53l13.871,3.717m17.606,13.733-17.5-4.689" transform="translate(533.308 152.736)" fill="none" stroke="#e5e0ff" stroke-linecap="round" stroke-linejoin="round" stroke-miterlimit="2.613" stroke-width="1.5"/>
        <path id="Path_769-5" data-name="Path 769" d="M-23.014-371.93c-5.846-9.875,6.289-10.472,4.139-19.153A8.167,8.167,0,0,1-15-383.55c0-7.795,6.835-7.161,2.874-14.369,0,0,8.882,2.395,6.227,14.282A7.865,7.865,0,0,0-1.98-389.08s5.667,7.795,2.232,17.033" transform="translate(33.926 398.79)" fill="none" stroke="#e5e0ff" stroke-linecap="round" stroke-linejoin="round" stroke-miterlimit="2.613" stroke-width="1.5"/>
        <path id="Path_770-5" data-name="Path 770" d="M-160.7-143.348a15.053,15.053,0,0,1-.313,1.953m-10.588-.121a6.7,6.7,0,0,1,1.878-7.145,5.321,5.321,0,0,0,1.7,3.483s4.267-3.091,3.658-8.186a11.876,11.876,0,0,1,1.984,2.466" transform="translate(188.089 169.804)" fill="none" stroke="#e5e0ff" stroke-linecap="round" stroke-linejoin="round" stroke-miterlimit="2.613" stroke-width="1.5"/>
        <path id="Path_771-5" data-name="Path 771" d="M0,0H0" transform="translate(27.167 22.544)" fill="none" stroke="#e5e0ff" stroke-linecap="round" stroke-linejoin="round" stroke-miterlimit="2.613" stroke-width="1.5"/>
        <path id="Path_772-5" data-name="Path 772" d="M0-7.355l1.918-.514" transform="translate(10.905 44.714)" fill="none" stroke="#e5e0ff" stroke-linecap="round" stroke-linejoin="round" stroke-miterlimit="2.613" stroke-width="1.5"/>
        <path id="Path_773-5" data-name="Path 773" d="M0-7.355l1.918-.514" transform="translate(37.769 39.049)" fill="none" stroke="#e5e0ff" stroke-linecap="round" stroke-linejoin="round" stroke-miterlimit="2.613" stroke-width="1.5"/>
        <path id="Path_774-5" data-name="Path 774" d="M0-7.355l1.918-.514" transform="translate(24.141 40.791)" fill="none" stroke="#e5e0ff" stroke-linecap="round" stroke-linejoin="round" stroke-miterlimit="2.613" stroke-width="1.5"/>
        <path id="Path_775-5" data-name="Path 775" d="M-27.45-7.355l-1.918-.514" transform="translate(34.849 37.026)" fill="none" stroke="#e5e0ff" stroke-linecap="round" stroke-linejoin="round" stroke-miterlimit="2.613" stroke-width="1.5"/>
        <path id="Path_776-5" data-name="Path 776" d="M-38.422-10.3l-2.685-.719" transform="translate(70.576 48.201)" fill="none" stroke="#e5e0ff" stroke-linecap="round" stroke-linejoin="round" stroke-miterlimit="2.613" stroke-width="1.5"/>
      </g>
    </g>
    <g id="svgexport-20_10_6" data-name="svgexport-20 (10)" transform="matrix(0.819, -0.574, 0.574, 0.819, 745.638, 114.384)">
      <g id="Group_57-6" data-name="Group 57" transform="translate(0 0.002)" clip-path="url(#clip-path)">
        <path id="Path_765-6" data-name="Path 765" d="M-23.434-.782c1.394-.373,3.028,1.207,3.65,3.53s0,4.509-1.4,4.882-3.028-1.207-3.65-3.53S-24.827-.408-23.434-.782Z" transform="translate(25.942 36.032)" fill="none" stroke="#e5e0ff" stroke-linecap="round" stroke-linejoin="round" stroke-miterlimit="2.613" stroke-width="1.5"/>
        <path id="Path_766-6" data-name="Path 766" d="M-32.255-250.5l33.731-9.038c1.394-.373,2.019-2.559,1.4-4.882s-2.257-3.9-3.65-3.53l-33.731,9.038" transform="translate(37.017 294.165)" fill="none" stroke="#e5e0ff" stroke-linecap="round" stroke-linejoin="round" stroke-miterlimit="2.613" stroke-width="1.5"/>
        <path id="Path_767-6" data-name="Path 767" d="M-55.688-.782c-1.394-.373-3.028,1.207-3.65,3.53s0,4.509,1.4,4.882,3.028-1.207,3.65-3.53S-54.294-.408-55.688-.782Z" transform="translate(97.766 36.032)" fill="none" stroke="#e5e0ff" stroke-linecap="round" stroke-linejoin="round" stroke-miterlimit="2.613" stroke-width="1.5"/>
        <path id="Path_768-6" data-name="Path 768" d="M-494.31-118.312l3.081.826m-36.456-.839c-1.055-.692-1.472-2.628-.925-4.669.622-2.323,2.257-3.9,3.65-3.53l13.871,3.717m17.606,13.733-17.5-4.689" transform="translate(533.308 152.736)" fill="none" stroke="#e5e0ff" stroke-linecap="round" stroke-linejoin="round" stroke-miterlimit="2.613" stroke-width="1.5"/>
        <path id="Path_769-6" data-name="Path 769" d="M-23.014-371.93c-5.846-9.875,6.289-10.472,4.139-19.153A8.167,8.167,0,0,1-15-383.55c0-7.795,6.835-7.161,2.874-14.369,0,0,8.882,2.395,6.227,14.282A7.865,7.865,0,0,0-1.98-389.08s5.667,7.795,2.232,17.033" transform="translate(33.926 398.79)" fill="none" stroke="#e5e0ff" stroke-linecap="round" stroke-linejoin="round" stroke-miterlimit="2.613" stroke-width="1.5"/>
        <path id="Path_770-6" data-name="Path 770" d="M-160.7-143.348a15.053,15.053,0,0,1-.313,1.953m-10.588-.121a6.7,6.7,0,0,1,1.878-7.145,5.321,5.321,0,0,0,1.7,3.483s4.267-3.091,3.658-8.186a11.876,11.876,0,0,1,1.984,2.466" transform="translate(188.089 169.804)" fill="none" stroke="#e5e0ff" stroke-linecap="round" stroke-linejoin="round" stroke-miterlimit="2.613" stroke-width="1.5"/>
        <path id="Path_771-6" data-name="Path 771" d="M0,0H0" transform="translate(27.167 22.544)" fill="none" stroke="#e5e0ff" stroke-linecap="round" stroke-linejoin="round" stroke-miterlimit="2.613" stroke-width="1.5"/>
        <path id="Path_772-6" data-name="Path 772" d="M0-7.355l1.918-.514" transform="translate(10.905 44.714)" fill="none" stroke="#e5e0ff" stroke-linecap="round" stroke-linejoin="round" stroke-miterlimit="2.613" stroke-width="1.5"/>
        <path id="Path_773-6" data-name="Path 773" d="M0-7.355l1.918-.514" transform="translate(37.769 39.049)" fill="none" stroke="#e5e0ff" stroke-linecap="round" stroke-linejoin="round" stroke-miterlimit="2.613" stroke-width="1.5"/>
        <path id="Path_774-6" data-name="Path 774" d="M0-7.355l1.918-.514" transform="translate(24.141 40.791)" fill="none" stroke="#e5e0ff" stroke-linecap="round" stroke-linejoin="round" stroke-miterlimit="2.613" stroke-width="1.5"/>
        <path id="Path_775-6" data-name="Path 775" d="M-27.45-7.355l-1.918-.514" transform="translate(34.849 37.026)" fill="none" stroke="#e5e0ff" stroke-linecap="round" stroke-linejoin="round" stroke-miterlimit="2.613" stroke-width="1.5"/>
        <path id="Path_776-6" data-name="Path 776" d="M-38.422-10.3l-2.685-.719" transform="translate(70.576 48.201)" fill="none" stroke="#e5e0ff" stroke-linecap="round" stroke-linejoin="round" stroke-miterlimit="2.613" stroke-width="1.5"/>
      </g>
    </g>
    <g id="svgexport-20_10_7" data-name="svgexport-20 (10)" transform="matrix(0.819, -0.574, 0.574, 0.819, 240.593, 171.384)">
      <g id="Group_57-7" data-name="Group 57" transform="translate(0 0.002)" clip-path="url(#clip-path)">
        <path id="Path_765-7" data-name="Path 765" d="M-23.434-.782c1.394-.373,3.028,1.207,3.65,3.53s0,4.509-1.4,4.882-3.028-1.207-3.65-3.53S-24.827-.408-23.434-.782Z" transform="translate(25.942 36.032)" fill="none" stroke="#e5e0ff" stroke-linecap="round" stroke-linejoin="round" stroke-miterlimit="2.613" stroke-width="1.5"/>
        <path id="Path_766-7" data-name="Path 766" d="M-32.255-250.5l33.731-9.038c1.394-.373,2.019-2.559,1.4-4.882s-2.257-3.9-3.65-3.53l-33.731,9.038" transform="translate(37.017 294.165)" fill="none" stroke="#e5e0ff" stroke-linecap="round" stroke-linejoin="round" stroke-miterlimit="2.613" stroke-width="1.5"/>
        <path id="Path_767-7" data-name="Path 767" d="M-55.688-.782c-1.394-.373-3.028,1.207-3.65,3.53s0,4.509,1.4,4.882,3.028-1.207,3.65-3.53S-54.294-.408-55.688-.782Z" transform="translate(97.766 36.032)" fill="none" stroke="#e5e0ff" stroke-linecap="round" stroke-linejoin="round" stroke-miterlimit="2.613" stroke-width="1.5"/>
        <path id="Path_768-7" data-name="Path 768" d="M-494.31-118.312l3.081.826m-36.456-.839c-1.055-.692-1.472-2.628-.925-4.669.622-2.323,2.257-3.9,3.65-3.53l13.871,3.717m17.606,13.733-17.5-4.689" transform="translate(533.308 152.736)" fill="none" stroke="#e5e0ff" stroke-linecap="round" stroke-linejoin="round" stroke-miterlimit="2.613" stroke-width="1.5"/>
        <path id="Path_769-7" data-name="Path 769" d="M-23.014-371.93c-5.846-9.875,6.289-10.472,4.139-19.153A8.167,8.167,0,0,1-15-383.55c0-7.795,6.835-7.161,2.874-14.369,0,0,8.882,2.395,6.227,14.282A7.865,7.865,0,0,0-1.98-389.08s5.667,7.795,2.232,17.033" transform="translate(33.926 398.79)" fill="none" stroke="#e5e0ff" stroke-linecap="round" stroke-linejoin="round" stroke-miterlimit="2.613" stroke-width="1.5"/>
        <path id="Path_770-7" data-name="Path 770" d="M-160.7-143.348a15.053,15.053,0,0,1-.313,1.953m-10.588-.121a6.7,6.7,0,0,1,1.878-7.145,5.321,5.321,0,0,0,1.7,3.483s4.267-3.091,3.658-8.186a11.876,11.876,0,0,1,1.984,2.466" transform="translate(188.089 169.804)" fill="none" stroke="#e5e0ff" stroke-linecap="round" stroke-linejoin="round" stroke-miterlimit="2.613" stroke-width="1.5"/>
        <path id="Path_771-7" data-name="Path 771" d="M0,0H0" transform="translate(27.167 22.544)" fill="none" stroke="#e5e0ff" stroke-linecap="round" stroke-linejoin="round" stroke-miterlimit="2.613" stroke-width="1.5"/>
        <path id="Path_772-7" data-name="Path 772" d="M0-7.355l1.918-.514" transform="translate(10.905 44.714)" fill="none" stroke="#e5e0ff" stroke-linecap="round" stroke-linejoin="round" stroke-miterlimit="2.613" stroke-width="1.5"/>
        <path id="Path_773-7" data-name="Path 773" d="M0-7.355l1.918-.514" transform="translate(37.769 39.049)" fill="none" stroke="#e5e0ff" stroke-linecap="round" stroke-linejoin="round" stroke-miterlimit="2.613" stroke-width="1.5"/>
        <path id="Path_774-7" data-name="Path 774" d="M0-7.355l1.918-.514" transform="translate(24.141 40.791)" fill="none" stroke="#e5e0ff" stroke-linecap="round" stroke-linejoin="round" stroke-miterlimit="2.613" stroke-width="1.5"/>
        <path id="Path_775-7" data-name="Path 775" d="M-27.45-7.355l-1.918-.514" transform="translate(34.849 37.026)" fill="none" stroke="#e5e0ff" stroke-linecap="round" stroke-linejoin="round" stroke-miterlimit="2.613" stroke-width="1.5"/>
        <path id="Path_776-7" data-name="Path 776" d="M-38.422-10.3l-2.685-.719" transform="translate(70.576 48.201)" fill="none" stroke="#e5e0ff" stroke-linecap="round" stroke-linejoin="round" stroke-miterlimit="2.613" stroke-width="1.5"/>
      </g>
    </g>
    <g id="svgexport-20_10_8" data-name="svgexport-20 (10)" transform="matrix(0.819, -0.574, 0.574, 0.819, 172.94, 25.572)">
      <g id="Group_57-8" data-name="Group 57" transform="translate(0 0.002)" clip-path="url(#clip-path)">
        <path id="Path_765-8" data-name="Path 765" d="M-23.434-.782c1.394-.373,3.028,1.207,3.65,3.53s0,4.509-1.4,4.882-3.028-1.207-3.65-3.53S-24.827-.408-23.434-.782Z" transform="translate(25.942 36.032)" fill="none" stroke="#e5e0ff" stroke-linecap="round" stroke-linejoin="round" stroke-miterlimit="2.613" stroke-width="1.5"/>
        <path id="Path_766-8" data-name="Path 766" d="M-32.255-250.5l33.731-9.038c1.394-.373,2.019-2.559,1.4-4.882s-2.257-3.9-3.65-3.53l-33.731,9.038" transform="translate(37.017 294.165)" fill="none" stroke="#e5e0ff" stroke-linecap="round" stroke-linejoin="round" stroke-miterlimit="2.613" stroke-width="1.5"/>
        <path id="Path_767-8" data-name="Path 767" d="M-55.688-.782c-1.394-.373-3.028,1.207-3.65,3.53s0,4.509,1.4,4.882,3.028-1.207,3.65-3.53S-54.294-.408-55.688-.782Z" transform="translate(97.766 36.032)" fill="none" stroke="#e5e0ff" stroke-linecap="round" stroke-linejoin="round" stroke-miterlimit="2.613" stroke-width="1.5"/>
        <path id="Path_768-8" data-name="Path 768" d="M-494.31-118.312l3.081.826m-36.456-.839c-1.055-.692-1.472-2.628-.925-4.669.622-2.323,2.257-3.9,3.65-3.53l13.871,3.717m17.606,13.733-17.5-4.689" transform="translate(533.308 152.736)" fill="none" stroke="#e5e0ff" stroke-linecap="round" stroke-linejoin="round" stroke-miterlimit="2.613" stroke-width="1.5"/>
        <path id="Path_769-8" data-name="Path 769" d="M-23.014-371.93c-5.846-9.875,6.289-10.472,4.139-19.153A8.167,8.167,0,0,1-15-383.55c0-7.795,6.835-7.161,2.874-14.369,0,0,8.882,2.395,6.227,14.282A7.865,7.865,0,0,0-1.98-389.08s5.667,7.795,2.232,17.033" transform="translate(33.926 398.79)" fill="none" stroke="#e5e0ff" stroke-linecap="round" stroke-linejoin="round" stroke-miterlimit="2.613" stroke-width="1.5"/>
        <path id="Path_770-8" data-name="Path 770" d="M-160.7-143.348a15.053,15.053,0,0,1-.313,1.953m-10.588-.121a6.7,6.7,0,0,1,1.878-7.145,5.321,5.321,0,0,0,1.7,3.483s4.267-3.091,3.658-8.186a11.876,11.876,0,0,1,1.984,2.466" transform="translate(188.089 169.804)" fill="none" stroke="#e5e0ff" stroke-linecap="round" stroke-linejoin="round" stroke-miterlimit="2.613" stroke-width="1.5"/>
        <path id="Path_771-8" data-name="Path 771" d="M0,0H0" transform="translate(27.167 22.544)" fill="none" stroke="#e5e0ff" stroke-linecap="round" stroke-linejoin="round" stroke-miterlimit="2.613" stroke-width="1.5"/>
        <path id="Path_772-8" data-name="Path 772" d="M0-7.355l1.918-.514" transform="translate(10.905 44.714)" fill="none" stroke="#e5e0ff" stroke-linecap="round" stroke-linejoin="round" stroke-miterlimit="2.613" stroke-width="1.5"/>
        <path id="Path_773-8" data-name="Path 773" d="M0-7.355l1.918-.514" transform="translate(37.769 39.049)" fill="none" stroke="#e5e0ff" stroke-linecap="round" stroke-linejoin="round" stroke-miterlimit="2.613" stroke-width="1.5"/>
        <path id="Path_774-8" data-name="Path 774" d="M0-7.355l1.918-.514" transform="translate(24.141 40.791)" fill="none" stroke="#e5e0ff" stroke-linecap="round" stroke-linejoin="round" stroke-miterlimit="2.613" stroke-width="1.5"/>
        <path id="Path_775-8" data-name="Path 775" d="M-27.45-7.355l-1.918-.514" transform="translate(34.849 37.026)" fill="none" stroke="#e5e0ff" stroke-linecap="round" stroke-linejoin="round" stroke-miterlimit="2.613" stroke-width="1.5"/>
        <path id="Path_776-8" data-name="Path 776" d="M-38.422-10.3l-2.685-.719" transform="translate(70.576 48.201)" fill="none" stroke="#e5e0ff" stroke-linecap="round" stroke-linejoin="round" stroke-miterlimit="2.613" stroke-width="1.5"/>
      </g>
    </g>
    <g id="svgexport-20_10_9" data-name="svgexport-20 (10)" transform="matrix(0.819, -0.574, 0.574, 0.819, 461.593, 221.384)">
      <g id="Group_57-9" data-name="Group 57" transform="translate(0 0.002)" clip-path="url(#clip-path)">
        <path id="Path_765-9" data-name="Path 765" d="M-23.434-.782c1.394-.373,3.028,1.207,3.65,3.53s0,4.509-1.4,4.882-3.028-1.207-3.65-3.53S-24.827-.408-23.434-.782Z" transform="translate(25.942 36.032)" fill="none" stroke="#e5e0ff" stroke-linecap="round" stroke-linejoin="round" stroke-miterlimit="2.613" stroke-width="1.5"/>
        <path id="Path_766-9" data-name="Path 766" d="M-32.255-250.5l33.731-9.038c1.394-.373,2.019-2.559,1.4-4.882s-2.257-3.9-3.65-3.53l-33.731,9.038" transform="translate(37.017 294.165)" fill="none" stroke="#e5e0ff" stroke-linecap="round" stroke-linejoin="round" stroke-miterlimit="2.613" stroke-width="1.5"/>
        <path id="Path_767-9" data-name="Path 767" d="M-55.688-.782c-1.394-.373-3.028,1.207-3.65,3.53s0,4.509,1.4,4.882,3.028-1.207,3.65-3.53S-54.294-.408-55.688-.782Z" transform="translate(97.766 36.032)" fill="none" stroke="#e5e0ff" stroke-linecap="round" stroke-linejoin="round" stroke-miterlimit="2.613" stroke-width="1.5"/>
        <path id="Path_768-9" data-name="Path 768" d="M-494.31-118.312l3.081.826m-36.456-.839c-1.055-.692-1.472-2.628-.925-4.669.622-2.323,2.257-3.9,3.65-3.53l13.871,3.717m17.606,13.733-17.5-4.689" transform="translate(533.308 152.736)" fill="none" stroke="#e5e0ff" stroke-linecap="round" stroke-linejoin="round" stroke-miterlimit="2.613" stroke-width="1.5"/>
        <path id="Path_769-9" data-name="Path 769" d="M-23.014-371.93c-5.846-9.875,6.289-10.472,4.139-19.153A8.167,8.167,0,0,1-15-383.55c0-7.795,6.835-7.161,2.874-14.369,0,0,8.882,2.395,6.227,14.282A7.865,7.865,0,0,0-1.98-389.08s5.667,7.795,2.232,17.033" transform="translate(33.926 398.79)" fill="none" stroke="#e5e0ff" stroke-linecap="round" stroke-linejoin="round" stroke-miterlimit="2.613" stroke-width="1.5"/>
        <path id="Path_770-9" data-name="Path 770" d="M-160.7-143.348a15.053,15.053,0,0,1-.313,1.953m-10.588-.121a6.7,6.7,0,0,1,1.878-7.145,5.321,5.321,0,0,0,1.7,3.483s4.267-3.091,3.658-8.186a11.876,11.876,0,0,1,1.984,2.466" transform="translate(188.089 169.804)" fill="none" stroke="#e5e0ff" stroke-linecap="round" stroke-linejoin="round" stroke-miterlimit="2.613" stroke-width="1.5"/>
        <path id="Path_771-9" data-name="Path 771" d="M0,0H0" transform="translate(27.167 22.544)" fill="none" stroke="#e5e0ff" stroke-linecap="round" stroke-linejoin="round" stroke-miterlimit="2.613" stroke-width="1.5"/>
        <path id="Path_772-9" data-name="Path 772" d="M0-7.355l1.918-.514" transform="translate(10.905 44.714)" fill="none" stroke="#e5e0ff" stroke-linecap="round" stroke-linejoin="round" stroke-miterlimit="2.613" stroke-width="1.5"/>
        <path id="Path_773-9" data-name="Path 773" d="M0-7.355l1.918-.514" transform="translate(37.769 39.049)" fill="none" stroke="#e5e0ff" stroke-linecap="round" stroke-linejoin="round" stroke-miterlimit="2.613" stroke-width="1.5"/>
        <path id="Path_774-9" data-name="Path 774" d="M0-7.355l1.918-.514" transform="translate(24.141 40.791)" fill="none" stroke="#e5e0ff" stroke-linecap="round" stroke-linejoin="round" stroke-miterlimit="2.613" stroke-width="1.5"/>
        <path id="Path_775-9" data-name="Path 775" d="M-27.45-7.355l-1.918-.514" transform="translate(34.849 37.026)" fill="none" stroke="#e5e0ff" stroke-linecap="round" stroke-linejoin="round" stroke-miterlimit="2.613" stroke-width="1.5"/>
        <path id="Path_776-9" data-name="Path 776" d="M-38.422-10.3l-2.685-.719" transform="translate(70.576 48.201)" fill="none" stroke="#e5e0ff" stroke-linecap="round" stroke-linejoin="round" stroke-miterlimit="2.613" stroke-width="1.5"/>
      </g>
    </g>
    <g id="svgexport-20_10_10" data-name="svgexport-20 (10)" transform="matrix(0.839, 0.545, -0.545, 0.839, 42.672, 638.785)">
      <g id="Group_57-10" data-name="Group 57" transform="translate(0 0.002)" clip-path="url(#clip-path-10)">
        <path id="Path_765-10" data-name="Path 765" d="M-23.667-.79c1.195-.32,2.6,1.035,3.13,3.026s0,3.866-1.2,4.186-2.6-1.035-3.13-3.026S-24.862-.47-23.667-.79Z" transform="translate(25.818 31.013)" fill="none" stroke="#e5e0ff" stroke-linecap="round" stroke-linejoin="round" stroke-miterlimit="2.613" stroke-width="1.5"/>
        <path id="Path_766-10" data-name="Path 766" d="M-32.577-253l28.921-7.749c1.2-.32,1.731-2.194,1.2-4.186s-1.935-3.347-3.13-3.026l-28.921,7.749" transform="translate(36.66 290.435)" fill="none" stroke="#e5e0ff" stroke-linecap="round" stroke-linejoin="round" stroke-miterlimit="2.613" stroke-width="1.5"/>
        <path id="Path_767-10" data-name="Path 767" d="M-56.243-.79c-1.195-.32-2.6,1.035-3.13,3.026s0,3.866,1.2,4.186,2.6-1.035,3.13-3.026S-55.047-.47-56.243-.79Z" transform="translate(92.321 31.013)" fill="none" stroke="#e5e0ff" stroke-linecap="round" stroke-linejoin="round" stroke-miterlimit="2.613" stroke-width="1.5"/>
        <path id="Path_768-10" data-name="Path 768" d="M-499.236-119.49l2.642.708m-31.258-.719c-.9-.594-1.262-2.253-.793-4,.534-1.992,1.935-3.347,3.13-3.026l11.893,3.187m15.1,11.775-15.006-4.021" transform="translate(532.672 149.006)" fill="none" stroke="#e5e0ff" stroke-linecap="round" stroke-linejoin="round" stroke-miterlimit="2.613" stroke-width="1.5"/>
        <path id="Path_769-10" data-name="Path 769" d="M-23.243-375.636c-5.012-8.467,5.392-8.979,3.549-16.422a7,7,0,0,1,3.323,6.459c0-6.683,5.86-6.14,2.464-12.32,0,0,7.616,2.053,5.339,12.245a6.743,6.743,0,0,0,3.36-4.667s4.859,6.683,1.914,14.6" transform="translate(32.599 398.666)" fill="none" stroke="#e5e0ff" stroke-linecap="round" stroke-linejoin="round" stroke-miterlimit="2.613" stroke-width="1.5"/>
        <path id="Path_770-10" data-name="Path 770" d="M-162.3-144.777a12.909,12.909,0,0,1-.269,1.674m-9.078-.1a5.743,5.743,0,0,1,1.611-6.127,4.562,4.562,0,0,0,1.456,2.987s3.659-2.651,3.136-7.019a10.183,10.183,0,0,1,1.7,2.114" transform="translate(185.784 167.46)" fill="none" stroke="#e5e0ff" stroke-linecap="round" stroke-linejoin="round" stroke-miterlimit="2.613" stroke-width="1.5"/>
        <path id="Path_771-10" data-name="Path 771" d="M0,0H0" transform="translate(23.293 19.33)" fill="none" stroke="#e5e0ff" stroke-linecap="round" stroke-linejoin="round" stroke-miterlimit="2.613" stroke-width="1.5"/>
        <path id="Path_772-10" data-name="Path 772" d="M0-7.429l1.645-.441" transform="translate(9.35 39.46)" fill="none" stroke="#e5e0ff" stroke-linecap="round" stroke-linejoin="round" stroke-miterlimit="2.613" stroke-width="1.5"/>
        <path id="Path_773-10" data-name="Path 773" d="M0-7.429l1.645-.441" transform="translate(32.384 34.603)" fill="none" stroke="#e5e0ff" stroke-linecap="round" stroke-linejoin="round" stroke-miterlimit="2.613" stroke-width="1.5"/>
        <path id="Path_774-10" data-name="Path 774" d="M0-7.429l1.645-.441" transform="translate(20.698 36.096)" fill="none" stroke="#e5e0ff" stroke-linecap="round" stroke-linejoin="round" stroke-miterlimit="2.613" stroke-width="1.5"/>
        <path id="Path_775-10" data-name="Path 775" d="M-27.723-7.429l-1.645-.441" transform="translate(34.067 32.868)" fill="none" stroke="#e5e0ff" stroke-linecap="round" stroke-linejoin="round" stroke-miterlimit="2.613" stroke-width="1.5"/>
        <path id="Path_776-10" data-name="Path 776" d="M-38.8-10.4l-2.3-.617" transform="translate(66.374 42.898)" fill="none" stroke="#e5e0ff" stroke-linecap="round" stroke-linejoin="round" stroke-miterlimit="2.613" stroke-width="1.5"/>
      </g>
    </g>
    <g id="svgexport-20_10_11" data-name="svgexport-20 (10)" transform="translate(1727.179 49.47) rotate(-30)">
      <g id="Group_57-11" data-name="Group 57" transform="translate(0 0.002)" clip-path="url(#clip-path-10)">
        <path id="Path_765-11" data-name="Path 765" d="M-23.667-.79c1.195-.32,2.6,1.035,3.13,3.026s0,3.866-1.2,4.186-2.6-1.035-3.13-3.026S-24.862-.47-23.667-.79Z" transform="translate(25.818 31.013)" fill="none" stroke="#e5e0ff" stroke-linecap="round" stroke-linejoin="round" stroke-miterlimit="2.613" stroke-width="1.5"/>
        <path id="Path_766-11" data-name="Path 766" d="M-32.577-253l28.921-7.749c1.2-.32,1.731-2.194,1.2-4.186s-1.935-3.347-3.13-3.026l-28.921,7.749" transform="translate(36.66 290.435)" fill="none" stroke="#e5e0ff" stroke-linecap="round" stroke-linejoin="round" stroke-miterlimit="2.613" stroke-width="1.5"/>
        <path id="Path_767-11" data-name="Path 767" d="M-56.243-.79c-1.195-.32-2.6,1.035-3.13,3.026s0,3.866,1.2,4.186,2.6-1.035,3.13-3.026S-55.047-.47-56.243-.79Z" transform="translate(92.321 31.013)" fill="none" stroke="#e5e0ff" stroke-linecap="round" stroke-linejoin="round" stroke-miterlimit="2.613" stroke-width="1.5"/>
        <path id="Path_768-11" data-name="Path 768" d="M-499.236-119.49l2.642.708m-31.258-.719c-.9-.594-1.262-2.253-.793-4,.534-1.992,1.935-3.347,3.13-3.026l11.893,3.187m15.1,11.775-15.006-4.021" transform="translate(532.672 149.006)" fill="none" stroke="#e5e0ff" stroke-linecap="round" stroke-linejoin="round" stroke-miterlimit="2.613" stroke-width="1.5"/>
        <path id="Path_769-11" data-name="Path 769" d="M-23.243-375.636c-5.012-8.467,5.392-8.979,3.549-16.422a7,7,0,0,1,3.323,6.459c0-6.683,5.86-6.14,2.464-12.32,0,0,7.616,2.053,5.339,12.245a6.743,6.743,0,0,0,3.36-4.667s4.859,6.683,1.914,14.6" transform="translate(32.599 398.666)" fill="none" stroke="#e5e0ff" stroke-linecap="round" stroke-linejoin="round" stroke-miterlimit="2.613" stroke-width="1.5"/>
        <path id="Path_770-11" data-name="Path 770" d="M-162.3-144.777a12.909,12.909,0,0,1-.269,1.674m-9.078-.1a5.743,5.743,0,0,1,1.611-6.127,4.562,4.562,0,0,0,1.456,2.987s3.659-2.651,3.136-7.019a10.183,10.183,0,0,1,1.7,2.114" transform="translate(185.784 167.46)" fill="none" stroke="#e5e0ff" stroke-linecap="round" stroke-linejoin="round" stroke-miterlimit="2.613" stroke-width="1.5"/>
        <path id="Path_771-11" data-name="Path 771" d="M0,0H0" transform="translate(23.293 19.33)" fill="none" stroke="#e5e0ff" stroke-linecap="round" stroke-linejoin="round" stroke-miterlimit="2.613" stroke-width="1.5"/>
        <path id="Path_772-11" data-name="Path 772" d="M0-7.429l1.645-.441" transform="translate(9.35 39.46)" fill="none" stroke="#e5e0ff" stroke-linecap="round" stroke-linejoin="round" stroke-miterlimit="2.613" stroke-width="1.5"/>
        <path id="Path_773-11" data-name="Path 773" d="M0-7.429l1.645-.441" transform="translate(32.384 34.603)" fill="none" stroke="#e5e0ff" stroke-linecap="round" stroke-linejoin="round" stroke-miterlimit="2.613" stroke-width="1.5"/>
        <path id="Path_774-11" data-name="Path 774" d="M0-7.429l1.645-.441" transform="translate(20.698 36.096)" fill="none" stroke="#e5e0ff" stroke-linecap="round" stroke-linejoin="round" stroke-miterlimit="2.613" stroke-width="1.5"/>
        <path id="Path_775-11" data-name="Path 775" d="M-27.723-7.429l-1.645-.441" transform="translate(34.067 32.868)" fill="none" stroke="#e5e0ff" stroke-linecap="round" stroke-linejoin="round" stroke-miterlimit="2.613" stroke-width="1.5"/>
        <path id="Path_776-11" data-name="Path 776" d="M-38.8-10.4l-2.3-.617" transform="translate(66.374 42.898)" fill="none" stroke="#e5e0ff" stroke-linecap="round" stroke-linejoin="round" stroke-miterlimit="2.613" stroke-width="1.5"/>
      </g>
    </g>
    <g id="svgexport-20_10_12" data-name="svgexport-20 (10)" transform="translate(1584.203 125.881) rotate(3)">
      <g id="Group_57-12" data-name="Group 57" transform="translate(0 0.002)" clip-path="url(#clip-path-10)">
        <path id="Path_765-12" data-name="Path 765" d="M-23.667-.79c1.195-.32,2.6,1.035,3.13,3.026s0,3.866-1.2,4.186-2.6-1.035-3.13-3.026S-24.862-.47-23.667-.79Z" transform="translate(25.818 31.013)" fill="none" stroke="#e5e0ff" stroke-linecap="round" stroke-linejoin="round" stroke-miterlimit="2.613" stroke-width="1.5"/>
        <path id="Path_766-12" data-name="Path 766" d="M-32.577-253l28.921-7.749c1.2-.32,1.731-2.194,1.2-4.186s-1.935-3.347-3.13-3.026l-28.921,7.749" transform="translate(36.66 290.435)" fill="none" stroke="#e5e0ff" stroke-linecap="round" stroke-linejoin="round" stroke-miterlimit="2.613" stroke-width="1.5"/>
        <path id="Path_767-12" data-name="Path 767" d="M-56.243-.79c-1.195-.32-2.6,1.035-3.13,3.026s0,3.866,1.2,4.186,2.6-1.035,3.13-3.026S-55.047-.47-56.243-.79Z" transform="translate(92.321 31.013)" fill="none" stroke="#e5e0ff" stroke-linecap="round" stroke-linejoin="round" stroke-miterlimit="2.613" stroke-width="1.5"/>
        <path id="Path_768-12" data-name="Path 768" d="M-499.236-119.49l2.642.708m-31.258-.719c-.9-.594-1.262-2.253-.793-4,.534-1.992,1.935-3.347,3.13-3.026l11.893,3.187m15.1,11.775-15.006-4.021" transform="translate(532.672 149.006)" fill="none" stroke="#e5e0ff" stroke-linecap="round" stroke-linejoin="round" stroke-miterlimit="2.613" stroke-width="1.5"/>
        <path id="Path_769-12" data-name="Path 769" d="M-23.243-375.636c-5.012-8.467,5.392-8.979,3.549-16.422a7,7,0,0,1,3.323,6.459c0-6.683,5.86-6.14,2.464-12.32,0,0,7.616,2.053,5.339,12.245a6.743,6.743,0,0,0,3.36-4.667s4.859,6.683,1.914,14.6" transform="translate(32.599 398.666)" fill="none" stroke="#e5e0ff" stroke-linecap="round" stroke-linejoin="round" stroke-miterlimit="2.613" stroke-width="1.5"/>
        <path id="Path_770-12" data-name="Path 770" d="M-162.3-144.777a12.909,12.909,0,0,1-.269,1.674m-9.078-.1a5.743,5.743,0,0,1,1.611-6.127,4.562,4.562,0,0,0,1.456,2.987s3.659-2.651,3.136-7.019a10.183,10.183,0,0,1,1.7,2.114" transform="translate(185.784 167.46)" fill="none" stroke="#e5e0ff" stroke-linecap="round" stroke-linejoin="round" stroke-miterlimit="2.613" stroke-width="1.5"/>
        <path id="Path_771-12" data-name="Path 771" d="M0,0H0" transform="translate(23.293 19.33)" fill="none" stroke="#e5e0ff" stroke-linecap="round" stroke-linejoin="round" stroke-miterlimit="2.613" stroke-width="1.5"/>
        <path id="Path_772-12" data-name="Path 772" d="M0-7.429l1.645-.441" transform="translate(9.35 39.46)" fill="none" stroke="#e5e0ff" stroke-linecap="round" stroke-linejoin="round" stroke-miterlimit="2.613" stroke-width="1.5"/>
        <path id="Path_773-12" data-name="Path 773" d="M0-7.429l1.645-.441" transform="translate(32.384 34.603)" fill="none" stroke="#e5e0ff" stroke-linecap="round" stroke-linejoin="round" stroke-miterlimit="2.613" stroke-width="1.5"/>
        <path id="Path_774-12" data-name="Path 774" d="M0-7.429l1.645-.441" transform="translate(20.698 36.096)" fill="none" stroke="#e5e0ff" stroke-linecap="round" stroke-linejoin="round" stroke-miterlimit="2.613" stroke-width="1.5"/>
        <path id="Path_775-12" data-name="Path 775" d="M-27.723-7.429l-1.645-.441" transform="translate(34.067 32.868)" fill="none" stroke="#e5e0ff" stroke-linecap="round" stroke-linejoin="round" stroke-miterlimit="2.613" stroke-width="1.5"/>
        <path id="Path_776-12" data-name="Path 776" d="M-38.8-10.4l-2.3-.617" transform="translate(66.374 42.898)" fill="none" stroke="#e5e0ff" stroke-linecap="round" stroke-linejoin="round" stroke-miterlimit="2.613" stroke-width="1.5"/>
      </g>
    </g>
    <g id="svgexport-20_10_13" data-name="svgexport-20 (10)" transform="translate(1636.046 9.089) rotate(25)">
      <g id="Group_57-13" data-name="Group 57" transform="translate(0 0.002)" clip-path="url(#clip-path-10)">
        <path id="Path_765-13" data-name="Path 765" d="M-23.667-.79c1.195-.32,2.6,1.035,3.13,3.026s0,3.866-1.2,4.186-2.6-1.035-3.13-3.026S-24.862-.47-23.667-.79Z" transform="translate(25.818 31.013)" fill="none" stroke="#e5e0ff" stroke-linecap="round" stroke-linejoin="round" stroke-miterlimit="2.613" stroke-width="1.5"/>
        <path id="Path_766-13" data-name="Path 766" d="M-32.577-253l28.921-7.749c1.2-.32,1.731-2.194,1.2-4.186s-1.935-3.347-3.13-3.026l-28.921,7.749" transform="translate(36.66 290.435)" fill="none" stroke="#e5e0ff" stroke-linecap="round" stroke-linejoin="round" stroke-miterlimit="2.613" stroke-width="1.5"/>
        <path id="Path_767-13" data-name="Path 767" d="M-56.243-.79c-1.195-.32-2.6,1.035-3.13,3.026s0,3.866,1.2,4.186,2.6-1.035,3.13-3.026S-55.047-.47-56.243-.79Z" transform="translate(92.321 31.013)" fill="none" stroke="#e5e0ff" stroke-linecap="round" stroke-linejoin="round" stroke-miterlimit="2.613" stroke-width="1.5"/>
        <path id="Path_768-13" data-name="Path 768" d="M-499.236-119.49l2.642.708m-31.258-.719c-.9-.594-1.262-2.253-.793-4,.534-1.992,1.935-3.347,3.13-3.026l11.893,3.187m15.1,11.775-15.006-4.021" transform="translate(532.672 149.006)" fill="none" stroke="#e5e0ff" stroke-linecap="round" stroke-linejoin="round" stroke-miterlimit="2.613" stroke-width="1.5"/>
        <path id="Path_769-13" data-name="Path 769" d="M-23.243-375.636c-5.012-8.467,5.392-8.979,3.549-16.422a7,7,0,0,1,3.323,6.459c0-6.683,5.86-6.14,2.464-12.32,0,0,7.616,2.053,5.339,12.245a6.743,6.743,0,0,0,3.36-4.667s4.859,6.683,1.914,14.6" transform="translate(32.599 398.666)" fill="none" stroke="#e5e0ff" stroke-linecap="round" stroke-linejoin="round" stroke-miterlimit="2.613" stroke-width="1.5"/>
        <path id="Path_770-13" data-name="Path 770" d="M-162.3-144.777a12.909,12.909,0,0,1-.269,1.674m-9.078-.1a5.743,5.743,0,0,1,1.611-6.127,4.562,4.562,0,0,0,1.456,2.987s3.659-2.651,3.136-7.019a10.183,10.183,0,0,1,1.7,2.114" transform="translate(185.784 167.46)" fill="none" stroke="#e5e0ff" stroke-linecap="round" stroke-linejoin="round" stroke-miterlimit="2.613" stroke-width="1.5"/>
        <path id="Path_771-13" data-name="Path 771" d="M0,0H0" transform="translate(23.293 19.33)" fill="none" stroke="#e5e0ff" stroke-linecap="round" stroke-linejoin="round" stroke-miterlimit="2.613" stroke-width="1.5"/>
        <path id="Path_772-13" data-name="Path 772" d="M0-7.429l1.645-.441" transform="translate(9.35 39.46)" fill="none" stroke="#e5e0ff" stroke-linecap="round" stroke-linejoin="round" stroke-miterlimit="2.613" stroke-width="1.5"/>
        <path id="Path_773-13" data-name="Path 773" d="M0-7.429l1.645-.441" transform="translate(32.384 34.603)" fill="none" stroke="#e5e0ff" stroke-linecap="round" stroke-linejoin="round" stroke-miterlimit="2.613" stroke-width="1.5"/>
        <path id="Path_774-13" data-name="Path 774" d="M0-7.429l1.645-.441" transform="translate(20.698 36.096)" fill="none" stroke="#e5e0ff" stroke-linecap="round" stroke-linejoin="round" stroke-miterlimit="2.613" stroke-width="1.5"/>
        <path id="Path_775-13" data-name="Path 775" d="M-27.723-7.429l-1.645-.441" transform="translate(34.067 32.868)" fill="none" stroke="#e5e0ff" stroke-linecap="round" stroke-linejoin="round" stroke-miterlimit="2.613" stroke-width="1.5"/>
        <path id="Path_776-13" data-name="Path 776" d="M-38.8-10.4l-2.3-.617" transform="translate(66.374 42.898)" fill="none" stroke="#e5e0ff" stroke-linecap="round" stroke-linejoin="round" stroke-miterlimit="2.613" stroke-width="1.5"/>
      </g>
    </g>
    <g id="svgexport-20_10_14" data-name="svgexport-20 (10)" transform="matrix(0.993, 0.122, -0.122, 0.993, 1762.759, 174.508)">
      <g id="Group_57-14" data-name="Group 57" transform="translate(0 0.002)" clip-path="url(#clip-path-10)">
        <path id="Path_765-14" data-name="Path 765" d="M-23.667-.79c1.195-.32,2.6,1.035,3.13,3.026s0,3.866-1.2,4.186-2.6-1.035-3.13-3.026S-24.862-.47-23.667-.79Z" transform="translate(25.818 31.013)" fill="none" stroke="#e5e0ff" stroke-linecap="round" stroke-linejoin="round" stroke-miterlimit="2.613" stroke-width="1.5"/>
        <path id="Path_766-14" data-name="Path 766" d="M-32.577-253l28.921-7.749c1.2-.32,1.731-2.194,1.2-4.186s-1.935-3.347-3.13-3.026l-28.921,7.749" transform="translate(36.66 290.435)" fill="none" stroke="#e5e0ff" stroke-linecap="round" stroke-linejoin="round" stroke-miterlimit="2.613" stroke-width="1.5"/>
        <path id="Path_767-14" data-name="Path 767" d="M-56.243-.79c-1.195-.32-2.6,1.035-3.13,3.026s0,3.866,1.2,4.186,2.6-1.035,3.13-3.026S-55.047-.47-56.243-.79Z" transform="translate(92.321 31.013)" fill="none" stroke="#e5e0ff" stroke-linecap="round" stroke-linejoin="round" stroke-miterlimit="2.613" stroke-width="1.5"/>
        <path id="Path_768-14" data-name="Path 768" d="M-499.236-119.49l2.642.708m-31.258-.719c-.9-.594-1.262-2.253-.793-4,.534-1.992,1.935-3.347,3.13-3.026l11.893,3.187m15.1,11.775-15.006-4.021" transform="translate(532.672 149.006)" fill="none" stroke="#e5e0ff" stroke-linecap="round" stroke-linejoin="round" stroke-miterlimit="2.613" stroke-width="1.5"/>
        <path id="Path_769-14" data-name="Path 769" d="M-23.243-375.636c-5.012-8.467,5.392-8.979,3.549-16.422a7,7,0,0,1,3.323,6.459c0-6.683,5.86-6.14,2.464-12.32,0,0,7.616,2.053,5.339,12.245a6.743,6.743,0,0,0,3.36-4.667s4.859,6.683,1.914,14.6" transform="translate(32.599 398.666)" fill="none" stroke="#e5e0ff" stroke-linecap="round" stroke-linejoin="round" stroke-miterlimit="2.613" stroke-width="1.5"/>
        <path id="Path_770-14" data-name="Path 770" d="M-162.3-144.777a12.909,12.909,0,0,1-.269,1.674m-9.078-.1a5.743,5.743,0,0,1,1.611-6.127,4.562,4.562,0,0,0,1.456,2.987s3.659-2.651,3.136-7.019a10.183,10.183,0,0,1,1.7,2.114" transform="translate(185.784 167.46)" fill="none" stroke="#e5e0ff" stroke-linecap="round" stroke-linejoin="round" stroke-miterlimit="2.613" stroke-width="1.5"/>
        <path id="Path_771-14" data-name="Path 771" d="M0,0H0" transform="translate(23.293 19.33)" fill="none" stroke="#e5e0ff" stroke-linecap="round" stroke-linejoin="round" stroke-miterlimit="2.613" stroke-width="1.5"/>
        <path id="Path_772-14" data-name="Path 772" d="M0-7.429l1.645-.441" transform="translate(9.35 39.46)" fill="none" stroke="#e5e0ff" stroke-linecap="round" stroke-linejoin="round" stroke-miterlimit="2.613" stroke-width="1.5"/>
        <path id="Path_773-14" data-name="Path 773" d="M0-7.429l1.645-.441" transform="translate(32.384 34.603)" fill="none" stroke="#e5e0ff" stroke-linecap="round" stroke-linejoin="round" stroke-miterlimit="2.613" stroke-width="1.5"/>
        <path id="Path_774-14" data-name="Path 774" d="M0-7.429l1.645-.441" transform="translate(20.698 36.096)" fill="none" stroke="#e5e0ff" stroke-linecap="round" stroke-linejoin="round" stroke-miterlimit="2.613" stroke-width="1.5"/>
        <path id="Path_775-14" data-name="Path 775" d="M-27.723-7.429l-1.645-.441" transform="translate(34.067 32.868)" fill="none" stroke="#e5e0ff" stroke-linecap="round" stroke-linejoin="round" stroke-miterlimit="2.613" stroke-width="1.5"/>
        <path id="Path_776-14" data-name="Path 776" d="M-38.8-10.4l-2.3-.617" transform="translate(66.374 42.898)" fill="none" stroke="#e5e0ff" stroke-linecap="round" stroke-linejoin="round" stroke-miterlimit="2.613" stroke-width="1.5"/>
      </g>
    </g>
    <g id="Group_58" data-name="Group 58">
      <g id="svgexport-20_11_" data-name="svgexport-20 (11)" transform="matrix(0.719, -0.695, 0.695, 0.719, 209.031, 569.316)">
        <path id="Path_778" data-name="Path 778" d="M41.245,84.82,28.813,60.439a.807.807,0,0,0-1.038-.375C23.961,61.7,21.1,61.7,15.991,60.038a.825.825,0,0,0-.977.418L3.321,84.811.106,90.437a.807.807,0,1,0,1.4.8l1.721-3.012v2.611a.807.807,0,0,0,.807.807h36.49a.807.807,0,0,0,.807-.807V85.187A1.562,1.562,0,0,0,41.245,84.82ZM9.042,82.2V90.03h-4.2V85.37L14.935,64.353V80.4l-5.238,1A.807.807,0,0,0,9.042,82.2Zm1.615.667,3.459-.663-3.459,5.733Zm.623,7.164,4.463-7.4,4.463,7.4H11.279Zm9.549-2.094-3.407-5.648,3.407.793ZM26.8,90.03H22.443V82.442a.807.807,0,0,0-.624-.786L16.55,80.429V64.309L26.8,85.373ZM19.517,66.717q.757.172,1.523.3a.807.807,0,0,0,.258-1.594c-.861-.14-1.642-.324-2.147-.455q-.282-.072-.561-.152l-1.314-2.7a15.163,15.163,0,0,0,10.435-.281l11.5,22.545H28.114l-8.6-17.662Zm8.9,23.313V87.555l1.91,2.476Zm11.3,0H32.366l-3.114-4.036H39.719V90.03Z" transform="translate(0 0)" fill="#e5e0ff"/>
        <circle id="Ellipse_46" data-name="Ellipse 46" cx="0.807" cy="0.807" r="0.807" transform="translate(23.58 65.585)" fill="#e5e0ff"/>
      </g>
      <g id="svgexport-20_11_2" data-name="svgexport-20 (11)" transform="translate(77.068 350.676) rotate(47)">
        <path id="Path_778-2" data-name="Path 778" d="M41.245,84.82,28.813,60.439a.807.807,0,0,0-1.038-.375C23.961,61.7,21.1,61.7,15.991,60.038a.825.825,0,0,0-.977.418L3.321,84.811.106,90.437a.807.807,0,1,0,1.4.8l1.721-3.012v2.611a.807.807,0,0,0,.807.807h36.49a.807.807,0,0,0,.807-.807V85.187A1.562,1.562,0,0,0,41.245,84.82ZM9.042,82.2V90.03h-4.2V85.37L14.935,64.353V80.4l-5.238,1A.807.807,0,0,0,9.042,82.2Zm1.615.667,3.459-.663-3.459,5.733Zm.623,7.164,4.463-7.4,4.463,7.4H11.279Zm9.549-2.094-3.407-5.648,3.407.793ZM26.8,90.03H22.443V82.442a.807.807,0,0,0-.624-.786L16.55,80.429V64.309L26.8,85.373ZM19.517,66.717q.757.172,1.523.3a.807.807,0,0,0,.258-1.594c-.861-.14-1.642-.324-2.147-.455q-.282-.072-.561-.152l-1.314-2.7a15.163,15.163,0,0,0,10.435-.281l11.5,22.545H28.114l-8.6-17.662Zm8.9,23.313V87.555l1.91,2.476Zm11.3,0H32.366l-3.114-4.036H39.719V90.03Z" transform="translate(0 0)" fill="#e5e0ff"/>
        <path id="Path_782" data-name="Path 782" d="M41.245,84.82,28.813,60.439a.807.807,0,0,0-1.038-.375C23.961,61.7,21.1,61.7,15.991,60.038a.825.825,0,0,0-.977.418L3.321,84.811.106,90.437a.807.807,0,1,0,1.4.8l1.721-3.012v2.611a.807.807,0,0,0,.807.807h36.49a.807.807,0,0,0,.807-.807V85.187A1.562,1.562,0,0,0,41.245,84.82ZM9.042,82.2V90.03h-4.2V85.37L14.935,64.353V80.4l-5.238,1A.807.807,0,0,0,9.042,82.2Zm1.615.667,3.459-.663-3.459,5.733Zm.623,7.164,4.463-7.4,4.463,7.4H11.279Zm9.549-2.094-3.407-5.648,3.407.793ZM26.8,90.03H22.443V82.442a.807.807,0,0,0-.624-.786L16.55,80.429V64.309L26.8,85.373ZM19.517,66.717q.757.172,1.523.3a.807.807,0,0,0,.258-1.594c-.861-.14-1.642-.324-2.147-.455q-.282-.072-.561-.152l-1.314-2.7a15.163,15.163,0,0,0,10.435-.281l11.5,22.545H28.114l-8.6-17.662Zm8.9,23.313V87.555l1.91,2.476Zm11.3,0H32.366l-3.114-4.036H39.719V90.03Z" transform="translate(107.891 90.571) rotate(-49)" fill="#e5e0ff"/>
        <circle id="Ellipse_46-2" data-name="Ellipse 46" cx="0.807" cy="0.807" r="0.807" transform="translate(23.58 65.585)" fill="#e5e0ff"/>
      </g>
      <g id="svgexport-20_11_3" data-name="svgexport-20 (11)" transform="translate(40.901 708.679)">
        <path id="Path_778-3" data-name="Path 778" d="M41.245,84.82,28.813,60.439a.807.807,0,0,0-1.038-.375C23.961,61.7,21.1,61.7,15.991,60.038a.825.825,0,0,0-.977.418L3.321,84.811.106,90.437a.807.807,0,1,0,1.4.8l1.721-3.012v2.611a.807.807,0,0,0,.807.807h36.49a.807.807,0,0,0,.807-.807V85.187A1.562,1.562,0,0,0,41.245,84.82ZM9.042,82.2V90.03h-4.2V85.37L14.935,64.353V80.4l-5.238,1A.807.807,0,0,0,9.042,82.2Zm1.615.667,3.459-.663-3.459,5.733Zm.623,7.164,4.463-7.4,4.463,7.4H11.279Zm9.549-2.094-3.407-5.648,3.407.793ZM26.8,90.03H22.443V82.442a.807.807,0,0,0-.624-.786L16.55,80.429V64.309L26.8,85.373ZM19.517,66.717q.757.172,1.523.3a.807.807,0,0,0,.258-1.594c-.861-.14-1.642-.324-2.147-.455q-.282-.072-.561-.152l-1.314-2.7a15.163,15.163,0,0,0,10.435-.281l11.5,22.545H28.114l-8.6-17.662Zm8.9,23.313V87.555l1.91,2.476Zm11.3,0H32.366l-3.114-4.036H39.719V90.03Z" transform="translate(0 0)" fill="#e5e0ff"/>
        <circle id="Ellipse_46-3" data-name="Ellipse 46" cx="0.807" cy="0.807" r="0.807" transform="translate(23.58 65.585)" fill="#e5e0ff"/>
      </g>
      <g id="svgexport-20_11_4" data-name="svgexport-20 (11)" transform="translate(235.235 944.679)">
        <path id="Path_778-4" data-name="Path 778" d="M41.245,84.82,28.813,60.439a.807.807,0,0,0-1.038-.375C23.961,61.7,21.1,61.7,15.991,60.038a.825.825,0,0,0-.977.418L3.321,84.811.106,90.437a.807.807,0,1,0,1.4.8l1.721-3.012v2.611a.807.807,0,0,0,.807.807h36.49a.807.807,0,0,0,.807-.807V85.187A1.562,1.562,0,0,0,41.245,84.82ZM9.042,82.2V90.03h-4.2V85.37L14.935,64.353V80.4l-5.238,1A.807.807,0,0,0,9.042,82.2Zm1.615.667,3.459-.663-3.459,5.733Zm.623,7.164,4.463-7.4,4.463,7.4H11.279Zm9.549-2.094-3.407-5.648,3.407.793ZM26.8,90.03H22.443V82.442a.807.807,0,0,0-.624-.786L16.55,80.429V64.309L26.8,85.373ZM19.517,66.717q.757.172,1.523.3a.807.807,0,0,0,.258-1.594c-.861-.14-1.642-.324-2.147-.455q-.282-.072-.561-.152l-1.314-2.7a15.163,15.163,0,0,0,10.435-.281l11.5,22.545H28.114l-8.6-17.662Zm8.9,23.313V87.555l1.91,2.476Zm11.3,0H32.366l-3.114-4.036H39.719V90.03Z" transform="translate(0 0)" fill="#e5e0ff"/>
        <circle id="Ellipse_46-4" data-name="Ellipse 46" cx="0.807" cy="0.807" r="0.807" transform="translate(23.58 65.585)" fill="#e5e0ff"/>
      </g>
      <g id="svgexport-20_11_5" data-name="svgexport-20 (11)" transform="matrix(0.875, 0.485, -0.485, 0.875, 59.584, 62.248)">
        <path id="Path_778-5" data-name="Path 778" d="M41.245,84.82,28.813,60.439a.807.807,0,0,0-1.038-.375C23.961,61.7,21.1,61.7,15.991,60.038a.825.825,0,0,0-.977.418L3.321,84.811.106,90.437a.807.807,0,1,0,1.4.8l1.721-3.012v2.611a.807.807,0,0,0,.807.807h36.49a.807.807,0,0,0,.807-.807V85.187A1.562,1.562,0,0,0,41.245,84.82ZM9.042,82.2V90.03h-4.2V85.37L14.935,64.353V80.4l-5.238,1A.807.807,0,0,0,9.042,82.2Zm1.615.667,3.459-.663-3.459,5.733Zm.623,7.164,4.463-7.4,4.463,7.4H11.279Zm9.549-2.094-3.407-5.648,3.407.793ZM26.8,90.03H22.443V82.442a.807.807,0,0,0-.624-.786L16.55,80.429V64.309L26.8,85.373ZM19.517,66.717q.757.172,1.523.3a.807.807,0,0,0,.258-1.594c-.861-.14-1.642-.324-2.147-.455q-.282-.072-.561-.152l-1.314-2.7a15.163,15.163,0,0,0,10.435-.281l11.5,22.545H28.114l-8.6-17.662Zm8.9,23.313V87.555l1.91,2.476Zm11.3,0H32.366l-3.114-4.036H39.719V90.03Z" transform="translate(0 0)" fill="#e5e0ff"/>
        <circle id="Ellipse_46-5" data-name="Ellipse 46" cx="0.807" cy="0.807" r="0.807" transform="translate(23.58 65.585)" fill="#e5e0ff"/>
      </g>
      <g id="svgexport-20_11_6" data-name="svgexport-20 (11)" transform="matrix(0.875, 0.485, -0.485, 0.875, 1193.584, -44.193)">
        <path id="Path_778-6" data-name="Path 778" d="M41.245,84.82,28.813,60.439a.807.807,0,0,0-1.038-.375C23.961,61.7,21.1,61.7,15.991,60.038a.825.825,0,0,0-.977.418L3.321,84.811.106,90.437a.807.807,0,1,0,1.4.8l1.721-3.012v2.611a.807.807,0,0,0,.807.807h36.49a.807.807,0,0,0,.807-.807V85.187A1.562,1.562,0,0,0,41.245,84.82ZM9.042,82.2V90.03h-4.2V85.37L14.935,64.353V80.4l-5.238,1A.807.807,0,0,0,9.042,82.2Zm1.615.667,3.459-.663-3.459,5.733Zm.623,7.164,4.463-7.4,4.463,7.4H11.279Zm9.549-2.094-3.407-5.648,3.407.793ZM26.8,90.03H22.443V82.442a.807.807,0,0,0-.624-.786L16.55,80.429V64.309L26.8,85.373ZM19.517,66.717q.757.172,1.523.3a.807.807,0,0,0,.258-1.594c-.861-.14-1.642-.324-2.147-.455q-.282-.072-.561-.152l-1.314-2.7a15.163,15.163,0,0,0,10.435-.281l11.5,22.545H28.114l-8.6-17.662Zm8.9,23.313V87.555l1.91,2.476Zm11.3,0H32.366l-3.114-4.036H39.719V90.03Z" transform="translate(0 0)" fill="#e5e0ff"/>
        <path id="Path_780" data-name="Path 780" d="M41.245,84.82,28.813,60.439a.807.807,0,0,0-1.038-.375C23.961,61.7,21.1,61.7,15.991,60.038a.825.825,0,0,0-.977.418L3.321,84.811.106,90.437a.807.807,0,1,0,1.4.8l1.721-3.012v2.611a.807.807,0,0,0,.807.807h36.49a.807.807,0,0,0,.807-.807V85.187A1.562,1.562,0,0,0,41.245,84.82ZM9.042,82.2V90.03h-4.2V85.37L14.935,64.353V80.4l-5.238,1A.807.807,0,0,0,9.042,82.2Zm1.615.667,3.459-.663-3.459,5.733Zm.623,7.164,4.463-7.4,4.463,7.4H11.279Zm9.549-2.094-3.407-5.648,3.407.793ZM26.8,90.03H22.443V82.442a.807.807,0,0,0-.624-.786L16.55,80.429V64.309L26.8,85.373ZM19.517,66.717q.757.172,1.523.3a.807.807,0,0,0,.258-1.594c-.861-.14-1.642-.324-2.147-.455q-.282-.072-.561-.152l-1.314-2.7a15.163,15.163,0,0,0,10.435-.281l11.5,22.545H28.114l-8.6-17.662Zm8.9,23.313V87.555l1.91,2.476Zm11.3,0H32.366l-3.114-4.036H39.719V90.03Z" transform="translate(13.896 95.199)" fill="#e5e0ff"/>
        <circle id="Ellipse_46-6" data-name="Ellipse 46" cx="0.807" cy="0.807" r="0.807" transform="translate(23.58 65.585)" fill="#e5e0ff"/>
      </g>
      <g id="svgexport-20_11_7" data-name="svgexport-20 (11)" transform="matrix(0.978, -0.208, 0.208, 0.978, 372.922, -37.727)">
        <path id="Path_778-7" data-name="Path 778" d="M41.245,84.82,28.813,60.439a.807.807,0,0,0-1.038-.375C23.961,61.7,21.1,61.7,15.991,60.038a.825.825,0,0,0-.977.418L3.321,84.811.106,90.437a.807.807,0,1,0,1.4.8l1.721-3.012v2.611a.807.807,0,0,0,.807.807h36.49a.807.807,0,0,0,.807-.807V85.187A1.562,1.562,0,0,0,41.245,84.82ZM9.042,82.2V90.03h-4.2V85.37L14.935,64.353V80.4l-5.238,1A.807.807,0,0,0,9.042,82.2Zm1.615.667,3.459-.663-3.459,5.733Zm.623,7.164,4.463-7.4,4.463,7.4H11.279Zm9.549-2.094-3.407-5.648,3.407.793ZM26.8,90.03H22.443V82.442a.807.807,0,0,0-.624-.786L16.55,80.429V64.309L26.8,85.373ZM19.517,66.717q.757.172,1.523.3a.807.807,0,0,0,.258-1.594c-.861-.14-1.642-.324-2.147-.455q-.282-.072-.561-.152l-1.314-2.7a15.163,15.163,0,0,0,10.435-.281l11.5,22.545H28.114l-8.6-17.662Zm8.9,23.313V87.555l1.91,2.476Zm11.3,0H32.366l-3.114-4.036H39.719V90.03Z" transform="translate(0 0)" fill="#e5e0ff"/>
        <circle id="Ellipse_46-7" data-name="Ellipse 46" cx="0.807" cy="0.807" r="0.807" transform="translate(23.58 65.585)" fill="#e5e0ff"/>
      </g>
    </g>
    <g id="Group_59" data-name="Group 59">
      <g id="svgexport-20_12_" data-name="svgexport-20 (12)" transform="translate(120.875 896.818)">
        <path id="Path_779" data-name="Path 779" d="M42.406,31.2l-4.1-1.837v-8.4a3.442,3.442,0,0,0-2.761-3.369v-1.01h3.5a2.166,2.166,0,0,0,2.163-2.163V10.866A2.166,2.166,0,0,0,39.045,8.7H13.006a2.165,2.165,0,0,0-2.163,2.163v3.555a2.165,2.165,0,0,0,2.163,2.163h3.5v1.01a3.442,3.442,0,0,0-2.761,3.369v8.4L9.645,31.2A2.617,2.617,0,0,0,8.1,33.584v5.273a2.617,2.617,0,0,0,2.614,2.613h3.1a3.441,3.441,0,0,0,3.372,2.782H34.869a3.441,3.441,0,0,0,3.372-2.782h3.1a2.616,2.616,0,0,0,2.613-2.613V33.584A2.617,2.617,0,0,0,42.406,31.2Zm-.714,1.593a.869.869,0,0,1,.513.792v.71h-3.9v-3.02Zm-2.23-21.926v3.555a.418.418,0,0,1-.418.418H32.838v-4.39h6.207a.418.418,0,0,1,.418.418Zm-18.5,3.973V10.448H31.092v4.391Zm-8.37-.418V10.866a.418.418,0,0,1,.418-.418h6.207v4.391H13.006a.418.418,0,0,1-.418-.418ZM33.8,16.584v8.092a.906.906,0,0,1-.905.905h-.959V21.938a.623.623,0,0,0-.623-.623H28.34a.623.623,0,0,0-.623.623v3.644H24.334V21.938a.623.623,0,0,0-.623-.623H20.739a.623.623,0,0,0-.623.623v3.644h-.959a.906.906,0,0,1-.905-.905V16.584ZM24.334,27.327h3.383v1.416h-.209a.623.623,0,1,0,0,1.247h.209v1.029H24.334V29.99h.209a.623.623,0,1,0,0-1.247h-.209Zm-1.247,1.416H21.362V22.561h1.725Zm0,1.247V32.67a.862.862,0,1,1-1.725,0V29.989Zm-.863,4.79a2.111,2.111,0,0,0,2.109-2.109v-.4h3.383v.4a2.109,2.109,0,0,0,4.218,0v-.4h2.114v3.874A3.067,3.067,0,0,1,30.986,39.2H21.065A3.067,3.067,0,0,1,18,36.139V32.265h2.114v.4a2.111,2.111,0,0,0,2.109,2.109Zm8.464-2.109a.862.862,0,0,1-1.725,0V29.989h1.725Zm-1.725-3.927V22.561h1.725v6.182ZM10.358,32.792l3.387-1.518v3.02h-3.9v-.71a.869.869,0,0,1,.513-.792Zm-.513,6.065V35.541h3.9v4.185H10.713a.87.87,0,0,1-.868-.868ZM36.56,40.816a1.693,1.693,0,0,1-1.691,1.691H17.182a1.693,1.693,0,0,1-1.691-1.691V20.963a1.694,1.694,0,0,1,1.016-1.55v5.263a2.654,2.654,0,0,0,2.651,2.651h.959v1.416h-.209a.623.623,0,1,0,0,1.247h.209v1.029H17.379a.623.623,0,0,0-.623.623v4.5a4.314,4.314,0,0,0,4.31,4.31h9.921a4.315,4.315,0,0,0,4.31-4.31v-4.5a.623.623,0,0,0-.623-.623H31.935V29.99h.209a.623.623,0,0,0,0-1.247h-.209V27.327h.959a2.654,2.654,0,0,0,2.651-2.651V19.413a1.693,1.693,0,0,1,1.016,1.55V40.816Zm4.777-1.091H38.305V35.541h3.9v3.317a.87.87,0,0,1-.868.868Z" fill="#e5e0ff"/>
      </g>
      <g id="svgexport-20_12_2" data-name="svgexport-20 (12)" transform="matrix(0.891, 0.454, -0.454, 0.891, 183.944, 675.889)">
        <path id="Path_779-2" data-name="Path 779" d="M42.406,31.2l-4.1-1.837v-8.4a3.442,3.442,0,0,0-2.761-3.369v-1.01h3.5a2.166,2.166,0,0,0,2.163-2.163V10.866A2.166,2.166,0,0,0,39.045,8.7H13.006a2.165,2.165,0,0,0-2.163,2.163v3.555a2.165,2.165,0,0,0,2.163,2.163h3.5v1.01a3.442,3.442,0,0,0-2.761,3.369v8.4L9.645,31.2A2.617,2.617,0,0,0,8.1,33.584v5.273a2.617,2.617,0,0,0,2.614,2.613h3.1a3.441,3.441,0,0,0,3.372,2.782H34.869a3.441,3.441,0,0,0,3.372-2.782h3.1a2.616,2.616,0,0,0,2.613-2.613V33.584A2.617,2.617,0,0,0,42.406,31.2Zm-.714,1.593a.869.869,0,0,1,.513.792v.71h-3.9v-3.02Zm-2.23-21.926v3.555a.418.418,0,0,1-.418.418H32.838v-4.39h6.207a.418.418,0,0,1,.418.418Zm-18.5,3.973V10.448H31.092v4.391Zm-8.37-.418V10.866a.418.418,0,0,1,.418-.418h6.207v4.391H13.006a.418.418,0,0,1-.418-.418ZM33.8,16.584v8.092a.906.906,0,0,1-.905.905h-.959V21.938a.623.623,0,0,0-.623-.623H28.34a.623.623,0,0,0-.623.623v3.644H24.334V21.938a.623.623,0,0,0-.623-.623H20.739a.623.623,0,0,0-.623.623v3.644h-.959a.906.906,0,0,1-.905-.905V16.584ZM24.334,27.327h3.383v1.416h-.209a.623.623,0,1,0,0,1.247h.209v1.029H24.334V29.99h.209a.623.623,0,1,0,0-1.247h-.209Zm-1.247,1.416H21.362V22.561h1.725Zm0,1.247V32.67a.862.862,0,1,1-1.725,0V29.989Zm-.863,4.79a2.111,2.111,0,0,0,2.109-2.109v-.4h3.383v.4a2.109,2.109,0,0,0,4.218,0v-.4h2.114v3.874A3.067,3.067,0,0,1,30.986,39.2H21.065A3.067,3.067,0,0,1,18,36.139V32.265h2.114v.4a2.111,2.111,0,0,0,2.109,2.109Zm8.464-2.109a.862.862,0,0,1-1.725,0V29.989h1.725Zm-1.725-3.927V22.561h1.725v6.182ZM10.358,32.792l3.387-1.518v3.02h-3.9v-.71a.869.869,0,0,1,.513-.792Zm-.513,6.065V35.541h3.9v4.185H10.713a.87.87,0,0,1-.868-.868ZM36.56,40.816a1.693,1.693,0,0,1-1.691,1.691H17.182a1.693,1.693,0,0,1-1.691-1.691V20.963a1.694,1.694,0,0,1,1.016-1.55v5.263a2.654,2.654,0,0,0,2.651,2.651h.959v1.416h-.209a.623.623,0,1,0,0,1.247h.209v1.029H17.379a.623.623,0,0,0-.623.623v4.5a4.314,4.314,0,0,0,4.31,4.31h9.921a4.315,4.315,0,0,0,4.31-4.31v-4.5a.623.623,0,0,0-.623-.623H31.935V29.99h.209a.623.623,0,0,0,0-1.247h-.209V27.327h.959a2.654,2.654,0,0,0,2.651-2.651V19.413a1.693,1.693,0,0,1,1.016,1.55V40.816Zm4.777-1.091H38.305V35.541h3.9v3.317a.87.87,0,0,1-.868.868Z" fill="#e5e0ff"/>
      </g>
      <g id="svgexport-20_12_3" data-name="svgexport-20 (12)" transform="translate(258.847 398.734) rotate(-19)">
        <path id="Path_779-3" data-name="Path 779" d="M42.406,31.2l-4.1-1.837v-8.4a3.442,3.442,0,0,0-2.761-3.369v-1.01h3.5a2.166,2.166,0,0,0,2.163-2.163V10.866A2.166,2.166,0,0,0,39.045,8.7H13.006a2.165,2.165,0,0,0-2.163,2.163v3.555a2.165,2.165,0,0,0,2.163,2.163h3.5v1.01a3.442,3.442,0,0,0-2.761,3.369v8.4L9.645,31.2A2.617,2.617,0,0,0,8.1,33.584v5.273a2.617,2.617,0,0,0,2.614,2.613h3.1a3.441,3.441,0,0,0,3.372,2.782H34.869a3.441,3.441,0,0,0,3.372-2.782h3.1a2.616,2.616,0,0,0,2.613-2.613V33.584A2.617,2.617,0,0,0,42.406,31.2Zm-.714,1.593a.869.869,0,0,1,.513.792v.71h-3.9v-3.02Zm-2.23-21.926v3.555a.418.418,0,0,1-.418.418H32.838v-4.39h6.207a.418.418,0,0,1,.418.418Zm-18.5,3.973V10.448H31.092v4.391Zm-8.37-.418V10.866a.418.418,0,0,1,.418-.418h6.207v4.391H13.006a.418.418,0,0,1-.418-.418ZM33.8,16.584v8.092a.906.906,0,0,1-.905.905h-.959V21.938a.623.623,0,0,0-.623-.623H28.34a.623.623,0,0,0-.623.623v3.644H24.334V21.938a.623.623,0,0,0-.623-.623H20.739a.623.623,0,0,0-.623.623v3.644h-.959a.906.906,0,0,1-.905-.905V16.584ZM24.334,27.327h3.383v1.416h-.209a.623.623,0,1,0,0,1.247h.209v1.029H24.334V29.99h.209a.623.623,0,1,0,0-1.247h-.209Zm-1.247,1.416H21.362V22.561h1.725Zm0,1.247V32.67a.862.862,0,1,1-1.725,0V29.989Zm-.863,4.79a2.111,2.111,0,0,0,2.109-2.109v-.4h3.383v.4a2.109,2.109,0,0,0,4.218,0v-.4h2.114v3.874A3.067,3.067,0,0,1,30.986,39.2H21.065A3.067,3.067,0,0,1,18,36.139V32.265h2.114v.4a2.111,2.111,0,0,0,2.109,2.109Zm8.464-2.109a.862.862,0,0,1-1.725,0V29.989h1.725Zm-1.725-3.927V22.561h1.725v6.182ZM10.358,32.792l3.387-1.518v3.02h-3.9v-.71a.869.869,0,0,1,.513-.792Zm-.513,6.065V35.541h3.9v4.185H10.713a.87.87,0,0,1-.868-.868ZM36.56,40.816a1.693,1.693,0,0,1-1.691,1.691H17.182a1.693,1.693,0,0,1-1.691-1.691V20.963a1.694,1.694,0,0,1,1.016-1.55v5.263a2.654,2.654,0,0,0,2.651,2.651h.959v1.416h-.209a.623.623,0,1,0,0,1.247h.209v1.029H17.379a.623.623,0,0,0-.623.623v4.5a4.314,4.314,0,0,0,4.31,4.31h9.921a4.315,4.315,0,0,0,4.31-4.31v-4.5a.623.623,0,0,0-.623-.623H31.935V29.99h.209a.623.623,0,0,0,0-1.247h-.209V27.327h.959a2.654,2.654,0,0,0,2.651-2.651V19.413a1.693,1.693,0,0,1,1.016,1.55V40.816Zm4.777-1.091H38.305V35.541h3.9v3.317a.87.87,0,0,1-.868.868Z" fill="#e5e0ff"/>
        <path id="Path_783" data-name="Path 783" d="M42.406,31.2l-4.1-1.837v-8.4a3.442,3.442,0,0,0-2.761-3.369v-1.01h3.5a2.166,2.166,0,0,0,2.163-2.163V10.866A2.166,2.166,0,0,0,39.045,8.7H13.006a2.165,2.165,0,0,0-2.163,2.163v3.555a2.165,2.165,0,0,0,2.163,2.163h3.5v1.01a3.442,3.442,0,0,0-2.761,3.369v8.4L9.645,31.2A2.617,2.617,0,0,0,8.1,33.584v5.273a2.617,2.617,0,0,0,2.614,2.613h3.1a3.441,3.441,0,0,0,3.372,2.782H34.869a3.441,3.441,0,0,0,3.372-2.782h3.1a2.616,2.616,0,0,0,2.613-2.613V33.584A2.617,2.617,0,0,0,42.406,31.2Zm-.714,1.593a.869.869,0,0,1,.513.792v.71h-3.9v-3.02Zm-2.23-21.926v3.555a.418.418,0,0,1-.418.418H32.838v-4.39h6.207a.418.418,0,0,1,.418.418Zm-18.5,3.973V10.448H31.092v4.391Zm-8.37-.418V10.866a.418.418,0,0,1,.418-.418h6.207v4.391H13.006a.418.418,0,0,1-.418-.418ZM33.8,16.584v8.092a.906.906,0,0,1-.905.905h-.959V21.938a.623.623,0,0,0-.623-.623H28.34a.623.623,0,0,0-.623.623v3.644H24.334V21.938a.623.623,0,0,0-.623-.623H20.739a.623.623,0,0,0-.623.623v3.644h-.959a.906.906,0,0,1-.905-.905V16.584ZM24.334,27.327h3.383v1.416h-.209a.623.623,0,1,0,0,1.247h.209v1.029H24.334V29.99h.209a.623.623,0,1,0,0-1.247h-.209Zm-1.247,1.416H21.362V22.561h1.725Zm0,1.247V32.67a.862.862,0,1,1-1.725,0V29.989Zm-.863,4.79a2.111,2.111,0,0,0,2.109-2.109v-.4h3.383v.4a2.109,2.109,0,0,0,4.218,0v-.4h2.114v3.874A3.067,3.067,0,0,1,30.986,39.2H21.065A3.067,3.067,0,0,1,18,36.139V32.265h2.114v.4a2.111,2.111,0,0,0,2.109,2.109Zm8.464-2.109a.862.862,0,0,1-1.725,0V29.989h1.725Zm-1.725-3.927V22.561h1.725v6.182ZM10.358,32.792l3.387-1.518v3.02h-3.9v-.71a.869.869,0,0,1,.513-.792Zm-.513,6.065V35.541h3.9v4.185H10.713a.87.87,0,0,1-.868-.868ZM36.56,40.816a1.693,1.693,0,0,1-1.691,1.691H17.182a1.693,1.693,0,0,1-1.691-1.691V20.963a1.694,1.694,0,0,1,1.016-1.55v5.263a2.654,2.654,0,0,0,2.651,2.651h.959v1.416h-.209a.623.623,0,1,0,0,1.247h.209v1.029H17.379a.623.623,0,0,0-.623.623v4.5a4.314,4.314,0,0,0,4.31,4.31h9.921a4.315,4.315,0,0,0,4.31-4.31v-4.5a.623.623,0,0,0-.623-.623H31.935V29.99h.209a.623.623,0,0,0,0-1.247h-.209V27.327h.959a2.654,2.654,0,0,0,2.651-2.651V19.413a1.693,1.693,0,0,1,1.016,1.55V40.816Zm4.777-1.091H38.305V35.541h3.9v3.317a.87.87,0,0,1-.868.868Z" transform="matrix(0.407, 0.914, -0.914, 0.407, 94.632, -134.022)" fill="#e5e0ff"/>
      </g>
      <g id="svgexport-20_12_4" data-name="svgexport-20 (12)" transform="translate(131.598 152.796) rotate(-19)">
        <path id="Path_779-4" data-name="Path 779" d="M42.406,31.2l-4.1-1.837v-8.4a3.442,3.442,0,0,0-2.761-3.369v-1.01h3.5a2.166,2.166,0,0,0,2.163-2.163V10.866A2.166,2.166,0,0,0,39.045,8.7H13.006a2.165,2.165,0,0,0-2.163,2.163v3.555a2.165,2.165,0,0,0,2.163,2.163h3.5v1.01a3.442,3.442,0,0,0-2.761,3.369v8.4L9.645,31.2A2.617,2.617,0,0,0,8.1,33.584v5.273a2.617,2.617,0,0,0,2.614,2.613h3.1a3.441,3.441,0,0,0,3.372,2.782H34.869a3.441,3.441,0,0,0,3.372-2.782h3.1a2.616,2.616,0,0,0,2.613-2.613V33.584A2.617,2.617,0,0,0,42.406,31.2Zm-.714,1.593a.869.869,0,0,1,.513.792v.71h-3.9v-3.02Zm-2.23-21.926v3.555a.418.418,0,0,1-.418.418H32.838v-4.39h6.207a.418.418,0,0,1,.418.418Zm-18.5,3.973V10.448H31.092v4.391Zm-8.37-.418V10.866a.418.418,0,0,1,.418-.418h6.207v4.391H13.006a.418.418,0,0,1-.418-.418ZM33.8,16.584v8.092a.906.906,0,0,1-.905.905h-.959V21.938a.623.623,0,0,0-.623-.623H28.34a.623.623,0,0,0-.623.623v3.644H24.334V21.938a.623.623,0,0,0-.623-.623H20.739a.623.623,0,0,0-.623.623v3.644h-.959a.906.906,0,0,1-.905-.905V16.584ZM24.334,27.327h3.383v1.416h-.209a.623.623,0,1,0,0,1.247h.209v1.029H24.334V29.99h.209a.623.623,0,1,0,0-1.247h-.209Zm-1.247,1.416H21.362V22.561h1.725Zm0,1.247V32.67a.862.862,0,1,1-1.725,0V29.989Zm-.863,4.79a2.111,2.111,0,0,0,2.109-2.109v-.4h3.383v.4a2.109,2.109,0,0,0,4.218,0v-.4h2.114v3.874A3.067,3.067,0,0,1,30.986,39.2H21.065A3.067,3.067,0,0,1,18,36.139V32.265h2.114v.4a2.111,2.111,0,0,0,2.109,2.109Zm8.464-2.109a.862.862,0,0,1-1.725,0V29.989h1.725Zm-1.725-3.927V22.561h1.725v6.182ZM10.358,32.792l3.387-1.518v3.02h-3.9v-.71a.869.869,0,0,1,.513-.792Zm-.513,6.065V35.541h3.9v4.185H10.713a.87.87,0,0,1-.868-.868ZM36.56,40.816a1.693,1.693,0,0,1-1.691,1.691H17.182a1.693,1.693,0,0,1-1.691-1.691V20.963a1.694,1.694,0,0,1,1.016-1.55v5.263a2.654,2.654,0,0,0,2.651,2.651h.959v1.416h-.209a.623.623,0,1,0,0,1.247h.209v1.029H17.379a.623.623,0,0,0-.623.623v4.5a4.314,4.314,0,0,0,4.31,4.31h9.921a4.315,4.315,0,0,0,4.31-4.31v-4.5a.623.623,0,0,0-.623-.623H31.935V29.99h.209a.623.623,0,0,0,0-1.247h-.209V27.327h.959a2.654,2.654,0,0,0,2.651-2.651V19.413a1.693,1.693,0,0,1,1.016,1.55V40.816Zm4.777-1.091H38.305V35.541h3.9v3.317a.87.87,0,0,1-.868.868Z" fill="#e5e0ff"/>
        <path id="Path_784" data-name="Path 784" d="M42.406,31.2l-4.1-1.837v-8.4a3.442,3.442,0,0,0-2.761-3.369v-1.01h3.5a2.166,2.166,0,0,0,2.163-2.163V10.866A2.166,2.166,0,0,0,39.045,8.7H13.006a2.165,2.165,0,0,0-2.163,2.163v3.555a2.165,2.165,0,0,0,2.163,2.163h3.5v1.01a3.442,3.442,0,0,0-2.761,3.369v8.4L9.645,31.2A2.617,2.617,0,0,0,8.1,33.584v5.273a2.617,2.617,0,0,0,2.614,2.613h3.1a3.441,3.441,0,0,0,3.372,2.782H34.869a3.441,3.441,0,0,0,3.372-2.782h3.1a2.616,2.616,0,0,0,2.613-2.613V33.584A2.617,2.617,0,0,0,42.406,31.2Zm-.714,1.593a.869.869,0,0,1,.513.792v.71h-3.9v-3.02Zm-2.23-21.926v3.555a.418.418,0,0,1-.418.418H32.838v-4.39h6.207a.418.418,0,0,1,.418.418Zm-18.5,3.973V10.448H31.092v4.391Zm-8.37-.418V10.866a.418.418,0,0,1,.418-.418h6.207v4.391H13.006a.418.418,0,0,1-.418-.418ZM33.8,16.584v8.092a.906.906,0,0,1-.905.905h-.959V21.938a.623.623,0,0,0-.623-.623H28.34a.623.623,0,0,0-.623.623v3.644H24.334V21.938a.623.623,0,0,0-.623-.623H20.739a.623.623,0,0,0-.623.623v3.644h-.959a.906.906,0,0,1-.905-.905V16.584ZM24.334,27.327h3.383v1.416h-.209a.623.623,0,1,0,0,1.247h.209v1.029H24.334V29.99h.209a.623.623,0,1,0,0-1.247h-.209Zm-1.247,1.416H21.362V22.561h1.725Zm0,1.247V32.67a.862.862,0,1,1-1.725,0V29.989Zm-.863,4.79a2.111,2.111,0,0,0,2.109-2.109v-.4h3.383v.4a2.109,2.109,0,0,0,4.218,0v-.4h2.114v3.874A3.067,3.067,0,0,1,30.986,39.2H21.065A3.067,3.067,0,0,1,18,36.139V32.265h2.114v.4a2.111,2.111,0,0,0,2.109,2.109Zm8.464-2.109a.862.862,0,0,1-1.725,0V29.989h1.725Zm-1.725-3.927V22.561h1.725v6.182ZM10.358,32.792l3.387-1.518v3.02h-3.9v-.71a.869.869,0,0,1,.513-.792Zm-.513,6.065V35.541h3.9v4.185H10.713a.87.87,0,0,1-.868-.868ZM36.56,40.816a1.693,1.693,0,0,1-1.691,1.691H17.182a1.693,1.693,0,0,1-1.691-1.691V20.963a1.694,1.694,0,0,1,1.016-1.55v5.263a2.654,2.654,0,0,0,2.651,2.651h.959v1.416h-.209a.623.623,0,1,0,0,1.247h.209v1.029H17.379a.623.623,0,0,0-.623.623v4.5a4.314,4.314,0,0,0,4.31,4.31h9.921a4.315,4.315,0,0,0,4.31-4.31v-4.5a.623.623,0,0,0-.623-.623H31.935V29.99h.209a.623.623,0,0,0,0-1.247h-.209V27.327h.959a2.654,2.654,0,0,0,2.651-2.651V19.413a1.693,1.693,0,0,1,1.016,1.55V40.816Zm4.777-1.091H38.305V35.541h3.9v3.317a.87.87,0,0,1-.868.868Z" transform="translate(-1.057 -142.654) rotate(50)" fill="#e5e0ff"/>
      </g>
      <g id="svgexport-20_12_5" data-name="svgexport-20 (12)" transform="translate(879.598 46.294) rotate(-19)">
        <path id="Path_779-5" data-name="Path 779" d="M42.406,31.2l-4.1-1.837v-8.4a3.442,3.442,0,0,0-2.761-3.369v-1.01h3.5a2.166,2.166,0,0,0,2.163-2.163V10.866A2.166,2.166,0,0,0,39.045,8.7H13.006a2.165,2.165,0,0,0-2.163,2.163v3.555a2.165,2.165,0,0,0,2.163,2.163h3.5v1.01a3.442,3.442,0,0,0-2.761,3.369v8.4L9.645,31.2A2.617,2.617,0,0,0,8.1,33.584v5.273a2.617,2.617,0,0,0,2.614,2.613h3.1a3.441,3.441,0,0,0,3.372,2.782H34.869a3.441,3.441,0,0,0,3.372-2.782h3.1a2.616,2.616,0,0,0,2.613-2.613V33.584A2.617,2.617,0,0,0,42.406,31.2Zm-.714,1.593a.869.869,0,0,1,.513.792v.71h-3.9v-3.02Zm-2.23-21.926v3.555a.418.418,0,0,1-.418.418H32.838v-4.39h6.207a.418.418,0,0,1,.418.418Zm-18.5,3.973V10.448H31.092v4.391Zm-8.37-.418V10.866a.418.418,0,0,1,.418-.418h6.207v4.391H13.006a.418.418,0,0,1-.418-.418ZM33.8,16.584v8.092a.906.906,0,0,1-.905.905h-.959V21.938a.623.623,0,0,0-.623-.623H28.34a.623.623,0,0,0-.623.623v3.644H24.334V21.938a.623.623,0,0,0-.623-.623H20.739a.623.623,0,0,0-.623.623v3.644h-.959a.906.906,0,0,1-.905-.905V16.584ZM24.334,27.327h3.383v1.416h-.209a.623.623,0,1,0,0,1.247h.209v1.029H24.334V29.99h.209a.623.623,0,1,0,0-1.247h-.209Zm-1.247,1.416H21.362V22.561h1.725Zm0,1.247V32.67a.862.862,0,1,1-1.725,0V29.989Zm-.863,4.79a2.111,2.111,0,0,0,2.109-2.109v-.4h3.383v.4a2.109,2.109,0,0,0,4.218,0v-.4h2.114v3.874A3.067,3.067,0,0,1,30.986,39.2H21.065A3.067,3.067,0,0,1,18,36.139V32.265h2.114v.4a2.111,2.111,0,0,0,2.109,2.109Zm8.464-2.109a.862.862,0,0,1-1.725,0V29.989h1.725Zm-1.725-3.927V22.561h1.725v6.182ZM10.358,32.792l3.387-1.518v3.02h-3.9v-.71a.869.869,0,0,1,.513-.792Zm-.513,6.065V35.541h3.9v4.185H10.713a.87.87,0,0,1-.868-.868ZM36.56,40.816a1.693,1.693,0,0,1-1.691,1.691H17.182a1.693,1.693,0,0,1-1.691-1.691V20.963a1.694,1.694,0,0,1,1.016-1.55v5.263a2.654,2.654,0,0,0,2.651,2.651h.959v1.416h-.209a.623.623,0,1,0,0,1.247h.209v1.029H17.379a.623.623,0,0,0-.623.623v4.5a4.314,4.314,0,0,0,4.31,4.31h9.921a4.315,4.315,0,0,0,4.31-4.31v-4.5a.623.623,0,0,0-.623-.623H31.935V29.99h.209a.623.623,0,0,0,0-1.247h-.209V27.327h.959a2.654,2.654,0,0,0,2.651-2.651V19.413a1.693,1.693,0,0,1,1.016,1.55V40.816Zm4.777-1.091H38.305V35.541h3.9v3.317a.87.87,0,0,1-.868.868Z" fill="#e5e0ff"/>
        <path id="Path_781" data-name="Path 781" d="M42.406,31.2l-4.1-1.837v-8.4a3.442,3.442,0,0,0-2.761-3.369v-1.01h3.5a2.166,2.166,0,0,0,2.163-2.163V10.866A2.166,2.166,0,0,0,39.045,8.7H13.006a2.165,2.165,0,0,0-2.163,2.163v3.555a2.165,2.165,0,0,0,2.163,2.163h3.5v1.01a3.442,3.442,0,0,0-2.761,3.369v8.4L9.645,31.2A2.617,2.617,0,0,0,8.1,33.584v5.273a2.617,2.617,0,0,0,2.614,2.613h3.1a3.441,3.441,0,0,0,3.372,2.782H34.869a3.441,3.441,0,0,0,3.372-2.782h3.1a2.616,2.616,0,0,0,2.613-2.613V33.584A2.617,2.617,0,0,0,42.406,31.2Zm-.714,1.593a.869.869,0,0,1,.513.792v.71h-3.9v-3.02Zm-2.23-21.926v3.555a.418.418,0,0,1-.418.418H32.838v-4.39h6.207a.418.418,0,0,1,.418.418Zm-18.5,3.973V10.448H31.092v4.391Zm-8.37-.418V10.866a.418.418,0,0,1,.418-.418h6.207v4.391H13.006a.418.418,0,0,1-.418-.418ZM33.8,16.584v8.092a.906.906,0,0,1-.905.905h-.959V21.938a.623.623,0,0,0-.623-.623H28.34a.623.623,0,0,0-.623.623v3.644H24.334V21.938a.623.623,0,0,0-.623-.623H20.739a.623.623,0,0,0-.623.623v3.644h-.959a.906.906,0,0,1-.905-.905V16.584ZM24.334,27.327h3.383v1.416h-.209a.623.623,0,1,0,0,1.247h.209v1.029H24.334V29.99h.209a.623.623,0,1,0,0-1.247h-.209Zm-1.247,1.416H21.362V22.561h1.725Zm0,1.247V32.67a.862.862,0,1,1-1.725,0V29.989Zm-.863,4.79a2.111,2.111,0,0,0,2.109-2.109v-.4h3.383v.4a2.109,2.109,0,0,0,4.218,0v-.4h2.114v3.874A3.067,3.067,0,0,1,30.986,39.2H21.065A3.067,3.067,0,0,1,18,36.139V32.265h2.114v.4a2.111,2.111,0,0,0,2.109,2.109Zm8.464-2.109a.862.862,0,0,1-1.725,0V29.989h1.725Zm-1.725-3.927V22.561h1.725v6.182ZM10.358,32.792l3.387-1.518v3.02h-3.9v-.71a.869.869,0,0,1,.513-.792Zm-.513,6.065V35.541h3.9v4.185H10.713a.87.87,0,0,1-.868-.868ZM36.56,40.816a1.693,1.693,0,0,1-1.691,1.691H17.182a1.693,1.693,0,0,1-1.691-1.691V20.963a1.694,1.694,0,0,1,1.016-1.55v5.263a2.654,2.654,0,0,0,2.651,2.651h.959v1.416h-.209a.623.623,0,1,0,0,1.247h.209v1.029H17.379a.623.623,0,0,0-.623.623v4.5a4.314,4.314,0,0,0,4.31,4.31h9.921a4.315,4.315,0,0,0,4.31-4.31v-4.5a.623.623,0,0,0-.623-.623H31.935V29.99h.209a.623.623,0,0,0,0-1.247h-.209V27.327h.959a2.654,2.654,0,0,0,2.651-2.651V19.413a1.693,1.693,0,0,1,1.016,1.55V40.816Zm4.777-1.091H38.305V35.541h3.9v3.317a.87.87,0,0,1-.868.868Z" transform="translate(97.774 81.56)" fill="#e5e0ff"/>
      </g>
      <g id="svgexport-20_12_6" data-name="svgexport-20 (12)" transform="translate(1394.598 54.317) rotate(-19)">
        <path id="Path_779-6" data-name="Path 779" d="M42.406,31.2l-4.1-1.837v-8.4a3.442,3.442,0,0,0-2.761-3.369v-1.01h3.5a2.166,2.166,0,0,0,2.163-2.163V10.866A2.166,2.166,0,0,0,39.045,8.7H13.006a2.165,2.165,0,0,0-2.163,2.163v3.555a2.165,2.165,0,0,0,2.163,2.163h3.5v1.01a3.442,3.442,0,0,0-2.761,3.369v8.4L9.645,31.2A2.617,2.617,0,0,0,8.1,33.584v5.273a2.617,2.617,0,0,0,2.614,2.613h3.1a3.441,3.441,0,0,0,3.372,2.782H34.869a3.441,3.441,0,0,0,3.372-2.782h3.1a2.616,2.616,0,0,0,2.613-2.613V33.584A2.617,2.617,0,0,0,42.406,31.2Zm-.714,1.593a.869.869,0,0,1,.513.792v.71h-3.9v-3.02Zm-2.23-21.926v3.555a.418.418,0,0,1-.418.418H32.838v-4.39h6.207a.418.418,0,0,1,.418.418Zm-18.5,3.973V10.448H31.092v4.391Zm-8.37-.418V10.866a.418.418,0,0,1,.418-.418h6.207v4.391H13.006a.418.418,0,0,1-.418-.418ZM33.8,16.584v8.092a.906.906,0,0,1-.905.905h-.959V21.938a.623.623,0,0,0-.623-.623H28.34a.623.623,0,0,0-.623.623v3.644H24.334V21.938a.623.623,0,0,0-.623-.623H20.739a.623.623,0,0,0-.623.623v3.644h-.959a.906.906,0,0,1-.905-.905V16.584ZM24.334,27.327h3.383v1.416h-.209a.623.623,0,1,0,0,1.247h.209v1.029H24.334V29.99h.209a.623.623,0,1,0,0-1.247h-.209Zm-1.247,1.416H21.362V22.561h1.725Zm0,1.247V32.67a.862.862,0,1,1-1.725,0V29.989Zm-.863,4.79a2.111,2.111,0,0,0,2.109-2.109v-.4h3.383v.4a2.109,2.109,0,0,0,4.218,0v-.4h2.114v3.874A3.067,3.067,0,0,1,30.986,39.2H21.065A3.067,3.067,0,0,1,18,36.139V32.265h2.114v.4a2.111,2.111,0,0,0,2.109,2.109Zm8.464-2.109a.862.862,0,0,1-1.725,0V29.989h1.725Zm-1.725-3.927V22.561h1.725v6.182ZM10.358,32.792l3.387-1.518v3.02h-3.9v-.71a.869.869,0,0,1,.513-.792Zm-.513,6.065V35.541h3.9v4.185H10.713a.87.87,0,0,1-.868-.868ZM36.56,40.816a1.693,1.693,0,0,1-1.691,1.691H17.182a1.693,1.693,0,0,1-1.691-1.691V20.963a1.694,1.694,0,0,1,1.016-1.55v5.263a2.654,2.654,0,0,0,2.651,2.651h.959v1.416h-.209a.623.623,0,1,0,0,1.247h.209v1.029H17.379a.623.623,0,0,0-.623.623v4.5a4.314,4.314,0,0,0,4.31,4.31h9.921a4.315,4.315,0,0,0,4.31-4.31v-4.5a.623.623,0,0,0-.623-.623H31.935V29.99h.209a.623.623,0,0,0,0-1.247h-.209V27.327h.959a2.654,2.654,0,0,0,2.651-2.651V19.413a1.693,1.693,0,0,1,1.016,1.55V40.816Zm4.777-1.091H38.305V35.541h3.9v3.317a.87.87,0,0,1-.868.868Z" fill="#e5e0ff"/>
      </g>
      <g id="svgexport-20_12_7" data-name="svgexport-20 (12)" transform="translate(1306.752 138.017) rotate(-4)">
        <path id="Path_779-7" data-name="Path 779" d="M42.406,31.2l-4.1-1.837v-8.4a3.442,3.442,0,0,0-2.761-3.369v-1.01h3.5a2.166,2.166,0,0,0,2.163-2.163V10.866A2.166,2.166,0,0,0,39.045,8.7H13.006a2.165,2.165,0,0,0-2.163,2.163v3.555a2.165,2.165,0,0,0,2.163,2.163h3.5v1.01a3.442,3.442,0,0,0-2.761,3.369v8.4L9.645,31.2A2.617,2.617,0,0,0,8.1,33.584v5.273a2.617,2.617,0,0,0,2.614,2.613h3.1a3.441,3.441,0,0,0,3.372,2.782H34.869a3.441,3.441,0,0,0,3.372-2.782h3.1a2.616,2.616,0,0,0,2.613-2.613V33.584A2.617,2.617,0,0,0,42.406,31.2Zm-.714,1.593a.869.869,0,0,1,.513.792v.71h-3.9v-3.02Zm-2.23-21.926v3.555a.418.418,0,0,1-.418.418H32.838v-4.39h6.207a.418.418,0,0,1,.418.418Zm-18.5,3.973V10.448H31.092v4.391Zm-8.37-.418V10.866a.418.418,0,0,1,.418-.418h6.207v4.391H13.006a.418.418,0,0,1-.418-.418ZM33.8,16.584v8.092a.906.906,0,0,1-.905.905h-.959V21.938a.623.623,0,0,0-.623-.623H28.34a.623.623,0,0,0-.623.623v3.644H24.334V21.938a.623.623,0,0,0-.623-.623H20.739a.623.623,0,0,0-.623.623v3.644h-.959a.906.906,0,0,1-.905-.905V16.584ZM24.334,27.327h3.383v1.416h-.209a.623.623,0,1,0,0,1.247h.209v1.029H24.334V29.99h.209a.623.623,0,1,0,0-1.247h-.209Zm-1.247,1.416H21.362V22.561h1.725Zm0,1.247V32.67a.862.862,0,1,1-1.725,0V29.989Zm-.863,4.79a2.111,2.111,0,0,0,2.109-2.109v-.4h3.383v.4a2.109,2.109,0,0,0,4.218,0v-.4h2.114v3.874A3.067,3.067,0,0,1,30.986,39.2H21.065A3.067,3.067,0,0,1,18,36.139V32.265h2.114v.4a2.111,2.111,0,0,0,2.109,2.109Zm8.464-2.109a.862.862,0,0,1-1.725,0V29.989h1.725Zm-1.725-3.927V22.561h1.725v6.182ZM10.358,32.792l3.387-1.518v3.02h-3.9v-.71a.869.869,0,0,1,.513-.792Zm-.513,6.065V35.541h3.9v4.185H10.713a.87.87,0,0,1-.868-.868ZM36.56,40.816a1.693,1.693,0,0,1-1.691,1.691H17.182a1.693,1.693,0,0,1-1.691-1.691V20.963a1.694,1.694,0,0,1,1.016-1.55v5.263a2.654,2.654,0,0,0,2.651,2.651h.959v1.416h-.209a.623.623,0,1,0,0,1.247h.209v1.029H17.379a.623.623,0,0,0-.623.623v4.5a4.314,4.314,0,0,0,4.31,4.31h9.921a4.315,4.315,0,0,0,4.31-4.31v-4.5a.623.623,0,0,0-.623-.623H31.935V29.99h.209a.623.623,0,0,0,0-1.247h-.209V27.327h.959a2.654,2.654,0,0,0,2.651-2.651V19.413a1.693,1.693,0,0,1,1.016,1.55V40.816Zm4.777-1.091H38.305V35.541h3.9v3.317a.87.87,0,0,1-.868.868Z" fill="#e5e0ff"/>
      </g>
      <g id="svgexport-20_12_8" data-name="svgexport-20 (12)" transform="translate(1313.441 4.788) rotate(47)">
        <path id="Path_779-8" data-name="Path 779" d="M42.406,31.2l-4.1-1.837v-8.4a3.442,3.442,0,0,0-2.761-3.369v-1.01h3.5a2.166,2.166,0,0,0,2.163-2.163V10.866A2.166,2.166,0,0,0,39.045,8.7H13.006a2.165,2.165,0,0,0-2.163,2.163v3.555a2.165,2.165,0,0,0,2.163,2.163h3.5v1.01a3.442,3.442,0,0,0-2.761,3.369v8.4L9.645,31.2A2.617,2.617,0,0,0,8.1,33.584v5.273a2.617,2.617,0,0,0,2.614,2.613h3.1a3.441,3.441,0,0,0,3.372,2.782H34.869a3.441,3.441,0,0,0,3.372-2.782h3.1a2.616,2.616,0,0,0,2.613-2.613V33.584A2.617,2.617,0,0,0,42.406,31.2Zm-.714,1.593a.869.869,0,0,1,.513.792v.71h-3.9v-3.02Zm-2.23-21.926v3.555a.418.418,0,0,1-.418.418H32.838v-4.39h6.207a.418.418,0,0,1,.418.418Zm-18.5,3.973V10.448H31.092v4.391Zm-8.37-.418V10.866a.418.418,0,0,1,.418-.418h6.207v4.391H13.006a.418.418,0,0,1-.418-.418ZM33.8,16.584v8.092a.906.906,0,0,1-.905.905h-.959V21.938a.623.623,0,0,0-.623-.623H28.34a.623.623,0,0,0-.623.623v3.644H24.334V21.938a.623.623,0,0,0-.623-.623H20.739a.623.623,0,0,0-.623.623v3.644h-.959a.906.906,0,0,1-.905-.905V16.584ZM24.334,27.327h3.383v1.416h-.209a.623.623,0,1,0,0,1.247h.209v1.029H24.334V29.99h.209a.623.623,0,1,0,0-1.247h-.209Zm-1.247,1.416H21.362V22.561h1.725Zm0,1.247V32.67a.862.862,0,1,1-1.725,0V29.989Zm-.863,4.79a2.111,2.111,0,0,0,2.109-2.109v-.4h3.383v.4a2.109,2.109,0,0,0,4.218,0v-.4h2.114v3.874A3.067,3.067,0,0,1,30.986,39.2H21.065A3.067,3.067,0,0,1,18,36.139V32.265h2.114v.4a2.111,2.111,0,0,0,2.109,2.109Zm8.464-2.109a.862.862,0,0,1-1.725,0V29.989h1.725Zm-1.725-3.927V22.561h1.725v6.182ZM10.358,32.792l3.387-1.518v3.02h-3.9v-.71a.869.869,0,0,1,.513-.792Zm-.513,6.065V35.541h3.9v4.185H10.713a.87.87,0,0,1-.868-.868ZM36.56,40.816a1.693,1.693,0,0,1-1.691,1.691H17.182a1.693,1.693,0,0,1-1.691-1.691V20.963a1.694,1.694,0,0,1,1.016-1.55v5.263a2.654,2.654,0,0,0,2.651,2.651h.959v1.416h-.209a.623.623,0,1,0,0,1.247h.209v1.029H17.379a.623.623,0,0,0-.623.623v4.5a4.314,4.314,0,0,0,4.31,4.31h9.921a4.315,4.315,0,0,0,4.31-4.31v-4.5a.623.623,0,0,0-.623-.623H31.935V29.99h.209a.623.623,0,0,0,0-1.247h-.209V27.327h.959a2.654,2.654,0,0,0,2.651-2.651V19.413a1.693,1.693,0,0,1,1.016,1.55V40.816Zm4.777-1.091H38.305V35.541h3.9v3.317a.87.87,0,0,1-.868.868Z" fill="#e5e0ff"/>
      </g>
    </g>
  </g>
</svg>
