<svg xmlns="http://www.w3.org/2000/svg" width="101.65" height="104.03" viewBox="0 0 101.65 104.03">
  <g id="deliveryPending" transform="translate(-5.82 0.003)">
    <path id="Path_913" data-name="Path 913" d="M64.87,101.939q-1.4.5-2.785.981a20.219,20.219,0,0,1-13.13,0A233.592,233.592,0,0,1,16.457,89,19.716,19.716,0,0,1,6.131,72.18q-.622-20.174,0-40.347A19.714,19.714,0,0,1,16.457,15.011a234.1,234.1,0,0,1,32.5-13.918,20.219,20.219,0,0,1,13.13,0c3.155,1.1,6.377,2.271,9.638,3.541A356.083,356.083,0,0,0,26.049,22.983,9.322,9.322,0,0,0,20.868,30.7c-.419,7.627-.616,15.495-.575,23.343a1.031,1.031,0,0,0,1.518.971q1.816-1.088,3.7-2.212a.819.819,0,0,1,1.077.221q2.42,3.172,4.961,6.426a1.08,1.08,0,0,0,1.952-.677c-.1-7.87-.024-15.848.226-23.56A9.029,9.029,0,0,1,39.1,27.349,455.019,455.019,0,0,1,84.5,10.038c3.427,1.574,6.818,3.24,10.089,4.967a19.72,19.72,0,0,1,10.327,16.822q.454,14.688.244,29.379A28.659,28.659,0,0,0,57.05,82.257a27.975,27.975,0,0,0,7.824,19.676Zm42.6-19.676A21.764,21.764,0,1,1,85.706,60.5,21.765,21.765,0,0,1,107.47,82.263Zm-10.546.6a2.591,2.591,0,0,0-2.59-2.59H87.866V68.942a2.59,2.59,0,1,0-5.181,0V82.858a2.591,2.591,0,0,0,2.59,2.59h9.059A2.591,2.591,0,0,0,96.924,82.858Z" fill="#ffc350"/>
  </g>
</svg>
