<svg xmlns="http://www.w3.org/2000/svg" width="41.701" height="29.839" viewBox="0 0 41.701 29.839">
  <g id="familyIcon" transform="translate(0.5 -74.111)">
    <path id="Path_899" data-name="Path 899" d="M438.849,278.328a.8.8,0,0,0-1.264.975,5.986,5.986,0,0,1,1.254,3.687.8.8,0,0,0,1.6,0A7.569,7.569,0,0,0,438.849,278.328Z" transform="translate(-402.647 -187.237)" fill="#7262af" stroke="#7262af" stroke-width="1"/>
    <path id="Path_900" data-name="Path 900" d="M33.521,85.737a6.082,6.082,0,1,0-6.79,0,10.515,10.515,0,0,0-3.264,1.8,4.488,4.488,0,0,0-6.23,0,10.521,10.521,0,0,0-3.265-1.8,6.082,6.082,0,1,0-6.79,0,10.593,10.593,0,0,0-7.18,10c0,.007,0,.014,0,.021,0,1.225.7,3.034,4.013,4.69a30.569,30.569,0,0,0,9.393,2.566,54.911,54.911,0,0,0,13.89,0,30.566,30.566,0,0,0,9.392-2.566c3.317-1.657,4.013-3.465,4.013-4.69A10.593,10.593,0,0,0,33.521,85.737Zm-7.88-5.044a4.486,4.486,0,1,1,4.486,4.485A4.491,4.491,0,0,1,25.641,80.693Zm-7.672,8.433a2.9,2.9,0,0,1,4.763,0h0a2.9,2.9,0,1,1-4.763,0ZM6.089,80.693a4.485,4.485,0,1,1,4.485,4.485,4.491,4.491,0,0,1-4.485-4.485ZM12.713,101.3a27.69,27.69,0,0,1-7.986-2.283C2.714,98.01,1.6,96.855,1.6,95.762c0,0,0-.006,0-.009a8.978,8.978,0,0,1,14.7-6.918,4.493,4.493,0,0,0,1.185,5.4A7.65,7.65,0,0,0,12.713,101.3Zm13.681.214a53.553,53.553,0,0,1-12.085,0v-.2a6.043,6.043,0,0,1,12.085,0Zm9.581-2.5A27.683,27.683,0,0,1,27.99,101.3a7.65,7.65,0,0,0-4.771-7.061,4.492,4.492,0,0,0,1.186-5.4,8.978,8.978,0,0,1,14.7,6.918C39.105,96.848,37.994,98.007,35.975,99.015Z" fill="#7262af" stroke="#7262af" stroke-width="1"/>
    <path id="Path_901" data-name="Path 901" d="M416.4,258.344a.8.8,0,0,0,0,1.6A.8.8,0,0,0,416.4,258.344Z" transform="translate(-382.59 -169.127)" fill="#7262af" stroke="#7262af" stroke-width="1"/>
  </g>
</svg>
