<svg xmlns="http://www.w3.org/2000/svg" width="40.562" height="40.624" viewBox="0 0 40.562 40.624">
  <g id="gearsIcon" transform="translate(-6.575 -6.194)">
    <path id="Path_894" data-name="Path 894" d="M49.472,323.189a.465.465,0,0,0-.465.465v6.3a.465.465,0,1,0,.93,0v-6.3A.465.465,0,0,0,49.472,323.189Z" transform="translate(-38.982 -291.22)" fill="#7262af"/>
    <path id="Path_895" data-name="Path 895" d="M46.672,27.6h-6.94V25.787a4.581,4.581,0,0,0,1.929-2.152h2.822a2.652,2.652,0,0,0,2.648-2.654V13.9a2.651,2.651,0,0,0-2.648-2.648H41.66A4.56,4.56,0,0,0,37.592,8.5V7.614a1.42,1.42,0,0,0-1.42-1.42H32.233a1.42,1.42,0,0,0-1.42,1.42V8.5H22.9V7.614a1.416,1.416,0,0,0-1.42-1.42H17.54a1.42,1.42,0,0,0-1.42,1.42V8.5a4.553,4.553,0,0,0-4.069,2.754H9.23A2.656,2.656,0,0,0,6.575,13.9V20.98A2.658,2.658,0,0,0,9.23,23.634h2.822a4.6,4.6,0,0,0,1.923,2.152V27.6H7.04a.469.469,0,0,0-.465.465v2.444a.465.465,0,0,0,.465.465h.682v8.472A2.68,2.68,0,0,0,10.4,42.129H13.98a4.758,4.758,0,0,0,4.751,4.689H34.975a4.76,4.76,0,0,0,4.757-4.689H43.31A2.687,2.687,0,0,0,46,39.444V30.971h.676a.465.465,0,0,0,.465-.465V28.063A.468.468,0,0,0,46.672,27.6Zm-32.7,13.6H10.4a1.751,1.751,0,0,1-1.743-1.755V30.978h5.321Zm24.827.862a3.829,3.829,0,0,1-3.827,3.827H18.731A3.833,3.833,0,0,1,14.9,42.061V26.2a4.546,4.546,0,0,0,1.34.2h.949v1.278a.469.469,0,0,0,.465.465h.527v2.245a.469.469,0,0,0,.465.465h2.741a1.337,1.337,0,0,0,1.333-1.34V28.137h.527a.469.469,0,0,0,.465-.465V26.394H29.74v1.278a.469.469,0,0,0,.465.465h.527v2.245a.465.465,0,0,0,.465.465h2.741a1.341,1.341,0,0,0,1.333-1.34V28.137h.521a.465.465,0,0,0,.465-.465V26.394h1.216a4.433,4.433,0,0,0,1.327-.2ZM20.455,25.979a.469.469,0,0,0,.465-.465v-.657h1.867v2.351H18.123V24.856H19.99v.657A.469.469,0,0,0,20.455,25.979Zm12.547,0a.469.469,0,0,0,.465-.465v-.657h1.861v2.351H30.67V24.856h1.867v.657a.465.465,0,0,0,.465.465Zm4.472-.515H36.258V24.391a.465.465,0,0,0-.465-.465h-.521v-6.3a.469.469,0,0,0-.465-.465H32.06a1.334,1.334,0,0,0-1.327,1.333v5.433h-.527a.469.469,0,0,0-.465.465v1.073H23.718V24.391a.469.469,0,0,0-.465-.465h-.527v-6.3a.465.465,0,0,0-.465-.465H19.519a1.335,1.335,0,0,0-1.333,1.333v5.433h-.527a.469.469,0,0,0-.465.465v1.073h-.949A3.647,3.647,0,0,1,12.61,21.83V13.054a3.646,3.646,0,0,1,3.634-3.628h21.23A3.641,3.641,0,0,1,41.1,13.054V21.83A3.646,3.646,0,0,1,37.474,25.464Zm7.591,13.98A1.758,1.758,0,0,1,43.31,41.2H39.732V30.978h5.334Z" fill="#7262af"/>
    <path id="Path_896" data-name="Path 896" d="M144.769,86.1H126.591a1.563,1.563,0,0,0-1.557,1.563v.174a1.557,1.557,0,0,0,1.24,1.526v5.551a2.313,2.313,0,0,0,2.313,2.313h14.19a2.311,2.311,0,0,0,2.307-2.307V89.362a1.557,1.557,0,0,0,1.247-1.526v-.174A1.564,1.564,0,0,0,144.769,86.1Zm-.614,8.819a1.374,1.374,0,0,1-1.377,1.377h-14.19a1.384,1.384,0,0,1-1.383-1.383v-5.52h14.159v.825a.465.465,0,0,0,.93,0v-.825h1.861v5.526Zm-5.21-29.6V67.76a1.3,1.3,0,0,1-1.3,1.3h-4.763a.469.469,0,0,1-.465-.465V66.147a1.3,1.3,0,0,1,1.3-1.3h4.763A.469.469,0,0,1,138.945,65.316Z" transform="translate(-108.827 -53.888)" fill="#7262af"/>
  </g>
</svg>
