<svg id="mapsIcon" xmlns="http://www.w3.org/2000/svg" width="19.683" height="26.945" viewBox="0 0 19.683 26.945">
  <path id="Path_871" data-name="Path 871" d="M78.841,0A9.844,9.844,0,0,0,69,9.847c0,5.986,4.1,7.4,6.254,11.068,2,3.416,2.005,6.031,3.587,6.031,1.641,0,1.537-2.436,3.587-6.031s6.254-5.081,6.254-11.068A9.844,9.844,0,0,0,78.841,0Zm0,13.62a3.684,3.684,0,1,1,3.681-3.683A3.683,3.683,0,0,1,78.841,13.62Z" transform="translate(-69)" fill="#4caf50"/>
  <path id="Path_872" data-name="Path 872" d="M241.358,0c-.274,0-.545.012-.813.034a9.845,9.845,0,0,1,9.028,9.813c0,5.986-4.2,7.473-6.254,11.068-1.624,2.847-1.9,4.967-2.755,5.726a1.135,1.135,0,0,0,.794.3c1.641,0,1.537-2.436,3.587-6.031S251.2,15.833,251.2,9.847A9.844,9.844,0,0,0,241.358,0Z" transform="translate(-231.517)" fill="#43a047"/>
  <path id="Path_873" data-name="Path 873" d="M76.239,60.063l-6.47,6.474A9.645,9.645,0,0,1,69,62.577a9.818,9.818,0,0,1,2.838-6.917Z" transform="translate(-69.001 -52.731)" fill="#f44336"/>
  <path id="Path_874" data-name="Path 874" d="M211.766,27.1a3.682,3.682,0,0,0-5.232-5.183l6.518-6.521a9.876,9.876,0,0,1,5.171,5.246l-6.456,6.46Z" transform="translate(-199.296 -14.586)" fill="#42a5f5"/>
  <path id="Path_875" data-name="Path 875" d="M320.493,15.4l-.549.55a9.866,9.866,0,0,1,4.508,5.908l1.212-1.212A9.876,9.876,0,0,0,320.493,15.4Z" transform="translate(-306.738 -14.586)" fill="#2196f3"/>
  <path id="Path_876" data-name="Path 876" d="M95.291,144.5l-7.106,7.11c-1.545-1.947-3.527-3.379-4.6-5.82l6.47-6.474A3.682,3.682,0,1,0,95.29,144.5Z" transform="translate(-82.82 -131.983)" fill="#ffc107"/>
  <path id="Path_877" data-name="Path 877" d="M133.843.81l-6.518,6.521-4.4-4.4A9.845,9.845,0,0,1,133.843.81Z" transform="translate(-120.087)" fill="#1e88e5"/>
  <path id="Path_878" data-name="Path 878" d="M241.359,0q-.411,0-.813.034h0a9.778,9.778,0,0,1,4.179,1.326l.549-.55A9.8,9.8,0,0,0,241.359,0Z" transform="translate(-231.518)" fill="#1976d2"/>
</svg>
