<svg xmlns="http://www.w3.org/2000/svg" width="86.035" height="67.934" viewBox="0 0 86.035 67.934">
  <g id="logo" transform="translate(-12.965 -17.066)">
    <g id="_5" data-name="5">
      <circle id="Ellipse_4" data-name="Ellipse 4" cx="24.5" cy="24.5" r="24.5" transform="translate(50 36)" fill="#7262af"/>
      <path id="Path_4" data-name="Path 4" d="M68,61.86H63.07L43.82,26.57l3.54-6.49a2.038,2.038,0,0,0-3.58-1.95L41.5,22.32l-2.28-4.19a2.038,2.038,0,1,0-3.58,1.95l3.54,6.49L19.93,61.86H15a2.035,2.035,0,0,0,0,4.07H68a2.035,2.035,0,1,0,0-4.07Zm-20.35,0H35.39V53.71a6.11,6.11,0,0,1,12.22,0Z" fill="#fff"/>
    </g>
  </g>
</svg>
