<svg xmlns="http://www.w3.org/2000/svg" width="40.624" height="40.624" viewBox="0 0 40.624 40.624">
  <g id="noAlcohol" transform="translate(-1 -1)">
    <path id="Path_892" data-name="Path 892" d="M21.312,1A20.312,20.312,0,1,0,41.624,21.312,20.335,20.335,0,0,0,21.312,1ZM38.239,21.312a16.842,16.842,0,0,1-4.052,10.96l-3.4-3.4V20.635a4.726,4.726,0,0,0-2.708-4.266V9.8h.339a1.016,1.016,0,1,0,0-2.031H25.036a1.016,1.016,0,1,0,0,2.031h.339v6.568a4.726,4.726,0,0,0-2.708,4.266v.116L10.352,8.437A16.906,16.906,0,0,1,38.239,21.312Zm-33.853,0a16.842,16.842,0,0,1,4.052-10.96L32.272,34.187A16.906,16.906,0,0,1,4.385,21.312Z" fill="#7262af"/>
    <path id="Path_893" data-name="Path 893" d="M25.879,28.9H21.187a1.354,1.354,0,0,1-1.354-1.354V22.849Zm-11.8-6.921v4.89h.677a1.016,1.016,0,0,1,0,2.031H11.37a1.016,1.016,0,1,1,0-2.031h.677V21.992A4.3,4.3,0,0,1,9,17.832V14.677A.677.677,0,0,1,9.677,14h1.307l5.754,5.754a4.069,4.069,0,0,1-2.66,2.221Z" transform="translate(2.833 4.604)" fill="#7262af"/>
  </g>
</svg>
