<svg id="noSmokingIcon" xmlns="http://www.w3.org/2000/svg" width="40.624" height="40.624" viewBox="0 0 40.624 40.624">
  <path id="Path_890" data-name="Path 890" d="M264.462,111.745a1.7,1.7,0,0,1-1.693-1.693,3.389,3.389,0,0,0-3.385-3.385h-2.539a.846.846,0,1,0,0,1.693h2.539a1.7,1.7,0,0,1,1.693,1.693,3.389,3.389,0,0,0,3.385,3.385,1.7,1.7,0,0,1,1.693,1.693v2.539a.846.846,0,0,0,1.693,0V115.13A3.389,3.389,0,0,0,264.462,111.745Zm-.846,5.078h-1.693a.847.847,0,0,1-.846-.846,2.542,2.542,0,0,0-2.539-2.539.847.847,0,0,1-.846-.846V110.9a.846.846,0,1,0-1.693,0v1.693a2.542,2.542,0,0,0,2.539,2.539.847.847,0,0,1,.846.846,2.542,2.542,0,0,0,2.539,2.539h1.693a.846.846,0,1,0,0-1.693Z" transform="translate(-235.687 -98.204)" fill="#7262af"/>
  <path id="Path_891" data-name="Path 891" d="M20.312,0A20.312,20.312,0,1,0,40.624,20.312,20.335,20.335,0,0,0,20.312,0Zm0,37.239A16.915,16.915,0,0,1,7.214,9.607L19.611,22H9.31a.846.846,0,0,0-.846.846v3.385a.846.846,0,0,0,.846.846H24.689l6.328,6.328a16.845,16.845,0,0,1-10.7,3.828Zm13.1-6.222-3.934-3.934h1.838a.846.846,0,0,0,.846-.846V22.851A.846.846,0,0,0,31.314,22H24.4L9.607,7.214a16.915,16.915,0,0,1,23.8,23.8ZM28.775,25.39V23.7h1.693V25.39Z" fill="#7262af"/>
</svg>
