<svg xmlns="http://www.w3.org/2000/svg" width="82.419" height="80.734" viewBox="0 0 82.419 80.734">
  <g id="notPaid" transform="translate(0 -5.235)">
    <path id="Path_902" data-name="Path 902" d="M87.5,51.889c0,2.987-2.241,5.681-2.876,8.475-.656,2.885.178,6.282-1.077,8.885-1.277,2.646-4.466,4.105-6.281,6.378s-2.543,5.715-4.826,7.538-5.774,1.758-8.42,3.035c-2.6,1.256-4.734,4.041-7.619,4.7-2.794.635-5.916-.935-8.9-.935s-6.109,1.57-8.9.935c-2.885-.656-5.016-3.441-7.619-4.7-2.646-1.277-6.147-1.22-8.42-3.035s-3-5.254-4.826-7.538-5-3.732-6.281-6.378c-1.256-2.6-.422-6-1.077-8.885-.635-2.795-2.876-5.489-2.876-8.476s2.241-5.681,2.876-8.475c.656-2.885-.178-6.282,1.077-8.885,1.277-2.646,4.466-4.105,6.281-6.378s2.543-5.715,4.826-7.538,5.774-1.758,8.42-3.035c2.6-1.256,4.734-4.041,7.619-4.7,2.794-.635,5.916.935,8.9.935s6.109-1.57,8.9-.935c2.885.656,5.016,3.441,7.619,4.7,2.646,1.277,6.147,1.22,8.42,3.035s3,5.254,4.826,7.538,5,3.732,6.281,6.378c1.256,2.6.422,6,1.077,8.885.635,2.795,2.876,5.489,2.876,8.476Z" transform="translate(-6.286 -6.287)" fill="#e9afaf"/>
    <path id="Path_903" data-name="Path 903" d="M109.157,454.234q.345.166.674.363a17.882,17.882,0,0,1-5.044-1.683A22.9,22.9,0,0,1,109.157,454.234Z" transform="translate(-87.919 -375.614)" fill="#c1e9af"/>
    <path id="Path_904" data-name="Path 904" d="M236.163,84.037c0,2.986-2.24,5.681-2.875,8.476-.656,2.885.179,6.282-1.079,8.886-1.275,2.645-4.465,4.105-6.279,6.377s-2.544,5.715-4.827,7.538-5.774,1.759-8.421,3.036c-2.6,1.256-4.734,4.041-7.619,4.7-2.795.635-5.917-.936-8.9-.936s-6.109,1.571-8.9.936a8.043,8.043,0,0,1-2.578-1.164c2.563.2,8.8-2.733,11.481-2.733,2.986,0,5.508,1.457,8.3.822,2.885-.656,4.124-3.528,6.727-4.784,2.647-1.277,5.094-.241,7.368-2.056s2.1-4.365,3.923-6.648,5-3.732,6.279-6.379c1.257-2.6.423-6,1.079-8.884.635-2.795,2.742-4.2,2.742-7.183s-2.144-5.372-2.779-8.167c-.656-2.886.509-5.594-.747-8.2-1.277-2.647-4.526-4.559-6.339-6.831s-2.779-7.551-5.062-9.376a5.728,5.728,0,0,0-.6-.421,10.382,10.382,0,0,1,4.054,1.716c2.283,1.823,3,5.253,4.827,7.538s5,3.732,6.281,6.377c1.256,2.6.421,6,1.077,8.886C233.923,78.357,236.163,81.052,236.163,84.037Z" transform="translate(-154.95 -38.435)" fill="#e19494"/>
    <path id="Path_905" data-name="Path 905" d="M138.9,464.3c1.77.854,3.322,2.415,5.041,3.533a6.43,6.43,0,0,1-.871-.13c-2.632-.6-4.637-2.97-6.945-4.333A14.466,14.466,0,0,1,138.9,464.3Z" transform="translate(-114.21 -384.388)" fill="#c1e9af"/>
    <circle id="Ellipse_57" data-name="Ellipse 57" cx="25.963" cy="25.963" r="25.963" transform="translate(15.246 19.639)" fill="#f6dfdf"/>
    <path id="Path_906" data-name="Path 906" d="M206.116,135.1A25.969,25.969,0,0,1,165.6,156.611a25.968,25.968,0,0,0,26.232-44.7A25.965,25.965,0,0,1,206.116,135.1Z" transform="translate(-138.943 -89.502)" fill="#f1d0d0"/>
    <path id="Path_907" data-name="Path 907" d="M81.719,49.671a1.206,1.206,0,0,1-1.206-1.206V46.4a1.206,1.206,0,0,1,2.412,0v2.064A1.206,1.206,0,0,1,81.719,49.671Zm0,63.393a1.206,1.206,0,0,1-1.206-1.206v-2.064a1.206,1.206,0,0,1,2.412,0v2.064A1.206,1.206,0,0,1,81.719,113.063ZM71.231,51.52a1.206,1.206,0,0,1-1.133-.793l-.706-1.939a1.206,1.206,0,1,1,2.267-.825l.706,1.939a1.206,1.206,0,0,1-1.133,1.619Zm21.682,59.57a1.206,1.206,0,0,1-1.133-.794l-.706-1.939a1.206,1.206,0,1,1,2.267-.825l.706,1.939a1.206,1.206,0,0,1-1.133,1.619Zm-30.9-54.245a1.2,1.2,0,0,1-.924-.431l-1.326-1.581a1.206,1.206,0,1,1,1.848-1.551l1.326,1.581a1.206,1.206,0,0,1-.923,1.981Zm40.748,48.562a1.2,1.2,0,0,1-.924-.431l-1.326-1.581a1.206,1.206,0,0,1,1.848-1.55l1.326,1.581a1.206,1.206,0,0,1-.923,1.981ZM55.162,65a1.2,1.2,0,0,1-.6-.162l-1.787-1.032a1.206,1.206,0,1,1,1.206-2.089l1.787,1.032a1.206,1.206,0,0,1-.6,2.251Zm54.9,31.7a1.2,1.2,0,0,1-.6-.162l-1.787-1.032a1.206,1.206,0,1,1,1.206-2.089l1.787,1.032a1.206,1.206,0,0,1-.6,2.251ZM51.522,75.01a1.208,1.208,0,0,1-.211-.019l-2.032-.358a1.206,1.206,0,1,1,.419-2.375l2.032.358a1.206,1.206,0,0,1-.208,2.394Zm62.43,11.008A1.208,1.208,0,0,1,113.74,86l-2.032-.358a1.206,1.206,0,1,1,.419-2.375l2.032.358a1.206,1.206,0,0,1-.208,2.394Zm-64.465,0a1.206,1.206,0,0,1-.208-2.394l2.032-.358a1.206,1.206,0,1,1,.419,2.375L49.7,86A1.209,1.209,0,0,1,49.487,86.019Zm62.43-11.008a1.206,1.206,0,0,1-.208-2.394l2.032-.358a1.206,1.206,0,1,1,.419,2.375l-2.032.358a1.211,1.211,0,0,1-.211.019ZM53.377,96.7a1.206,1.206,0,0,1-.6-2.251l1.787-1.032a1.206,1.206,0,1,1,1.206,2.089l-1.787,1.032A1.2,1.2,0,0,1,53.377,96.7Zm54.9-31.7a1.206,1.206,0,0,1-.6-2.251l1.787-1.032a1.206,1.206,0,1,1,1.206,2.089l-1.787,1.032A1.2,1.2,0,0,1,108.276,65Zm-47.6,40.4a1.206,1.206,0,0,1-.923-1.981l1.326-1.581a1.206,1.206,0,1,1,1.848,1.55l-1.326,1.581A1.2,1.2,0,0,1,60.681,105.406Zm40.748-48.562a1.206,1.206,0,0,1-.923-1.981l1.326-1.581a1.206,1.206,0,1,1,1.848,1.551l-1.326,1.581A1.2,1.2,0,0,1,101.429,56.845Zm-30.9,54.245a1.206,1.206,0,0,1-1.133-1.619l.706-1.939a1.206,1.206,0,1,1,2.267.825l-.706,1.939A1.206,1.206,0,0,1,70.525,111.09ZM92.207,51.52A1.206,1.206,0,0,1,91.073,49.9l.706-1.939a1.206,1.206,0,1,1,2.267.825l-.706,1.939a1.206,1.206,0,0,1-1.133.794Z" transform="translate(-40.51 -33.527)"/>
    <path id="Path_910" data-name="Path 910" d="M80.754,40.027a16.359,16.359,0,0,1-1.241-3.168,17.1,17.1,0,0,1-.273-3.52,13.03,13.03,0,0,0-.895-5.622,13.1,13.1,0,0,0-3.884-4.248,16.685,16.685,0,0,1-2.54-2.359,16.783,16.783,0,0,1-1.751-3.019A13.1,13.1,0,0,0,66.9,13.383a13.08,13.08,0,0,0-5.3-2.135A16.929,16.929,0,0,1,58.256,10.2,16.565,16.565,0,0,1,55.418,8.27,13.112,13.112,0,0,0,50.38,5.417a13,13,0,0,0-5.632.382,17.189,17.189,0,0,1-3.539.523A17.19,17.19,0,0,1,37.67,5.8a12.99,12.99,0,0,0-5.632-.382A13.108,13.108,0,0,0,27,8.27,16.553,16.553,0,0,1,24.163,10.2a16.934,16.934,0,0,1-3.348,1.044,13.078,13.078,0,0,0-5.3,2.135,13.1,13.1,0,0,0-3.266,4.709A16.791,16.791,0,0,1,10.5,21.111a16.682,16.682,0,0,1-2.54,2.358,13.1,13.1,0,0,0-3.884,4.248,13.031,13.031,0,0,0-.895,5.622,17.1,17.1,0,0,1-.273,3.52,16.36,16.36,0,0,1-1.241,3.168A13.18,13.18,0,0,0,0,45.6a13.175,13.175,0,0,0,1.665,5.575,16.36,16.36,0,0,1,1.241,3.168,17.1,17.1,0,0,1,.273,3.52,13.03,13.03,0,0,0,.895,5.622,13.1,13.1,0,0,0,3.884,4.248,16.692,16.692,0,0,1,2.54,2.358l.088.112a1.206,1.206,0,1,0,1.912-1.47l-.114-.146a18.679,18.679,0,0,0-2.9-2.725,11.191,11.191,0,0,1-3.233-3.424,11.141,11.141,0,0,1-.655-4.6,19.128,19.128,0,0,0-.333-4.027,18.354,18.354,0,0,0-1.41-3.659A11.25,11.25,0,0,1,2.412,45.6a11.25,11.25,0,0,1,1.436-4.549,18.35,18.35,0,0,0,1.41-3.659,19.129,19.129,0,0,0,.333-4.027,11.142,11.142,0,0,1,.655-4.6,11.193,11.193,0,0,1,3.233-3.424,18.693,18.693,0,0,0,2.9-2.725,18.8,18.8,0,0,0,2.028-3.455,11.2,11.2,0,0,1,2.609-3.894,11.183,11.183,0,0,1,4.36-1.675,18.959,18.959,0,0,0,3.831-1.216,18.574,18.574,0,0,0,3.276-2.207,11.2,11.2,0,0,1,4.087-2.4,11.1,11.1,0,0,1,4.587.388,19.227,19.227,0,0,0,4.049.577,19.227,19.227,0,0,0,4.049-.577,11.107,11.107,0,0,1,4.587-.388,11.2,11.2,0,0,1,4.087,2.4,18.574,18.574,0,0,0,3.276,2.207,18.94,18.94,0,0,0,3.831,1.216A11.179,11.179,0,0,1,65.4,15.267a11.2,11.2,0,0,1,2.609,3.894,18.809,18.809,0,0,0,2.028,3.454,18.689,18.689,0,0,0,2.9,2.726,11.191,11.191,0,0,1,3.233,3.424,11.14,11.14,0,0,1,.655,4.6,19.129,19.129,0,0,0,.333,4.027,18.354,18.354,0,0,0,1.41,3.659A11.25,11.25,0,0,1,80.006,45.6a11.251,11.251,0,0,1-1.436,4.549,18.35,18.35,0,0,0-1.41,3.659,19.139,19.139,0,0,0-.333,4.027,11.142,11.142,0,0,1-.655,4.6,11.2,11.2,0,0,1-3.233,3.424,18.7,18.7,0,0,0-2.9,2.725,18.805,18.805,0,0,0-2.028,3.454A11.2,11.2,0,0,1,65.4,75.937a11.186,11.186,0,0,1-4.361,1.675,18.959,18.959,0,0,0-3.831,1.216,18.566,18.566,0,0,0-3.275,2.207,11.193,11.193,0,0,1-4.087,2.4,11.108,11.108,0,0,1-4.587-.388,19.237,19.237,0,0,0-4.049-.577,19.237,19.237,0,0,0-4.049.577,11.1,11.1,0,0,1-4.587.388,11.192,11.192,0,0,1-4.087-2.4,18.572,18.572,0,0,0-3.276-2.207,18.966,18.966,0,0,0-3.831-1.216,11.18,11.18,0,0,1-4.36-1.675,7.213,7.213,0,0,1-1.687-2.119,1.206,1.206,0,1,0-2.092,1.2,9.5,9.5,0,0,0,2.274,2.8,13.083,13.083,0,0,0,5.3,2.135A16.935,16.935,0,0,1,24.163,81,16.564,16.564,0,0,1,27,82.935a13.11,13.11,0,0,0,5.039,2.853A12.987,12.987,0,0,0,37.67,85.4a17.2,17.2,0,0,1,3.539-.523,17.187,17.187,0,0,1,3.539.523,18.777,18.777,0,0,0,3.929.564,7.648,7.648,0,0,0,1.7-.182,13.105,13.105,0,0,0,5.039-2.853A16.564,16.564,0,0,1,58.255,81,16.94,16.94,0,0,1,61.6,79.957a13.075,13.075,0,0,0,5.3-2.135,13.1,13.1,0,0,0,3.266-4.709,16.793,16.793,0,0,1,1.751-3.019,16.685,16.685,0,0,1,2.54-2.359,13.1,13.1,0,0,0,3.884-4.248,13.031,13.031,0,0,0,.895-5.622,17.1,17.1,0,0,1,.273-3.52,16.36,16.36,0,0,1,1.241-3.168A13.172,13.172,0,0,0,82.419,45.6,13.176,13.176,0,0,0,80.754,40.027Z"/>
    <path id="Path_911" data-name="Path 911" d="M137.921,103.339a1.206,1.206,0,0,0,.5-1.63,27.044,27.044,0,1,0,2.164,5.457,1.206,1.206,0,1,0-2.326.64,24.763,24.763,0,1,1-1.97-4.97A1.206,1.206,0,0,0,137.921,103.339Z" transform="translate(-73.179 -68.786)"/>
    <path id="Path_912" data-name="Path 912" d="M168.582,143.251a4.278,4.278,0,0,0-6.03.4l-3.828,4.365-.292-.3a4.273,4.273,0,1,0-6.12,5.965l3.518,3.61a4.273,4.273,0,0,0,6.273-.165l6.876-7.84A4.278,4.278,0,0,0,168.582,143.251Zm-1.418,4.44-6.876,7.84a1.865,1.865,0,0,1-1.347.633h-.052a1.872,1.872,0,0,1-1.333-.562l-3.518-3.609a1.861,1.861,0,0,1,2.666-2.6l1.2,1.234a1.206,1.206,0,0,0,1.77-.047l4.688-5.346a1.861,1.861,0,0,1,2.8,2.455Zm-9.57,14.251a1.429,1.429,0,0,0-1.326-.889h0a1.429,1.429,0,0,0-1.337.919l-3.777,9.916a1.206,1.206,0,0,0,2.254.858l.645-1.693h4.4l.638,1.69a1.206,1.206,0,0,0,2.257-.852l-3.742-9.917-.013-.033Zm-2.624,6.7,1.293-3.4,1.281,3.4Zm9.223-6.382v10.058a1.206,1.206,0,0,0,2.412,0V162.26a1.206,1.206,0,0,0-2.412,0Zm5.475,10.033a1.236,1.236,0,0,0,1.235,1.231h0c.086,0,2.1-.008,2.911-.022,3-.052,5.169-2.665,5.169-6.213,0-3.729-2.119-6.235-5.273-6.235h-2.832a1.235,1.235,0,0,0-1.235,1.238s.007,3.846.007,4.986C169.656,168.668,169.669,172.293,169.669,172.293Zm4.047-8.768c2.066,0,2.8,1.944,2.8,3.764,0,2.552-1.377,3.719-2.741,3.742-.377.007-1.044.012-1.642.016,0-1.182-.009-2.906-.009-3.769,0-.721,0-2.524-.005-3.753h1.594Zm-30.251-2.471a1.223,1.223,0,0,0-.352.052,1.193,1.193,0,0,0-.772.711,1.213,1.213,0,0,0-.082.442v10.058a1.206,1.206,0,1,0,2.412,0v-3.169c.577,0,1.225-.006,1.595-.006a4.045,4.045,0,1,0,0-8.089h-2.8Zm4.489,4.044a1.683,1.683,0,0,1-1.688,1.632c-.367,0-1.007,0-1.582.006,0-.594-.006-1.261-.006-1.638,0-.319,0-1.011,0-1.632h1.591A1.683,1.683,0,0,1,147.954,165.1Z" transform="translate(-119.359 -114.911)"/>
    <rect id="Rectangle_108" data-name="Rectangle 108" width="25" height="19" transform="translate(29.292 25.837)" fill="#f6dfdf"/>
    <g id="Group_121" data-name="Group 121" transform="translate(-183.649 -1686.163)">
      <g id="svgexport-20_67_" data-name="svgexport-20 (67)" transform="translate(218.233 1714.682)">
        <g id="Group_120" data-name="Group 120" transform="translate(0 0.359)">
          <path id="Path_924" data-name="Path 924" d="M12.912,11.084,2.527.7A1.159,1.159,0,0,0,.887.7L.34,1.245a1.159,1.159,0,0,0,0,1.64L10.725,13.271a1.159,1.159,0,0,0,1.64,0l.547-.547A1.158,1.158,0,0,0,12.912,11.084Zm0,0" transform="translate(0 -0.359)" fill="#f44336" stroke="#000" stroke-width="3"/>
          <path id="Path_925" data-name="Path 925" d="M10.725.7.34,11.087a1.159,1.159,0,0,0,0,1.64l.547.547a1.159,1.159,0,0,0,1.64,0L12.912,2.889a1.159,1.159,0,0,0,0-1.64L12.366.7A1.159,1.159,0,0,0,10.725.7Zm0,0" transform="translate(0 -0.362)" fill="#f44336" stroke="#000" stroke-width="3"/>
        </g>
      </g>
      <g id="svgexport-20_67_2" data-name="svgexport-20 (67)" transform="translate(218.233 1714.682)">
        <g id="Group_120-2" data-name="Group 120" transform="translate(0 0.359)">
          <path id="Path_924-2" data-name="Path 924" d="M12.912,11.084,2.527.7A1.159,1.159,0,0,0,.887.7L.34,1.245a1.159,1.159,0,0,0,0,1.64L10.725,13.271a1.159,1.159,0,0,0,1.64,0l.547-.547A1.158,1.158,0,0,0,12.912,11.084Zm0,0" transform="translate(0 -0.359)" fill="#f44336"/>
          <path id="Path_925-2" data-name="Path 925" d="M10.725.7.34,11.087a1.159,1.159,0,0,0,0,1.64l.547.547a1.159,1.159,0,0,0,1.64,0L12.912,2.889a1.159,1.159,0,0,0,0-1.64L12.366.7A1.159,1.159,0,0,0,10.725.7Zm0,0" transform="translate(0 -0.362)" fill="#f44336"/>
        </g>
      </g>
    </g>
  </g>
</svg>
