<svg xmlns="http://www.w3.org/2000/svg" version="1.1" xmlns:xlink="http://www.w3.org/1999/xlink" width="512" height="512" x="0" y="0" viewBox="0 0 64 64" style="enable-background:new 0 0 512 512" xml:space="preserve" class=""><g><g data-name="Layer 32"><path fill="#FFD164" d="M53.49 17.94a2 2 0 0 0-.1-.38s0 0 0-.06a.76.76 0 0 0-.09-.09 1 1 0 0 0-.13-.16l-.16-.1-.17-.08a.65.65 0 0 0-.2-.05h-.38a1.27 1.27 0 0 0-.18.06h-.06l-24.25 14-.09.09-.16.13a.86.86 0 0 0-.1.16.89.89 0 0 0-.08.17.65.65 0 0 0-.05.2s0 .08 0 .12v28.11a2 2 0 0 0 .1.38s0 0 0 .06a1.56 1.56 0 0 0 .16.2.92.92 0 0 0 .28.19h.08a.94.94 0 0 0 .34.07 1 1 0 0 0 .34-.07h.16l9.91-5.72a1 1 0 0 0 .15-.14.81.81 0 0 0 .14-.12 1.11 1.11 0 0 0 .09-.19.8.8 0 0 0 .08-.16 1.21 1.21 0 0 0 0-.19 1.28 1.28 0 0 0 0-.19 1.06 1.06 0 0 0-.06-.19 1.27 1.27 0 0 0-.06-.18 10.76 10.76 0 0 1 9.25-16.31 10.66 10.66 0 0 1 3.89.72.57.57 0 0 0 .18 0 .58.58 0 0 0 .18 0 1.09 1.09 0 0 0 .26 0 .61.61 0 0 1 .13 0l.15-.11a.76.76 0 0 0 .16-.11.61.61 0 0 0 .07-.1.68.68 0 0 0 .14-.23 1.22 1.22 0 0 0 0-.17 1.29 1.29 0 0 0 0-.19V18s.08 0 .08-.06z" opacity="1" data-original="#ffd164" class=""></path><path fill="#FFC350" d="m28.75 31.13-24.25-14h-.06a1.06 1.06 0 0 0-.19-.06h-.37a.8.8 0 0 0-.21.05l-.16.08-.16.1a1 1 0 0 0-.13.16l-.09.09v.06a1.27 1.27 0 0 0-.06.18 1.42 1.42 0 0 0 0 .2S3 18 3 18v28a1 1 0 0 0 .5.87l24.25 14h.16a1 1 0 0 0 .34.07.94.94 0 0 0 .34-.07h.08a.92.92 0 0 0 .28-.19 1.56 1.56 0 0 0 .16-.2s0 0 0-.06a1.27 1.27 0 0 0 .06-.18 1.42 1.42 0 0 0 0-.2V32a1 1 0 0 0-.42-.87z" opacity="1" data-original="#ffc350" class=""></path><path fill="#FFE17D" d="M53.48 18a1.21 1.21 0 0 1 0 .19 1.39 1.39 0 0 1-.06.19s0 .08 0 .12v.06l-.06.08a1.07 1.07 0 0 1-.25.22L40.3 26.2l-2 1.16-9.55 5.51a1 1 0 0 1-1 0l-24.25-14a1.07 1.07 0 0 1-.16-.14l-.13-.14V18.42a1.39 1.39 0 0 1-.21-.23 1.81 1.81 0 0 1 0-.38 1.39 1.39 0 0 1 .06-.19s0-.08 0-.12v-.05l.13-.14a1.07 1.07 0 0 1 .16-.14l11.9-6.87 1.91-1.1 10.44-6a1 1 0 0 1 1 0L53 17.13l.14.13.14.15V17.58a1.39 1.39 0 0 1 .06.19 1.21 1.21 0 0 1 .14.23z" opacity="1" data-original="#ffe17d" class=""></path><path fill="#E6646E" d="M48.25 35.5A12.75 12.75 0 1 0 61 48.25 12.76 12.76 0 0 0 48.25 35.5z" opacity="1" data-original="#e6646e"></path><path fill="#5D5360" d="M46.8 53.84a1 1 0 0 1-.76-.35L42 48.71a1 1 0 0 1 1.53-1.29l3.25 3.82L53 43.06a1 1 0 1 1 1.59 1.21l-6.99 9.17a1 1 0 0 1-.77.4z" opacity="1" data-original="#5d5360" class=""></path><path d="M53.5 36.65V18a1 1 0 0 0-.5-.87l-24.25-14a1 1 0 0 0-1 0l-24.25 14A1 1 0 0 0 3 18v28a1 1 0 0 0 .5.87l24.25 14a1 1 0 0 0 1 0l9.11-5.26a12.74 12.74 0 1 0 15.64-19zM28.25 5.15 50.5 18l-11.16 6.44-20.66-13.76zm0 25.7L6 18l10.75-6.21L37.4 25.56zM5 19.73l22.25 12.85v25.69L5 45.42zm24.25 38.54V32.58l9-5.23v7.79a1 1 0 0 0 2 0V26.2l11.2-6.47v16.21a12.44 12.44 0 0 0-3.25-.44 12.73 12.73 0 0 0-11.37 18.39zm19 .73A10.75 10.75 0 1 1 59 48.25 10.76 10.76 0 0 1 48.25 59z" fill="#000000" opacity="1" data-original="#000000" class=""></path><path d="m53 43.06-6.2 8.18-3.25-3.82A1 1 0 0 0 42 48.71l4 4.78a1 1 0 0 0 .76.35 1 1 0 0 0 .77-.4l6.95-9.17A1 1 0 1 0 53 43.06z" fill="#000000" opacity="1" data-original="#000000" class=""></path></g></g></svg>