<svg xmlns="http://www.w3.org/2000/svg" xmlns:xlink="http://www.w3.org/1999/xlink" width="1183.879" height="162.432" viewBox="0 0 1183.879 162.432">
  <defs>
    <radialGradient id="radial-gradient" cx="0.497" cy="1.191" r="0.815" gradientTransform="translate(-0.334 9.789) scale(0.879 0.908)" gradientUnits="objectBoundingBox">
      <stop offset="0" stop-color="#ffd1a9"/>
      <stop offset="0.99" stop-color="#f99b98"/>
    </radialGradient>
    <radialGradient id="radial-gradient-2" cx="-3.011" cy="106.543" r="0.726" gradientTransform="translate(0.048) scale(0.904 1)" xlink:href="#radial-gradient"/>
    <radialGradient id="radial-gradient-3" cx="-3.235" cy="106.543" r="0.714" gradientTransform="translate(0.04) scale(0.92 1)" xlink:href="#radial-gradient"/>
    <radialGradient id="radial-gradient-4" cx="-3.307" cy="106.543" r="0.73" gradientTransform="translate(0.05) scale(0.9 1)" xlink:href="#radial-gradient"/>
    <radialGradient id="radial-gradient-5" cx="-3.357" cy="106.543" r="0.75" gradientTransform="translate(0.062) scale(0.875 1)" xlink:href="#radial-gradient"/>
    <clipPath id="clip-path">
      <path id="Path_507" data-name="Path 507" d="M22.33,64.938,101.223,1.194,167.774.71,129.489,68.471Z" transform="translate(-22.33 -0.71)" fill="none"/>
    </clipPath>
    <clipPath id="clip-path-2">
      <path id="Path_560" data-name="Path 560" d="M66.83,71.941,89.336.84,181.443.55l-9.148,73.327Z" transform="translate(-66.83 -0.55)" fill="none"/>
    </clipPath>
    <clipPath id="clip-path-3">
      <path id="Path_610" data-name="Path 610" d="M114,75,110.61.9,210.654.56,220,75Z" transform="translate(-110.61 -0.56)" fill="none"/>
    </clipPath>
    <clipPath id="clip-path-4">
      <path id="Path_663" data-name="Path 663" d="M175.979,75.193,150.23.607,240.013.22,284.2,73.257Z" transform="translate(-150.23 -0.22)" fill="none"/>
    </clipPath>
    <clipPath id="clip-path-5">
      <path id="Path_716" data-name="Path 716" d="M234,71.246,191.31.629,269.283,0,341.11,67.712Z" transform="translate(-191.31)" fill="none"/>
    </clipPath>
  </defs>
  <g id="shopFace" transform="translate(0 -7.75)">
    <g id="store" transform="translate(0 7.75)">
      <path id="Path_443" data-name="Path 443" d="M65.534,112.051h0c-29.04,0-54.838-17.279-57.645-38.72L0,13.12H107.643l6.389,60.356C116.161,94.82,94.575,112.051,65.534,112.051Z" transform="translate(0 50.382)" fill="#635599" fill-rule="evenodd"/>
      <path id="Path_444" data-name="Path 444" d="M85.306,112.051h0c-29.04,0-54.4-17.279-56.677-38.72L22.24,13.12H129.835l4.84,60.356C136.514,94.82,114.395,112.051,85.306,112.051Z" transform="translate(85.403 50.382)" fill-rule="evenodd" fill="url(#radial-gradient)"/>
      <path id="Path_445" data-name="Path 445" d="M105.078,112.166h0c-29.04,0-54.015-17.279-55.757-38.72L44.48,13.09H152.075l3.436,60.356C156.721,94.935,134.118,112.166,105.078,112.166Z" transform="translate(170.806 50.266)" fill="#635599" fill-rule="evenodd"/>
      <path id="Path_446" data-name="Path 446" d="M124.936,112.166h0c-29.04,0-53.579-17.279-54.789-38.72L66.71,13.09H174.3l1.984,60.356C176.967,94.935,153.976,112.166,124.936,112.166Z" transform="translate(256.17 50.266)" fill-rule="evenodd" fill="url(#radial-gradient-2)"/>
      <path id="Path_447" data-name="Path 447" d="M144.794,112.166h0c-29.04,0-53.241-17.279-53.87-38.72L88.94,13.09H196.583l.484,60.356C197.212,94.935,173.835,112.166,144.794,112.166Z" transform="translate(341.535 50.266)" fill="#635599" fill-rule="evenodd"/>
      <path id="Path_448" data-name="Path 448" d="M164.566,112.166h0c-29.04,0-52.757-17.279-52.9-38.72L111.18,13.09H218.823l-1.016,60.356C217.468,94.935,193.606,112.166,164.566,112.166Z" transform="translate(426.938 50.266)" fill-rule="evenodd" fill="url(#radial-gradient-3)"/>
      <path id="Path_449" data-name="Path 449" d="M185.147,112.166h0c-29.04,0-52.273-17.279-51.934-38.72l1.016-60.356H241.824l-2.468,60.356C238.678,94.935,214.477,112.166,185.147,112.166Z" transform="translate(511.532 50.266)" fill="#635599" fill-rule="evenodd"/>
      <path id="Path_450" data-name="Path 450" d="M206.173,112.166h0c-29.04,0-51.885-17.279-51.014-38.72l2.468-60.356H265.271L261.3,73.446C259.9,94.935,235.214,112.166,206.173,112.166Z" transform="translate(595.728 50.266)" fill-rule="evenodd" fill="url(#radial-gradient-4)"/>
      <path id="Path_451" data-name="Path 451" d="M227.166,112.166h0c-29.04,0-51.45-17.279-50.046-38.72l3.969-60.356H288.731l-5.469,60.5C281.326,94.935,256.206,112.166,227.166,112.166Z" transform="translate(679.91 50.266)" fill="#635599" fill-rule="evenodd"/>
      <path id="Path_452" data-name="Path 452" d="M248.221,112.166h0c-29.04,0-51.063-17.279-49.127-38.72l5.469-60.356H312.158l-6.921,60.356C302.768,94.935,277.261,112.166,248.221,112.166Z" transform="translate(764.078 50.266)" fill-rule="evenodd" fill="url(#radial-gradient-5)"/>
      <path id="Path_453" data-name="Path 453" d="M269.241,112.166h0c-29.04,0-50.627-17.279-48.159-38.72L228,13.09H335.647l-8.422,60.356C324.224,94.935,298.282,112.166,269.241,112.166Z" transform="translate(848.232 50.266)" fill="#635599" fill-rule="evenodd"/>
      <path id="Path_454" data-name="Path 454" d="M108.466,4.017,0,63.5c438.074,17.86,734.721,18.586,1183.879,0L1070.718,0Z" fill="#7262af" fill-rule="evenodd"/>
      <g id="Group_33" data-name="Group 33" transform="translate(108.079 3.436)" clip-path="url(#clip-path)">
        <rect id="Rectangle_20" data-name="Rectangle 20" width="145.444" height="67.761" fill="#f9c78c"/>
        <path id="Path_455" data-name="Path 455" d="M176.454,69.122V84.9H21.33V7.46H176.454Z" transform="translate(-26.17 -12.3)" fill="#f9c78c" fill-rule="evenodd"/>
        <path id="Path_456" data-name="Path 456" d="M176.454,69.026V84.9H21.33V7.46H176.454Z" transform="translate(-26.17 -12.3)" fill="#f9c88d" fill-rule="evenodd"/>
        <path id="Path_457" data-name="Path 457" d="M176.454,68.929V84.9H21.33V7.46H176.454Z" transform="translate(-26.17 -12.3)" fill="#f9c88e" fill-rule="evenodd"/>
        <path id="Path_458" data-name="Path 458" d="M176.454,68.832V84.9H21.33V7.46H176.454Z" transform="translate(-26.17 -12.3)" fill="#f9c98f" fill-rule="evenodd"/>
        <path id="Path_459" data-name="Path 459" d="M176.454,68.735V84.9H21.33V7.46H176.454Z" transform="translate(-26.17 -12.3)" fill="#f9ca90" fill-rule="evenodd"/>
        <path id="Path_460" data-name="Path 460" d="M176.454,68.638V84.9H21.33V7.46H176.454Z" transform="translate(-26.17 -12.3)" fill="#facb91" fill-rule="evenodd"/>
        <path id="Path_461" data-name="Path 461" d="M176.454,68.542V84.9H21.33V7.46H176.454Z" transform="translate(-26.17 -12.3)" fill="#facb92" fill-rule="evenodd"/>
        <path id="Path_462" data-name="Path 462" d="M176.454,68.445V84.9H21.33V7.46H176.454Z" transform="translate(-26.17 -12.3)" fill="#facc93" fill-rule="evenodd"/>
        <path id="Path_463" data-name="Path 463" d="M176.454,68.4V84.9H21.33V7.46H176.454Z" transform="translate(-26.17 -12.3)" fill="#facd94" fill-rule="evenodd"/>
        <path id="Path_464" data-name="Path 464" d="M176.454,68.251V84.9H21.33V7.46H176.454Z" transform="translate(-26.17 -12.3)" fill="#face95" fill-rule="evenodd"/>
        <path id="Path_465" data-name="Path 465" d="M176.454,68.2V84.9H21.33V7.46H176.454Z" transform="translate(-26.17 -12.3)" fill="#face96" fill-rule="evenodd"/>
        <path id="Path_466" data-name="Path 466" d="M176.454,68.106V84.9H21.33V7.46H176.454Z" transform="translate(-26.17 -12.3)" fill="#facf97" fill-rule="evenodd"/>
        <path id="Path_467" data-name="Path 467" d="M176.454,68.009V84.9H21.33V7.46H176.454Z" transform="translate(-26.17 -12.3)" fill="#fad098" fill-rule="evenodd"/>
        <path id="Path_468" data-name="Path 468" d="M176.454,67.912V84.9H21.33V7.46H176.454Z" transform="translate(-26.17 -12.3)" fill="#fbd099" fill-rule="evenodd"/>
        <path id="Path_469" data-name="Path 469" d="M176.454,67.816V84.9H21.33V7.46H176.454Z" transform="translate(-26.17 -12.3)" fill="#fbd19a" fill-rule="evenodd"/>
        <path id="Path_470" data-name="Path 470" d="M176.454,67.719V84.9H21.33V7.46H176.454Z" transform="translate(-26.17 -12.3)" fill="#fbd29b" fill-rule="evenodd"/>
        <path id="Path_471" data-name="Path 471" d="M176.454,67.622V84.9H21.33V7.46H176.454Z" transform="translate(-26.17 -12.3)" fill="#fbd39c" fill-rule="evenodd"/>
        <path id="Path_472" data-name="Path 472" d="M176.454,67.525V84.9H21.33V7.46H176.454Z" transform="translate(-26.17 -12.3)" fill="#fbd39d" fill-rule="evenodd"/>
        <path id="Path_473" data-name="Path 473" d="M173.6,61.406V78.879H31.645v31.7A160.932,160.932,0,0,1,32.371-.74V1.244H173.6Z" transform="translate(-23.32 -6.278)" fill="#fbd49e" fill-rule="evenodd"/>
        <path id="Path_474" data-name="Path 474" d="M162.147,59.774V77.343H34.466v30.444A156.624,156.624,0,0,1,34.9-.34V-.1H162.147Z" transform="translate(-11.863 -4.742)" fill="#fbd59f" fill-rule="evenodd"/>
        <path id="Path_475" data-name="Path 475" d="M150.842,77.955V95.622H36.955v28.653A153.575,153.575,0,0,1,28,71.905a154.253,154.253,0,0,1,9.68-52.321A170.514,170.514,0,0,1,49.1-5.1V18.181H150.745Z" transform="translate(-0.558 -23.021)" fill="#fbd6a0" fill-rule="evenodd"/>
        <path id="Path_476" data-name="Path 476" d="M139.323,75.86V93.623H39.473v27.1A150.01,150.01,0,0,1,40.1,19.57,172.932,172.932,0,0,1,51.234-4.63V16.182h88.089Z" transform="translate(10.961 -21.216)" fill="#fbd6a1" fill-rule="evenodd"/>
        <path id="Path_477" data-name="Path 477" d="M128.147,73.71V91.57H42.333v25.7a142.093,142.093,0,0,1,.629-98.108A161.807,161.807,0,0,1,53.707-4.07v18.3h74.44Z" transform="translate(22.137 -19.065)" fill="#fcd7a2" fill-rule="evenodd"/>
        <path id="Path_478" data-name="Path 478" d="M116.78,71.559V89.516H45v24.2a139.249,139.249,0,0,1-8.131-47.433,137.6,137.6,0,0,1,8.761-47.336A158.948,158.948,0,0,1,55.989-3.51V12.075H116.78Z" transform="translate(33.504 -16.915)" fill="#fcd8a3" fill-rule="evenodd"/>
        <path id="Path_479" data-name="Path 479" d="M105.414,69.6V87.654H47.672v22.458a132.86,132.86,0,0,1,.581-91.525A158.7,158.7,0,0,1,58.272-3V10.117h47.142Z" transform="translate(44.87 -14.957)" fill="#fcd8a4" fill-rule="evenodd"/>
        <path id="Path_480" data-name="Path 480" d="M93.933,83.656v18.15H50.372v20.57a128.455,128.455,0,0,1-7.551-44.141A141.523,141.523,0,0,1,73.6-6.66V24.171H93.933Z" transform="translate(56.351 -29.011)" fill="#fcd9a5" fill-rule="evenodd"/>
        <path id="Path_481" data-name="Path 481" d="M82.719,80.831V99.078H53.049v19.36a124.293,124.293,0,0,1-7.308-42.544A136.3,136.3,0,0,1,75.556-6V21.588h7.163Z" transform="translate(67.565 -26.477)" fill="#fcdaa7" fill-rule="evenodd"/>
        <path id="Path_482" data-name="Path 482" d="M71.352,78.123V96.466H55.718v17.86A119.355,119.355,0,0,1,48.7,73.67,131.359,131.359,0,0,1,77.354-5.32l-6,24.2Z" transform="translate(78.932 -23.866)" fill="#fcdba8" fill-rule="evenodd"/>
        <path id="Path_483" data-name="Path 483" d="M59.985,75.453V93.894h-1.6V110.2A114.661,114.661,0,0,1,51.661,71.1,126.084,126.084,0,0,1,79.152-4.65l-19.36,21.1Z" transform="translate(90.298 -21.293)" fill="#fcdba9" fill-rule="evenodd"/>
        <path id="Path_484" data-name="Path 484" d="M53.38,11.88Z" transform="translate(96.904 42.183)" fill="#fcdcaa" fill-rule="evenodd"/>
        <path id="Path_485" data-name="Path 485" d="M53.38,11.86Z" transform="translate(96.904 42.107)" fill="#fdddab" fill-rule="evenodd"/>
        <path id="Path_486" data-name="Path 486" d="M53.38,11.84Z" transform="translate(96.904 42.03)" fill="#fdddac" fill-rule="evenodd"/>
        <path id="Path_487" data-name="Path 487" d="M53.38,11.82Z" transform="translate(96.904 41.953)" fill="#fddead" fill-rule="evenodd"/>
        <path id="Path_488" data-name="Path 488" d="M53.38,11.8Z" transform="translate(96.904 41.876)" fill="#fddfae" fill-rule="evenodd"/>
        <path id="Path_489" data-name="Path 489" d="M53.38,11.78Z" transform="translate(96.904 41.799)" fill="#fde0af" fill-rule="evenodd"/>
        <path id="Path_490" data-name="Path 490" d="M53.38,11.76Z" transform="translate(96.904 41.723)" fill="#fde0b0" fill-rule="evenodd"/>
        <path id="Path_491" data-name="Path 491" d="M53.38,11.75Z" transform="translate(96.904 41.684)" fill="#fde1b1" fill-rule="evenodd"/>
        <path id="Path_492" data-name="Path 492" d="M53.38,11.73Z" transform="translate(96.904 41.607)" fill="#fde2b2" fill-rule="evenodd"/>
        <path id="Path_493" data-name="Path 493" d="M53.38,11.71Z" transform="translate(96.904 41.531)" fill="#fde3b3" fill-rule="evenodd"/>
        <path id="Path_494" data-name="Path 494" d="M53.38,11.69Z" transform="translate(96.904 41.454)" fill="#fee3b4" fill-rule="evenodd"/>
        <path id="Path_495" data-name="Path 495" d="M53.38,11.67Z" transform="translate(96.904 41.377)" fill="#fee4b5" fill-rule="evenodd"/>
        <path id="Path_496" data-name="Path 496" d="M53.38,11.65Z" transform="translate(96.904 41.3)" fill="#fee5b6" fill-rule="evenodd"/>
        <path id="Path_497" data-name="Path 497" d="M53.38,11.63Z" transform="translate(96.904 41.223)" fill="#fee5b7" fill-rule="evenodd"/>
        <path id="Path_498" data-name="Path 498" d="M53.38,11.61Z" transform="translate(96.904 41.147)" fill="#fee6b8" fill-rule="evenodd"/>
        <path id="Path_499" data-name="Path 499" d="M53.38,11.59Z" transform="translate(96.904 41.07)" fill="#fee7b9" fill-rule="evenodd"/>
        <path id="Path_500" data-name="Path 500" d="M53.38,11.57Z" transform="translate(96.904 40.993)" fill="#fee8ba" fill-rule="evenodd"/>
        <path id="Path_501" data-name="Path 501" d="M53.38,11.55Z" transform="translate(96.904 40.916)" fill="#fee8bb" fill-rule="evenodd"/>
        <path id="Path_502" data-name="Path 502" d="M53.38,11.53Z" transform="translate(96.904 40.839)" fill="#ffe9bc" fill-rule="evenodd"/>
        <path id="Path_503" data-name="Path 503" d="M53.38,11.51Z" transform="translate(96.904 40.763)" fill="#ffeabd" fill-rule="evenodd"/>
        <path id="Path_504" data-name="Path 504" d="M53.38,11.49Z" transform="translate(96.904 40.686)" fill="#ffebbe" fill-rule="evenodd"/>
        <path id="Path_505" data-name="Path 505" d="M53.38,11.47Z" transform="translate(96.904 40.609)" fill="#ffebbf" fill-rule="evenodd"/>
        <path id="Path_506" data-name="Path 506" d="M53.38,11.45Z" transform="translate(96.904 40.532)" fill="#ffecc0" fill-rule="evenodd"/>
      </g>
      <g id="Group_34" data-name="Group 34" transform="translate(323.461 2.662)" clip-path="url(#clip-path-2)">
        <rect id="Rectangle_21" data-name="Rectangle 21" width="114.613" height="73.327" fill="#f9c78c"/>
        <path id="Path_508" data-name="Path 508" d="M190.123,73.464V90.307H65.83V7.3H190.123Z" transform="translate(-70.67 -12.14)" fill="#f9c78c" fill-rule="evenodd"/>
        <path id="Path_509" data-name="Path 509" d="M190.123,73.367v16.94H65.83V7.3H190.123Z" transform="translate(-70.67 -12.14)" fill="#f9c88d" fill-rule="evenodd"/>
        <path id="Path_510" data-name="Path 510" d="M190.123,73.27V90.307H65.83V7.3H190.123Z" transform="translate(-70.67 -12.14)" fill="#f9c88e" fill-rule="evenodd"/>
        <path id="Path_511" data-name="Path 511" d="M190.123,73.173V90.307H65.83V7.3H190.123Z" transform="translate(-70.67 -12.14)" fill="#f9c98f" fill-rule="evenodd"/>
        <path id="Path_512" data-name="Path 512" d="M190.123,73.076V90.307H65.83V7.3H190.123Z" transform="translate(-70.67 -12.14)" fill="#f9ca90" fill-rule="evenodd"/>
        <path id="Path_513" data-name="Path 513" d="M190.123,72.98V90.307H65.83V7.3H190.123Z" transform="translate(-70.67 -12.14)" fill="#facb91" fill-rule="evenodd"/>
        <path id="Path_514" data-name="Path 514" d="M190.123,72.883V90.307H65.83V7.3H190.123Z" transform="translate(-70.67 -12.14)" fill="#facb92" fill-rule="evenodd"/>
        <path id="Path_515" data-name="Path 515" d="M190.123,72.786V90.307H65.83V7.3H190.123Z" transform="translate(-70.67 -12.14)" fill="#facc93" fill-rule="evenodd"/>
        <path id="Path_516" data-name="Path 516" d="M190.123,72.689V90.307H65.83V7.3H190.123Z" transform="translate(-70.67 -12.14)" fill="#facd94" fill-rule="evenodd"/>
        <path id="Path_517" data-name="Path 517" d="M190.123,72.592V90.307H65.83V7.3H190.123Z" transform="translate(-70.67 -12.14)" fill="#face95" fill-rule="evenodd"/>
        <path id="Path_518" data-name="Path 518" d="M190.123,72.5V90.307H65.83V7.3H190.123Z" transform="translate(-70.67 -12.14)" fill="#face96" fill-rule="evenodd"/>
        <path id="Path_519" data-name="Path 519" d="M190.123,72.4V90.307H65.83V7.3H190.123Z" transform="translate(-70.67 -12.14)" fill="#facf97" fill-rule="evenodd"/>
        <path id="Path_520" data-name="Path 520" d="M190.123,72.3V90.307H65.83V7.3H190.123Z" transform="translate(-70.67 -12.14)" fill="#fad098" fill-rule="evenodd"/>
        <path id="Path_521" data-name="Path 521" d="M190.123,72.205v18.1H65.83V7.3H190.123Z" transform="translate(-70.67 -12.14)" fill="#fbd099" fill-rule="evenodd"/>
        <path id="Path_522" data-name="Path 522" d="M190.123,72.108v18.2H65.83V7.3H190.123Z" transform="translate(-70.67 -12.14)" fill="#fbd19a" fill-rule="evenodd"/>
        <path id="Path_523" data-name="Path 523" d="M190.123,72.06V90.307H65.83V7.3H190.123Z" transform="translate(-70.67 -12.14)" fill="#fbd29b" fill-rule="evenodd"/>
        <path id="Path_524" data-name="Path 524" d="M190.123,71.963V90.307H65.83V7.3H190.123Z" transform="translate(-70.67 -12.14)" fill="#fbd39c" fill-rule="evenodd"/>
        <path id="Path_525" data-name="Path 525" d="M190.123,71.866V90.307H65.83V7.3H190.123Z" transform="translate(-70.67 -12.14)" fill="#fbd39d" fill-rule="evenodd"/>
        <path id="Path_526" data-name="Path 526" d="M190.123,71.77V90.307H65.83V7.3H190.123Z" transform="translate(-70.67 -12.14)" fill="#fbd49e" fill-rule="evenodd"/>
        <path id="Path_527" data-name="Path 527" d="M190.123,71.673V90.307H65.83V7.3H190.123Z" transform="translate(-70.67 -12.14)" fill="#fbd59f" fill-rule="evenodd"/>
        <path id="Path_528" data-name="Path 528" d="M190.123,71.576V90.307H65.83V7.3H190.123Z" transform="translate(-70.67 -12.14)" fill="#fbd6a0" fill-rule="evenodd"/>
        <path id="Path_529" data-name="Path 529" d="M190.123,71.479V90.307H65.83V7.3H190.123Z" transform="translate(-70.67 -12.14)" fill="#fbd6a1" fill-rule="evenodd"/>
        <path id="Path_530" data-name="Path 530" d="M190.123,71.382V90.307H65.83V7.3H190.123Z" transform="translate(-70.67 -12.14)" fill="#fcd7a2" fill-rule="evenodd"/>
        <path id="Path_531" data-name="Path 531" d="M190.123,71.286V90.307H65.83V7.3H190.123Z" transform="translate(-70.67 -12.14)" fill="#fcd8a3" fill-rule="evenodd"/>
        <path id="Path_532" data-name="Path 532" d="M190.123,71.189V90.307H65.83V7.3H190.123Z" transform="translate(-70.67 -12.14)" fill="#fcd8a4" fill-rule="evenodd"/>
        <path id="Path_533" data-name="Path 533" d="M190.123,71.092V90.307H65.83V7.3H190.123Z" transform="translate(-70.67 -12.14)" fill="#fcd9a5" fill-rule="evenodd"/>
        <path id="Path_534" data-name="Path 534" d="M190.123,71V90.307H65.83V7.3H190.123Z" transform="translate(-70.67 -12.14)" fill="#fcdaa7" fill-rule="evenodd"/>
        <path id="Path_535" data-name="Path 535" d="M190.123,70.9V90.307H65.83V7.3H190.123Z" transform="translate(-70.67 -12.14)" fill="#fcdba8" fill-rule="evenodd"/>
        <path id="Path_536" data-name="Path 536" d="M190.123,70.8V90.307H65.83V7.3H190.123Z" transform="translate(-70.67 -12.14)" fill="#fcdba9" fill-rule="evenodd"/>
        <path id="Path_537" data-name="Path 537" d="M190.123,70.7v19.6H65.83V7.3H190.123Z" transform="translate(-70.67 -12.14)" fill="#fcdcaa" fill-rule="evenodd"/>
        <path id="Path_538" data-name="Path 538" d="M190.123,70.608v19.7H65.83V7.3H190.123Z" transform="translate(-70.67 -12.14)" fill="#fdddab" fill-rule="evenodd"/>
        <path id="Path_539" data-name="Path 539" d="M190.123,70.511v19.8H65.83V7.3H190.123Z" transform="translate(-70.67 -12.14)" fill="#fdddac" fill-rule="evenodd"/>
        <path id="Path_540" data-name="Path 540" d="M199.147,65.506V85.4H74.854V61.731H63.48A104.981,104.981,0,0,1,86.422-1.19V2.488H199.147Z" transform="translate(-79.694 -7.232)" fill="#fddead" fill-rule="evenodd"/>
        <path id="Path_541" data-name="Path 541" d="M187.9,62.913V82.9H71.734v7.55A92.251,92.251,0,0,1,66.41,59.332,99.463,99.463,0,0,1,88.626-.54V-.1H187.9Z" transform="translate(-68.443 -4.736)" fill="#fddfae" fill-rule="evenodd"/>
        <path id="Path_542" data-name="Path 542" d="M176.414,79.828V99.914H89.293v33.493A94.575,94.575,0,0,1,69.4,76.44,94.527,94.527,0,0,1,90.067,19.714a147.186,147.186,0,0,1,24.2-24.684V16.907h62.146Z" transform="translate(-56.961 -21.747)" fill="#fde0af" fill-rule="evenodd"/>
        <path id="Path_543" data-name="Path 543" d="M165.047,76.006V96.189H91.188v30.492A89.348,89.348,0,0,1,72.36,72.86,89.251,89.251,0,0,1,91.865,19.232,140.365,140.365,0,0,1,114.517-4V13.182h50.53Z" transform="translate(-45.594 -18.022)" fill="#fde0b0" fill-rule="evenodd"/>
        <path id="Path_544" data-name="Path 544" d="M153.565,87.391v20.28H93.016v27.395A83.782,83.782,0,0,1,75.35,84.39c0-35.865,26.088-68.148,67.761-91.38V24.664h10.551Z" transform="translate(-34.113 -29.504)" fill="#fde1b1" fill-rule="evenodd"/>
        <path id="Path_545" data-name="Path 545" d="M142.276,82.763V103.14H94.843v24.2A78.312,78.312,0,0,1,78.29,79.859c0-33.638,24.2-63.937,63.5-85.669V20.133h.484Z" transform="translate(-22.823 -24.973)" fill="#fde2b2" fill-rule="evenodd"/>
        <path id="Path_546" data-name="Path 546" d="M130.909,77.981V98.455H96.69V119.7A73.86,73.86,0,0,1,81.25,75.368c.194-31.412,22.99-59.678,59.291-79.958l-9.68,20.038Z" transform="translate(-11.456 -20.288)" fill="#fde3b3" fill-rule="evenodd"/>
        <path id="Path_547" data-name="Path 547" d="M119.658,73.277v20.57H98.7V112A68.148,68.148,0,0,1,84.18,70.857c0-29.04,21.2-55.419,55.032-74.247L119.658,10.84Z" transform="translate(-0.205 -15.68)" fill="#fee3b4" fill-rule="evenodd"/>
        <path id="Path_548" data-name="Path 548" d="M108.176,68.495V89.162h-7.744v15.1A62.92,62.92,0,0,1,87.17,66.414c0-26.911,19.36-51.159,50.821-68.584L108.176,6.155Z" transform="translate(11.277 -10.995)" fill="#fee4b5" fill-rule="evenodd"/>
        <path id="Path_549" data-name="Path 549" d="M96.809,41.479V62.243l5.469,12A57.742,57.742,0,0,1,90.13,39.495,57.693,57.693,0,0,1,102.763,4.84H96.809Z" transform="translate(22.643 15.924)" fill="#fee5b6" fill-rule="evenodd"/>
        <path id="Path_550" data-name="Path 550" d="M91.51,12.39Z" transform="translate(27.943 44.916)" fill="#fee5b7" fill-rule="evenodd"/>
        <path id="Path_551" data-name="Path 551" d="M91.51,12.37Z" transform="translate(27.943 44.84)" fill="#fee6b8" fill-rule="evenodd"/>
        <path id="Path_552" data-name="Path 552" d="M91.51,12.36Z" transform="translate(27.943 44.801)" fill="#fee7b9" fill-rule="evenodd"/>
        <path id="Path_553" data-name="Path 553" d="M91.51,12.34Z" transform="translate(27.943 44.724)" fill="#fee8ba" fill-rule="evenodd"/>
        <path id="Path_554" data-name="Path 554" d="M91.51,12.32Z" transform="translate(27.943 44.648)" fill="#fee8bb" fill-rule="evenodd"/>
        <path id="Path_555" data-name="Path 555" d="M91.51,12.3Z" transform="translate(27.943 44.571)" fill="#ffe9bc" fill-rule="evenodd"/>
        <path id="Path_556" data-name="Path 556" d="M91.51,12.28Z" transform="translate(27.943 44.494)" fill="#ffeabd" fill-rule="evenodd"/>
        <path id="Path_557" data-name="Path 557" d="M91.51,12.26Z" transform="translate(27.943 44.417)" fill="#ffebbe" fill-rule="evenodd"/>
        <path id="Path_558" data-name="Path 558" d="M91.51,12.24Z" transform="translate(27.943 44.34)" fill="#ffebbf" fill-rule="evenodd"/>
        <path id="Path_559" data-name="Path 559" d="M91.51,12.22Z" transform="translate(27.943 44.263)" fill="#ffecc0" fill-rule="evenodd"/>
      </g>
      <g id="Group_35" data-name="Group 35" transform="translate(535.359 2.71)" clip-path="url(#clip-path-3)">
        <rect id="Rectangle_22" data-name="Rectangle 22" width="109.337" height="74.44" fill="#f9c78c"/>
        <path id="Path_561" data-name="Path 561" d="M228.676,74.442V91.479H109.61V7.31H228.676Z" transform="translate(-114.45 -12.15)" fill="#f9c78c" fill-rule="evenodd"/>
        <path id="Path_562" data-name="Path 562" d="M228.676,74.345V91.479H109.61V7.31H228.676Z" transform="translate(-114.45 -12.15)" fill="#f9c88d" fill-rule="evenodd"/>
        <path id="Path_563" data-name="Path 563" d="M228.676,74.248V91.479H109.61V7.31H228.676Z" transform="translate(-114.45 -12.15)" fill="#f9c88e" fill-rule="evenodd"/>
        <path id="Path_564" data-name="Path 564" d="M228.676,74.151V91.479H109.61V7.31H228.676Z" transform="translate(-114.45 -12.15)" fill="#f9c98f" fill-rule="evenodd"/>
        <path id="Path_565" data-name="Path 565" d="M228.676,74.054V91.479H109.61V7.31H228.676Z" transform="translate(-114.45 -12.15)" fill="#f9ca90" fill-rule="evenodd"/>
        <path id="Path_566" data-name="Path 566" d="M228.676,73.958V91.479H109.61V7.31H228.676Z" transform="translate(-114.45 -12.15)" fill="#facb91" fill-rule="evenodd"/>
        <path id="Path_567" data-name="Path 567" d="M228.676,73.861V91.479H109.61V7.31H228.676Z" transform="translate(-114.45 -12.15)" fill="#facb92" fill-rule="evenodd"/>
        <path id="Path_568" data-name="Path 568" d="M228.676,73.764V91.479H109.61V7.31H228.676Z" transform="translate(-114.45 -12.15)" fill="#facc93" fill-rule="evenodd"/>
        <path id="Path_569" data-name="Path 569" d="M228.676,73.667V91.479H109.61V7.31H228.676Z" transform="translate(-114.45 -12.15)" fill="#facd94" fill-rule="evenodd"/>
        <path id="Path_570" data-name="Path 570" d="M228.676,73.57V91.479H109.61V7.31H228.676Z" transform="translate(-114.45 -12.15)" fill="#face95" fill-rule="evenodd"/>
        <path id="Path_571" data-name="Path 571" d="M228.676,73.474V91.479H109.61V7.31H228.676Z" transform="translate(-114.45 -12.15)" fill="#face96" fill-rule="evenodd"/>
        <path id="Path_572" data-name="Path 572" d="M228.676,73.377v18.1H109.61V7.31H228.676Z" transform="translate(-114.45 -12.15)" fill="#facf97" fill-rule="evenodd"/>
        <path id="Path_573" data-name="Path 573" d="M228.676,73.28v18.2H109.61V7.31H228.676Z" transform="translate(-114.45 -12.15)" fill="#fad098" fill-rule="evenodd"/>
        <path id="Path_574" data-name="Path 574" d="M228.676,73.183v18.3H109.61V7.31H228.676Z" transform="translate(-114.45 -12.15)" fill="#fbd099" fill-rule="evenodd"/>
        <path id="Path_575" data-name="Path 575" d="M228.676,73.086V91.479H109.61V7.31H228.676Z" transform="translate(-114.45 -12.15)" fill="#fbd19a" fill-rule="evenodd"/>
        <path id="Path_576" data-name="Path 576" d="M228.676,72.99V91.479H109.61V7.31H228.676Z" transform="translate(-114.45 -12.15)" fill="#fbd29b" fill-rule="evenodd"/>
        <path id="Path_577" data-name="Path 577" d="M228.676,72.893V91.479H109.61V7.31H228.676Z" transform="translate(-114.45 -12.15)" fill="#fbd39c" fill-rule="evenodd"/>
        <path id="Path_578" data-name="Path 578" d="M228.676,72.8V91.479H109.61V7.31H228.676Z" transform="translate(-114.45 -12.15)" fill="#fbd39d" fill-rule="evenodd"/>
        <path id="Path_579" data-name="Path 579" d="M228.676,72.7V91.479H109.61V7.31H228.676Z" transform="translate(-114.45 -12.15)" fill="#fbd49e" fill-rule="evenodd"/>
        <path id="Path_580" data-name="Path 580" d="M228.676,72.6V91.479H109.61V7.31H228.676Z" transform="translate(-114.45 -12.15)" fill="#fbd59f" fill-rule="evenodd"/>
        <path id="Path_581" data-name="Path 581" d="M228.676,72.506V91.479H109.61V7.31H228.676Z" transform="translate(-114.45 -12.15)" fill="#fbd6a0" fill-rule="evenodd"/>
        <path id="Path_582" data-name="Path 582" d="M228.676,72.409v19.07H109.61V7.31H228.676Z" transform="translate(-114.45 -12.15)" fill="#fbd6a1" fill-rule="evenodd"/>
        <path id="Path_583" data-name="Path 583" d="M228.676,72.312V91.479H109.61V7.31H228.676Z" transform="translate(-114.45 -12.15)" fill="#fcd7a2" fill-rule="evenodd"/>
        <path id="Path_584" data-name="Path 584" d="M228.676,72.215V91.479H109.61V7.31H228.676Z" transform="translate(-114.45 -12.15)" fill="#fcd8a3" fill-rule="evenodd"/>
        <path id="Path_585" data-name="Path 585" d="M228.676,72.118v19.36H109.61V7.31H228.676Z" transform="translate(-114.45 -12.15)" fill="#fcd8a4" fill-rule="evenodd"/>
        <path id="Path_586" data-name="Path 586" d="M228.676,72.022V91.479H109.61V7.31H228.676Z" transform="translate(-114.45 -12.15)" fill="#fcd9a5" fill-rule="evenodd"/>
        <path id="Path_587" data-name="Path 587" d="M228.676,71.925V91.479H109.61V7.31H228.676Z" transform="translate(-114.45 -12.15)" fill="#fcdaa7" fill-rule="evenodd"/>
        <path id="Path_588" data-name="Path 588" d="M228.676,71.828V91.479H109.61V7.31H228.676Z" transform="translate(-114.45 -12.15)" fill="#fcdba8" fill-rule="evenodd"/>
        <path id="Path_589" data-name="Path 589" d="M228.676,71.731V91.479H109.61V7.31H228.676Z" transform="translate(-114.45 -12.15)" fill="#fcdba9" fill-rule="evenodd"/>
        <path id="Path_590" data-name="Path 590" d="M228.676,71.634V91.479H109.61V7.31H228.676Z" transform="translate(-114.45 -12.15)" fill="#fcdcaa" fill-rule="evenodd"/>
        <path id="Path_591" data-name="Path 591" d="M228.676,71.538V91.479H109.61V7.31H228.676Z" transform="translate(-114.45 -12.15)" fill="#fdddab" fill-rule="evenodd"/>
        <path id="Path_592" data-name="Path 592" d="M228.676,71.441V91.479H109.61V7.31H228.676Z" transform="translate(-114.45 -12.15)" fill="#fdddac" fill-rule="evenodd"/>
        <path id="Path_593" data-name="Path 593" d="M228.676,71.344V91.479H109.61V7.31H228.676Z" transform="translate(-114.45 -12.15)" fill="#fddead" fill-rule="evenodd"/>
        <path id="Path_594" data-name="Path 594" d="M228.676,71.247V91.479H109.61V7.31H228.676Z" transform="translate(-114.45 -12.15)" fill="#fddfae" fill-rule="evenodd"/>
        <path id="Path_595" data-name="Path 595" d="M228.676,71.15V91.479H109.61V7.31H228.676Z" transform="translate(-114.45 -12.15)" fill="#fde0af" fill-rule="evenodd"/>
        <path id="Path_596" data-name="Path 596" d="M228.676,71.054V91.479H109.61V7.31H228.676Z" transform="translate(-114.45 -12.15)" fill="#fde0b0" fill-rule="evenodd"/>
        <path id="Path_597" data-name="Path 597" d="M228.676,70.957V91.479H109.61V7.31H228.676Z" transform="translate(-114.45 -12.15)" fill="#fde1b1" fill-rule="evenodd"/>
        <path id="Path_598" data-name="Path 598" d="M228.676,70.86V91.479H109.61V7.31H228.676Z" transform="translate(-114.45 -12.15)" fill="#fde2b2" fill-rule="evenodd"/>
        <path id="Path_599" data-name="Path 599" d="M228.676,70.763V91.479H109.61V7.31H228.676Z" transform="translate(-114.45 -12.15)" fill="#fde3b3" fill-rule="evenodd"/>
        <path id="Path_600" data-name="Path 600" d="M228.676,70.666V91.479H109.61V7.31H228.676Z" transform="translate(-114.45 -12.15)" fill="#fee3b4" fill-rule="evenodd"/>
        <path id="Path_601" data-name="Path 601" d="M228.676,70.57V91.479H109.61V7.31H228.676Z" transform="translate(-114.45 -12.15)" fill="#fee4b5" fill-rule="evenodd"/>
        <path id="Path_602" data-name="Path 602" d="M228.676,70.473V91.479H109.61V7.31H228.676Z" transform="translate(-114.45 -12.15)" fill="#fee5b6" fill-rule="evenodd"/>
        <path id="Path_603" data-name="Path 603" d="M228.676,70.376v21.1H109.61V7.31H228.676Z" transform="translate(-114.45 -12.15)" fill="#fee5b7" fill-rule="evenodd"/>
        <path id="Path_604" data-name="Path 604" d="M252.138,72.709V93.861H133.073V18.21H103.5c24.2-13.359,57.161-21.538,93.7-21.3V9.74h51.45V3.109a192.919,192.919,0,0,1,22.409,7.066H252.138Z" transform="translate(-137.913 -14.58)" fill="#fee6b8" fill-rule="evenodd"/>
        <path id="Path_605" data-name="Path 605" d="M244.036,66.056V87.3H124.97v-69.7H105.61a171.919,171.919,0,0,1,83.3-18.925A171.628,171.628,0,0,1,272.06,18.72H244.036Z" transform="translate(-129.81 -8.023)" fill="#fee7b9" fill-rule="evenodd"/>
        <path id="Path_606" data-name="Path 606" d="M235.7,59.348V80.693H116.637V17H107.78A150.042,150.042,0,0,1,180.671.4a150.574,150.574,0,0,1,72.6,17.521H235.7Z" transform="translate(-121.477 -1.413)" fill="#fee8ba" fill-rule="evenodd"/>
        <ellipse id="Ellipse_42" data-name="Ellipse 42" cx="49.949" cy="88.186" rx="49.949" ry="88.186" transform="translate(-29.691 106.596) rotate(-89.62)" fill="#fee8bb"/>
        <ellipse id="Ellipse_43" data-name="Ellipse 43" cx="41.625" cy="73.472" rx="41.625" ry="73.472" transform="translate(-14.922 98.368) rotate(-89.62)" fill="#ffe9bc"/>
        <path id="Path_607" data-name="Path 607" d="M228.175,39.353c0,18.392-26.523,33.106-59,32.912s-58.662-15.295-58.565-33.88,26.524-33.154,59-32.912S228.32,20.961,228.175,39.353Z" transform="translate(-110.61 18.292)" fill="#ffeabd" fill-rule="evenodd"/>
        <path id="Path_608" data-name="Path 608" d="M201.836,32.5c0,13.794-19.941,24.83-44.287,24.684s-44-11.471-43.9-25.265S133.543,7.038,157.888,7.232,201.933,18.7,201.836,32.5Z" transform="translate(-98.937 25.051)" fill="#ffebbe" fill-rule="evenodd"/>
        <path id="Path_609" data-name="Path 609" d="M175.3,25.794c0,9.2-13.262,16.553-29.524,16.456s-29.331-7.647-29.04-16.843,13.31-16.553,29.524-16.456S175.347,16.6,175.3,25.794Z" transform="translate(-87.113 31.657)" fill="#ffebbf" fill-rule="evenodd"/>
        <ellipse id="Ellipse_44" data-name="Ellipse 44" cx="8.325" cy="14.714" rx="8.325" ry="14.714" transform="translate(44.056 65.459) rotate(-89.62)" fill="#ffecc0"/>
      </g>
      <g id="Group_36" data-name="Group 36" transform="translate(727.122 1.065)" clip-path="url(#clip-path-4)">
        <rect id="Rectangle_23" data-name="Rectangle 23" width="133.973" height="74.973" fill="#f9c78c"/>
        <path id="Path_611" data-name="Path 611" d="M292.883,74.876V91.671H149.23V6.97H292.883Z" transform="translate(-154.07 -11.81)" fill="#f9c78c" fill-rule="evenodd"/>
        <path id="Path_612" data-name="Path 612" d="M292.883,74.779V91.671H149.23V6.97H292.883Z" transform="translate(-154.07 -11.81)" fill="#f9c88d" fill-rule="evenodd"/>
        <path id="Path_613" data-name="Path 613" d="M292.883,74.682V91.671H149.23V6.97H292.883Z" transform="translate(-154.07 -11.81)" fill="#f9c88e" fill-rule="evenodd"/>
        <path id="Path_614" data-name="Path 614" d="M292.883,74.586V91.671H149.23V6.97H292.883Z" transform="translate(-154.07 -11.81)" fill="#f9c98f" fill-rule="evenodd"/>
        <path id="Path_615" data-name="Path 615" d="M292.883,74.489V91.671H149.23V6.97H292.883Z" transform="translate(-154.07 -11.81)" fill="#f9ca90" fill-rule="evenodd"/>
        <path id="Path_616" data-name="Path 616" d="M292.883,74.392V91.671H149.23V6.97H292.883Z" transform="translate(-154.07 -11.81)" fill="#facb91" fill-rule="evenodd"/>
        <path id="Path_617" data-name="Path 617" d="M292.883,74.3V91.671H149.23V6.97H292.883Z" transform="translate(-154.07 -11.81)" fill="#facb92" fill-rule="evenodd"/>
        <path id="Path_618" data-name="Path 618" d="M292.883,74.2V91.671H149.23V6.97H292.883Z" transform="translate(-154.07 -11.81)" fill="#facc93" fill-rule="evenodd"/>
        <path id="Path_619" data-name="Path 619" d="M292.883,74.1V91.671H149.23V6.97H292.883Z" transform="translate(-154.07 -11.81)" fill="#facd94" fill-rule="evenodd"/>
        <path id="Path_620" data-name="Path 620" d="M292.883,74V91.671H149.23V6.97H292.883Z" transform="translate(-154.07 -11.81)" fill="#face95" fill-rule="evenodd"/>
        <path id="Path_621" data-name="Path 621" d="M292.883,73.908V91.671H149.23V6.97H292.883Z" transform="translate(-154.07 -11.81)" fill="#face96" fill-rule="evenodd"/>
        <path id="Path_622" data-name="Path 622" d="M292.883,73.811v17.86H149.23V6.97H292.883Z" transform="translate(-154.07 -11.81)" fill="#facf97" fill-rule="evenodd"/>
        <path id="Path_623" data-name="Path 623" d="M292.883,73.714V91.671H149.23V6.97H292.883Z" transform="translate(-154.07 -11.81)" fill="#fad098" fill-rule="evenodd"/>
        <path id="Path_624" data-name="Path 624" d="M292.883,73.618V91.671H149.23V6.97H292.883Z" transform="translate(-154.07 -11.81)" fill="#fbd099" fill-rule="evenodd"/>
        <path id="Path_625" data-name="Path 625" d="M292.883,73.521v18.15H149.23V6.97H292.883Z" transform="translate(-154.07 -11.81)" fill="#fbd19a" fill-rule="evenodd"/>
        <path id="Path_626" data-name="Path 626" d="M292.883,73.424V91.671H149.23V6.97H292.883Z" transform="translate(-154.07 -11.81)" fill="#fbd29b" fill-rule="evenodd"/>
        <path id="Path_627" data-name="Path 627" d="M292.883,73.327V91.671H149.23V6.97H292.883Z" transform="translate(-154.07 -11.81)" fill="#fbd39c" fill-rule="evenodd"/>
        <path id="Path_628" data-name="Path 628" d="M292.883,73.23V91.671H149.23V6.97H292.883Z" transform="translate(-154.07 -11.81)" fill="#fbd39d" fill-rule="evenodd"/>
        <path id="Path_629" data-name="Path 629" d="M292.883,73.134V91.671H149.23V6.97H292.883Z" transform="translate(-154.07 -11.81)" fill="#fbd49e" fill-rule="evenodd"/>
        <path id="Path_630" data-name="Path 630" d="M292.883,73.085V91.671H149.23V6.97H292.883Z" transform="translate(-154.07 -11.81)" fill="#fbd59f" fill-rule="evenodd"/>
        <path id="Path_631" data-name="Path 631" d="M292.883,72.988V91.671H149.23V6.97H292.883Z" transform="translate(-154.07 -11.81)" fill="#fbd6a0" fill-rule="evenodd"/>
        <path id="Path_632" data-name="Path 632" d="M292.883,72.892V91.671H149.23V6.97H292.883Z" transform="translate(-154.07 -11.81)" fill="#fbd6a1" fill-rule="evenodd"/>
        <path id="Path_633" data-name="Path 633" d="M292.883,72.795V91.671H149.23V6.97H292.883Z" transform="translate(-154.07 -11.81)" fill="#fcd7a2" fill-rule="evenodd"/>
        <path id="Path_634" data-name="Path 634" d="M292.883,72.7V91.671H149.23V6.97H292.883Z" transform="translate(-154.07 -11.81)" fill="#fcd8a3" fill-rule="evenodd"/>
        <path id="Path_635" data-name="Path 635" d="M292.883,72.6v19.07H149.23V6.97H292.883Z" transform="translate(-154.07 -11.81)" fill="#fcd8a4" fill-rule="evenodd"/>
        <path id="Path_636" data-name="Path 636" d="M292.883,72.5V91.671H149.23V6.97H292.883Z" transform="translate(-154.07 -11.81)" fill="#fcd9a5" fill-rule="evenodd"/>
        <path id="Path_637" data-name="Path 637" d="M292.883,72.408V91.671H149.23V6.97H292.883Z" transform="translate(-154.07 -11.81)" fill="#fcdaa7" fill-rule="evenodd"/>
        <path id="Path_638" data-name="Path 638" d="M292.883,72.311v19.36H149.23V6.97H292.883Z" transform="translate(-154.07 -11.81)" fill="#fcdba8" fill-rule="evenodd"/>
        <path id="Path_639" data-name="Path 639" d="M292.883,72.214V91.671H149.23V6.97H292.883Z" transform="translate(-154.07 -11.81)" fill="#fcdba9" fill-rule="evenodd"/>
        <path id="Path_640" data-name="Path 640" d="M292.883,72.117V91.671H149.23V6.97H292.883Z" transform="translate(-154.07 -11.81)" fill="#fcdcaa" fill-rule="evenodd"/>
        <path id="Path_641" data-name="Path 641" d="M292.883,72.02V91.671H149.23V6.97H292.883Z" transform="translate(-154.07 -11.81)" fill="#fdddab" fill-rule="evenodd"/>
        <path id="Path_642" data-name="Path 642" d="M292.883,71.924V91.671H149.23V6.97H292.883Z" transform="translate(-154.07 -11.81)" fill="#fdddac" fill-rule="evenodd"/>
        <path id="Path_643" data-name="Path 643" d="M292.883,85.082v19.8H149.23V20.225H260.551V-6.25a163.93,163.93,0,0,1,26.281,27.782,105.416,105.416,0,0,1,22.216,63.55Z" transform="translate(-154.07 -25.065)" fill="#fddead" fill-rule="evenodd"/>
        <path id="Path_644" data-name="Path 644" d="M294.722,81.452a92.735,92.735,0,0,1-5.76,30.976V101.345H149.23V16.692h99.415V-5.33A157.306,157.306,0,0,1,273.62,21.1a100.382,100.382,0,0,1,21.1,60.356Z" transform="translate(-154.07 -21.532)" fill="#fddfae" fill-rule="evenodd"/>
        <path id="Path_645" data-name="Path 645" d="M280.5,77.823a86.394,86.394,0,0,1-5.469,29.476v-9.68H149.19V13.159h87.654V-4.41a150.621,150.621,0,0,1,23.668,25.072A95.059,95.059,0,0,1,280.5,77.823Z" transform="translate(-154.224 -17.999)" fill="#fde0af" fill-rule="evenodd"/>
        <path id="Path_646" data-name="Path 646" d="M265.972,90.667a89.735,89.735,0,0,1-19.36,53.725V110.753H149.23V26.1h45.835V-7.78C239.11,17.679,266.214,52.43,265.972,90.667Z" transform="translate(-154.07 -30.94)" fill="#fde0b0" fill-rule="evenodd"/>
        <path id="Path_647" data-name="Path 647" d="M251.6,85.962A84.7,84.7,0,0,1,233.2,136.589V106.145H149.23V21.492h35.623V-6.58C226.284,17.281,251.839,50,251.6,85.962Z" transform="translate(-154.07 -26.332)" fill="#fde1b1" fill-rule="evenodd"/>
        <path id="Path_648" data-name="Path 648" d="M237.222,81.334a78.6,78.6,0,0,1-17.279,47.384v-27.1H149.23V16.961h25.41V-5.4C213.506,16.913,237.416,47.6,237.222,81.334Z" transform="translate(-154.07 -21.801)" fill="#fde2b2" fill-rule="evenodd"/>
        <path id="Path_649" data-name="Path 649" d="M222.847,76.744a73.666,73.666,0,0,1-16.117,44.238V97.121h-57.5V12.468h15.2V-4.23C200.728,16.631,223.041,45.284,222.847,76.744Z" transform="translate(-154.07 -17.308)" fill="#fde3b3" fill-rule="evenodd"/>
        <path id="Path_650" data-name="Path 650" d="M208.472,71.924a68.39,68.39,0,0,1-14.956,41.237V92.4H149.23V7.745h4.84V-3C187.95,16.36,208.666,42.69,208.472,71.924Z" transform="translate(-154.07 -12.585)" fill="#fee3b4" fill-rule="evenodd"/>
        <path id="Path_651" data-name="Path 651" d="M198.206,67.526a63.26,63.26,0,0,1-13.794,37.946V88.1H153.339V3.444L148.16-1.88C179.233,16.028,198.4,40.567,198.206,67.526Z" transform="translate(-158.179 -8.284)" fill="#fee4b5" fill-rule="evenodd"/>
        <path id="Path_652" data-name="Path 652" d="M191.934,62.9A58.081,58.081,0,0,1,179.3,97.65V83.565h-17.86V-.7H146.05C174.558,15.659,192.079,38.166,191.934,62.9Z" transform="translate(-166.281 -3.753)" fill="#fee5b6" fill-rule="evenodd"/>
        <path id="Path_653" data-name="Path 653" d="M185.815,58.309a52.611,52.611,0,0,1-11.471,31.848V79.073H169.5V.47H143.9C170.036,15.377,185.96,35.851,185.815,58.309Z" transform="translate(-174.537 0.74)" fill="#fee5b7" fill-rule="evenodd"/>
        <path id="Path_654" data-name="Path 654" d="M157.808,35.056a47.094,47.094,0,0,1-10.358,28.46l8.615-7.6V6.5h-8.228A47.094,47.094,0,0,1,157.808,35.056Z" transform="translate(-160.905 23.896)" fill="#fee6b8" fill-rule="evenodd"/>
        <path id="Path_655" data-name="Path 655" d="M149.23,12.38Z" transform="translate(-154.07 46.475)" fill="#fee7b9" fill-rule="evenodd"/>
        <path id="Path_656" data-name="Path 656" d="M149.23,12.36Z" transform="translate(-154.07 46.398)" fill="#fee8ba" fill-rule="evenodd"/>
        <path id="Path_657" data-name="Path 657" d="M149.23,12.34Z" transform="translate(-154.07 46.322)" fill="#fee8bb" fill-rule="evenodd"/>
        <path id="Path_658" data-name="Path 658" d="M149.23,12.32Z" transform="translate(-154.07 46.245)" fill="#ffe9bc" fill-rule="evenodd"/>
        <path id="Path_659" data-name="Path 659" d="M149.23,12.3Z" transform="translate(-154.07 46.168)" fill="#ffeabd" fill-rule="evenodd"/>
        <path id="Path_660" data-name="Path 660" d="M149.23,12.28Z" transform="translate(-154.07 46.091)" fill="#ffebbe" fill-rule="evenodd"/>
        <path id="Path_661" data-name="Path 661" d="M149.23,12.26Z" transform="translate(-154.07 46.014)" fill="#ffebbf" fill-rule="evenodd"/>
        <path id="Path_662" data-name="Path 662" d="M149.23,12.25Z" transform="translate(-154.07 45.976)" fill="#ffecc0" fill-rule="evenodd"/>
      </g>
      <g id="Group_37" data-name="Group 37" transform="translate(925.952)" clip-path="url(#clip-path-5)">
        <rect id="Rectangle_24" data-name="Rectangle 24" width="149.848" height="71.246" fill="#f9c78c"/>
        <path id="Path_664" data-name="Path 664" d="M349.79,71.994v15.73H190.31V6.75H349.79Z" transform="translate(-195.15 -11.59)" fill="#f9c78c" fill-rule="evenodd"/>
        <path id="Path_665" data-name="Path 665" d="M349.79,71.9V87.724H190.31V6.75H349.79Z" transform="translate(-195.15 -11.59)" fill="#f9c88d" fill-rule="evenodd"/>
        <path id="Path_666" data-name="Path 666" d="M349.79,71.8V87.724H190.31V6.75H349.79Z" transform="translate(-195.15 -11.59)" fill="#f9c88e" fill-rule="evenodd"/>
        <path id="Path_667" data-name="Path 667" d="M349.79,71.7V87.724H190.31V6.75H349.79Z" transform="translate(-195.15 -11.59)" fill="#f9c98f" fill-rule="evenodd"/>
        <path id="Path_668" data-name="Path 668" d="M349.79,71.607V87.724H190.31V6.75H349.79Z" transform="translate(-195.15 -11.59)" fill="#f9ca90" fill-rule="evenodd"/>
        <path id="Path_669" data-name="Path 669" d="M349.79,71.51V87.724H190.31V6.75H349.79Z" transform="translate(-195.15 -11.59)" fill="#facb91" fill-rule="evenodd"/>
        <path id="Path_670" data-name="Path 670" d="M349.79,71.413V87.724H190.31V6.75H349.79Z" transform="translate(-195.15 -11.59)" fill="#facb92" fill-rule="evenodd"/>
        <path id="Path_671" data-name="Path 671" d="M349.79,71.316V87.724H190.31V6.75H349.79Z" transform="translate(-195.15 -11.59)" fill="#facc93" fill-rule="evenodd"/>
        <path id="Path_672" data-name="Path 672" d="M349.79,71.22v16.5H190.31V6.75H349.79Z" transform="translate(-195.15 -11.59)" fill="#facd94" fill-rule="evenodd"/>
        <path id="Path_673" data-name="Path 673" d="M349.79,71.171V87.724H190.31V6.75H349.79Z" transform="translate(-195.15 -11.59)" fill="#face95" fill-rule="evenodd"/>
        <path id="Path_674" data-name="Path 674" d="M349.79,71.074v16.65H190.31V6.75H349.79Z" transform="translate(-195.15 -11.59)" fill="#face96" fill-rule="evenodd"/>
        <path id="Path_675" data-name="Path 675" d="M349.79,70.978V87.724H190.31V6.75H349.79Z" transform="translate(-195.15 -11.59)" fill="#facf97" fill-rule="evenodd"/>
        <path id="Path_676" data-name="Path 676" d="M349.79,70.881V87.724H190.31V6.75H349.79Z" transform="translate(-195.15 -11.59)" fill="#fad098" fill-rule="evenodd"/>
        <path id="Path_677" data-name="Path 677" d="M349.79,70.784v16.94H190.31V6.75H349.79Z" transform="translate(-195.15 -11.59)" fill="#fbd099" fill-rule="evenodd"/>
        <path id="Path_678" data-name="Path 678" d="M349.79,70.687V87.724H190.31V6.75H349.79Z" transform="translate(-195.15 -11.59)" fill="#fbd19a" fill-rule="evenodd"/>
        <path id="Path_679" data-name="Path 679" d="M349.79,70.59V87.724H190.31V6.75H349.79Z" transform="translate(-195.15 -11.59)" fill="#fbd29b" fill-rule="evenodd"/>
        <path id="Path_680" data-name="Path 680" d="M349.79,70.494V87.724H190.31V6.75H349.79Z" transform="translate(-195.15 -11.59)" fill="#fbd39c" fill-rule="evenodd"/>
        <path id="Path_681" data-name="Path 681" d="M349.79,79.2V96.476H190.31V15.551H343.692V-5.31a191.732,191.732,0,0,1,12.391,27.25H349.79Z" transform="translate(-195.15 -20.391)" fill="#fbd39d" fill-rule="evenodd"/>
        <path id="Path_682" data-name="Path 682" d="M351.532,77.257a160.386,160.386,0,0,1-2.662,28.121V94.633H190.31V13.707H330.188V-4.83a183.931,183.931,0,0,1,11.858,26.475A162.673,162.673,0,0,1,351.532,77.257Z" transform="translate(-195.15 -18.547)" fill="#fbd49e" fill-rule="evenodd"/>
        <path id="Path_683" data-name="Path 683" d="M337.254,75.356a160.5,160.5,0,0,1-2.614,27.3v-9.68H190.31V11.9H316.539V-4.36A181.162,181.162,0,0,1,328.01,21.583a158.949,158.949,0,0,1,9.245,53.773Z" transform="translate(-195.15 -16.743)" fill="#fbd59f" fill-rule="evenodd"/>
        <path id="Path_684" data-name="Path 684" d="M322.928,73.416a146.514,146.514,0,0,1-2.565,26.475V90.985H190.31V10.059H302.841V-3.88a178.227,178.227,0,0,1,11.132,24.975,153.092,153.092,0,0,1,8.954,52.321Z" transform="translate(-195.15 -14.899)" fill="#fbd6a0" fill-rule="evenodd"/>
        <path id="Path_685" data-name="Path 685" d="M308.6,71.476a148.3,148.3,0,0,1-9.341,50.579V89.142H190.31V8.216h98.834V-3.4a169.41,169.41,0,0,1,10.793,24.2A147.473,147.473,0,0,1,308.6,71.476Z" transform="translate(-195.15 -13.056)" fill="#fbd6a1" fill-rule="evenodd"/>
        <path id="Path_686" data-name="Path 686" d="M294.323,87.315a144.571,144.571,0,0,1-9.051,48.933v-31.17H190.31V24.152h71.1V-7.55C282.707,21.684,294.516,53.725,294.323,87.315Z" transform="translate(-195.15 -28.992)" fill="#fcd7a2" fill-rule="evenodd"/>
        <path id="Path_687" data-name="Path 687" d="M280,84.654a137.99,137.99,0,0,1-8.906,47.481V102.659H190.31V21.733h57.645V-6.92C268.816,21.346,280.19,52.322,280,84.654Z" transform="translate(-195.15 -26.573)" fill="#fcd8a3" fill-rule="evenodd"/>
        <path id="Path_688" data-name="Path 688" d="M265.67,82.2a134.216,134.216,0,0,1-8.422,45.69V100.2H190.31V19.276h44.48V-6.28A146.8,146.8,0,0,1,265.67,82.2Z" transform="translate(-195.15 -24.116)" fill="#fcd8a4" fill-rule="evenodd"/>
        <path id="Path_689" data-name="Path 689" d="M251.392,79.777a129.327,129.327,0,0,1-8.18,44.045V97.782h-52.9V16.856h31.267V-5.65a141.766,141.766,0,0,1,29.815,85.427Z" transform="translate(-195.15 -21.696)" fill="#fcd9a5" fill-rule="evenodd"/>
        <path id="Path_690" data-name="Path 690" d="M236.941,77.281a124.824,124.824,0,0,1-7.841,42.447v-24.2H190.38V14.36H207.9V-5A136.539,136.539,0,0,1,236.941,77.281Z" transform="translate(-194.881 -19.2)" fill="#fcdaa7" fill-rule="evenodd"/>
        <path id="Path_691" data-name="Path 691" d="M222.728,74.9a118.969,118.969,0,0,1-7.55,40.8v-22.8H190.3V11.979h4.84V-4.38A130.681,130.681,0,0,1,222.728,74.9Z" transform="translate(-195.188 -16.819)" fill="#fcdba8" fill-rule="evenodd"/>
        <path id="Path_692" data-name="Path 692" d="M215.055,72.142a113.982,113.982,0,0,1-7.212,39.059V90.389h-10.89V9.56L188.58-3.75a125.841,125.841,0,0,1,26.475,75.892Z" transform="translate(-201.793 -14.4)" fill="#fcdba9" fill-rule="evenodd"/>
        <path id="Path_693" data-name="Path 693" d="M211.26,69.626a109.821,109.821,0,0,1-6.97,37.559l3.146-19.36V7.141L185.85-3.12a121,121,0,0,1,25.41,72.746Z" transform="translate(-212.277 -11.981)" fill="#fcdcaa" fill-rule="evenodd"/>
        <path id="Path_694" data-name="Path 694" d="M190.31,11.89Z" transform="translate(-195.15 45.658)" fill="#fdddab" fill-rule="evenodd"/>
        <path id="Path_695" data-name="Path 695" d="M190.31,11.87Z" transform="translate(-195.15 45.582)" fill="#fdddac" fill-rule="evenodd"/>
        <path id="Path_696" data-name="Path 696" d="M190.31,11.85Z" transform="translate(-195.15 45.505)" fill="#fddead" fill-rule="evenodd"/>
        <path id="Path_697" data-name="Path 697" d="M190.31,11.83Z" transform="translate(-195.15 45.428)" fill="#fddfae" fill-rule="evenodd"/>
        <path id="Path_698" data-name="Path 698" d="M190.31,11.81Z" transform="translate(-195.15 45.351)" fill="#fde0af" fill-rule="evenodd"/>
        <path id="Path_699" data-name="Path 699" d="M190.31,11.8Z" transform="translate(-195.15 45.313)" fill="#fde0b0" fill-rule="evenodd"/>
        <path id="Path_700" data-name="Path 700" d="M190.31,11.78Z" transform="translate(-195.15 45.236)" fill="#fde1b1" fill-rule="evenodd"/>
        <path id="Path_701" data-name="Path 701" d="M190.31,11.76Z" transform="translate(-195.15 45.159)" fill="#fde2b2" fill-rule="evenodd"/>
        <path id="Path_702" data-name="Path 702" d="M190.31,11.74Z" transform="translate(-195.15 45.082)" fill="#fde3b3" fill-rule="evenodd"/>
        <path id="Path_703" data-name="Path 703" d="M190.31,11.72Z" transform="translate(-195.15 45.006)" fill="#fee3b4" fill-rule="evenodd"/>
        <path id="Path_704" data-name="Path 704" d="M190.31,11.7Z" transform="translate(-195.15 44.929)" fill="#fee4b5" fill-rule="evenodd"/>
        <path id="Path_705" data-name="Path 705" d="M190.31,11.68Z" transform="translate(-195.15 44.852)" fill="#fee5b6" fill-rule="evenodd"/>
        <path id="Path_706" data-name="Path 706" d="M190.31,11.66Z" transform="translate(-195.15 44.775)" fill="#fee5b7" fill-rule="evenodd"/>
        <path id="Path_707" data-name="Path 707" d="M190.31,11.64Z" transform="translate(-195.15 44.698)" fill="#fee6b8" fill-rule="evenodd"/>
        <path id="Path_708" data-name="Path 708" d="M190.31,11.62Z" transform="translate(-195.15 44.621)" fill="#fee7b9" fill-rule="evenodd"/>
        <path id="Path_709" data-name="Path 709" d="M190.31,11.6Z" transform="translate(-195.15 44.545)" fill="#fee8ba" fill-rule="evenodd"/>
        <path id="Path_710" data-name="Path 710" d="M190.31,11.58Z" transform="translate(-195.15 44.468)" fill="#fee8bb" fill-rule="evenodd"/>
        <path id="Path_711" data-name="Path 711" d="M190.31,11.56Z" transform="translate(-195.15 44.391)" fill="#ffe9bc" fill-rule="evenodd"/>
        <path id="Path_712" data-name="Path 712" d="M190.31,11.54Z" transform="translate(-195.15 44.314)" fill="#ffeabd" fill-rule="evenodd"/>
        <path id="Path_713" data-name="Path 713" d="M190.31,11.52Z" transform="translate(-195.15 44.237)" fill="#ffebbe" fill-rule="evenodd"/>
        <path id="Path_714" data-name="Path 714" d="M190.31,11.5Z" transform="translate(-195.15 44.161)" fill="#ffebbf" fill-rule="evenodd"/>
        <path id="Path_715" data-name="Path 715" d="M190.31,11.48Z" transform="translate(-195.15 44.084)" fill="#ffecc0" fill-rule="evenodd"/>
      </g>
    </g>
  </g>
</svg>
