<svg id="ShopCartIcon" xmlns="http://www.w3.org/2000/svg" width="19.813" height="26.144" viewBox="0 0 19.813 26.144">
  <path id="Path_862" data-name="Path 862" d="M18.086,8.242a.912.912,0,1,1-1.824,0V6.418a3.344,3.344,0,1,0-6.688,0V8.242a.912.912,0,1,1-1.824,0V6.418a5.168,5.168,0,1,1,10.336,0Z" transform="translate(-3.011 -1.25)" fill="#7262af" fill-rule="evenodd"/>
  <path id="Path_863" data-name="Path 863" d="M22.688,8.8,23.661,23.4a2.74,2.74,0,0,1-2.73,2.918H6.589A2.737,2.737,0,0,1,3.859,23.4L4.832,8.8A2.736,2.736,0,0,1,7.562,6.25h12.4A2.736,2.736,0,0,1,22.688,8.8Zm-5.9,2.831a3.348,3.348,0,0,1-6.046,0,.912.912,0,0,0-1.648.783,5.168,5.168,0,0,0,9.341,0,.912.912,0,0,0-1.648-.783Z" transform="translate(-3.853 -0.17)" fill="#7262af" fill-rule="evenodd"/>
</svg>
