<svg xmlns="http://www.w3.org/2000/svg" width="121.868" height="19" viewBox="0 0 121.868 19">
  <g id="stars" transform="translate(-695.032 -906.868)">
    <path id="star" d="M15.481,19a.97.97,0,0,1-.452-.112L9.938,16.212,4.847,18.888a.971.971,0,0,1-1.407-1.023L4.411,12.2.293,8.182A.971.971,0,0,1,.832,6.526L6.523,5.7,9.068.541a.971.971,0,0,1,1.741,0L13.355,5.7l5.691.828a.971.971,0,0,1,.538,1.656L15.466,12.2l.971,5.669A.971.971,0,0,1,15.481,19Z" transform="translate(695.032 906.868)" fill="#7262af" fill-rule="evenodd"/>
    <path id="star-2" data-name="star" d="M15.481,19a.97.97,0,0,1-.452-.112L9.938,16.212,4.847,18.888a.971.971,0,0,1-1.407-1.023L4.411,12.2.293,8.182A.971.971,0,0,1,.832,6.526L6.523,5.7,9.068.541a.971.971,0,0,1,1.741,0L13.355,5.7l5.691.828a.971.971,0,0,1,.538,1.656L15.466,12.2l.971,5.669A.971.971,0,0,1,15.481,19Z" transform="translate(720.53 906.868)" fill="#7262af" fill-rule="evenodd"/>
    <path id="star-3" data-name="star" d="M15.481,19a.97.97,0,0,1-.452-.112L9.938,16.212,4.847,18.888a.971.971,0,0,1-1.407-1.023L4.411,12.2.293,8.182A.971.971,0,0,1,.832,6.526L6.523,5.7,9.068.541a.971.971,0,0,1,1.741,0L13.355,5.7l5.691.828a.971.971,0,0,1,.538,1.656L15.466,12.2l.971,5.669A.971.971,0,0,1,15.481,19Z" transform="translate(746.027 906.868)" fill="#7262af" fill-rule="evenodd"/>
    <path id="star-4" data-name="star" d="M15.481,19a.97.97,0,0,1-.452-.112L9.938,16.212,4.847,18.888a.971.971,0,0,1-1.407-1.023L4.411,12.2.293,8.182A.971.971,0,0,1,.832,6.526L6.523,5.7,9.068.541a.971.971,0,0,1,1.741,0L13.355,5.7l5.691.828a.971.971,0,0,1,.538,1.656L15.466,12.2l.971,5.669A.971.971,0,0,1,15.481,19Z" transform="translate(771.525 906.868)" fill="#7262af" fill-rule="evenodd"/>
    <path id="star-5" data-name="star" d="M15.481,19a.97.97,0,0,1-.452-.112L9.938,16.212,4.847,18.888a.971.971,0,0,1-1.407-1.023L4.411,12.2.293,8.182A.971.971,0,0,1,.832,6.526L6.523,5.7,9.068.541a.971.971,0,0,1,1.741,0L13.355,5.7l5.691.828a.971.971,0,0,1,.538,1.656L15.466,12.2l.971,5.669A.971.971,0,0,1,15.481,19Z" transform="translate(797.023 906.868)" fill="#7262af" fill-rule="evenodd" opacity="0.6"/>
  </g>
</svg>
