<svg xmlns="http://www.w3.org/2000/svg" width="160" height="160" viewBox="0 0 160 160">
  <g id="uploadImgIconCircle" transform="translate(-54 -2067)">
    <circle id="Ellipse_59" data-name="Ellipse 59" cx="80" cy="80" r="80" transform="translate(54 2067)" fill="#e9e4ff"/>
    <g id="uploadImgIcon" transform="translate(76.372 2092.249)">
      <g id="Group_1" data-name="Group 1" transform="translate(2.227 2.251)">
        <path id="Path_1" data-name="Path 1" d="M112.9,35.283V81.3a19.166,19.166,0,0,1-21.258,21.258H23.614A19.166,19.166,0,0,1,2.356,81.3V24.614A19.166,19.166,0,0,1,23.614,3.356H73.5a1.7,1.7,0,0,1,1.616,2.069,25.436,25.436,0,0,0,35.452,28.259,1.7,1.7,0,0,1,2.33,1.6Z" transform="translate(-2.227 2.306)" fill="rgba(168,148,255,0.25)"/>
        <path id="Path_2" data-name="Path 2" d="M96.785,69.771,71.548,44.534a5.7,5.7,0,0,0-8.05,0l-28,28a2.834,2.834,0,0,1-3.968,0L26.2,67.208a5.7,5.7,0,0,0-8.05,0l-13.9,13.9a1.7,1.7,0,0,0-.5,1.2v3.549c0,8.957,3.8,12.755,12.755,12.755H84.529c8.957,0,12.755-3.8,12.755-12.755V70.972a1.7,1.7,0,0,0-.5-1.2ZM27.842,47.6a7.086,7.086,0,1,1-.051-14.172h.051a7.086,7.086,0,1,1,0,14.172ZM104.54,12l-8.5-8.5a4.257,4.257,0,0,0-6.009,0l-8.5,8.5a4.252,4.252,0,0,0,6,6l1.247-1.241V29.171a4.252,4.252,0,1,0,8.5,0V16.763L98.531,18a4.252,4.252,0,0,0,6.009-6Z" transform="translate(4.882 -2.251)" fill="#8772d9"/>
      </g>
    </g>
  </g>
</svg>
